{
.appVersion = "1352";
copyright = "Copyright 2012 Google Inc. All Rights Reserved.";
customParameters = (
{
name = vendorID;
value = MONO;
},
{
name = panose;
value = (
2,
2,
6,
0,
6,
5,
0,
2,
2,
0
);
},
{
name = unicodeRanges;
value = (
0,
1,
2,
3,
4,
5,
6,
7,
9,
29,
30,
31,
32,
33,
34,
35,
36,
37,
38,
39,
43,
44,
45,
46,
60,
62,
64,
67,
69
);
},
{
name = glyphOrder;
value = (
.notdef,
CR,
space,
uni0000,
exclam,
quotedbl,
numbersign,
dollar,
percent,
ampersand,
quotesingle,
parenleft,
parenright,
asterisk,
plus,
comma,
hyphen,
period,
slash,
zero,
one,
two,
three,
four,
five,
six,
seven,
eight,
nine,
colon,
semicolon,
less,
equal,
greater,
question,
at,
A,
B,
C,
D,
E,
F,
G,
H,
I,
J,
K,
L,
M,
N,
O,
P,
Q,
R,
S,
T,
U,
V,
W,
X,
Y,
Z,
bracketleft,
backslash,
bracketright,
asciicircum,
underscore,
grave,
a,
b,
c,
d,
e,
f,
g,
h,
i,
j,
k,
l,
m,
n,
o,
p,
q,
r,
s,
t,
u,
v,
w,
x,
y,
z,
braceleft,
bar,
braceright,
asciitilde,
uni00A0,
exclamdown,
cent,
sterling,
currency,
yen,
brokenbar,
section,
dieresis,
copyright,
ordfeminine,
guillemotleft,
logicalnot,
uni00AD,
registered,
macron,
degree,
plusminus,
uni00B2,
uni00B3,
acute,
uni00B5,
paragraph,
periodcentered,
cedilla,
uni00B9,
ordmasculine,
guillemotright,
onequarter,
onehalf,
threequarters,
questiondown,
uni1780,
uni1781,
uni1782,
uni1783,
uni1784,
uni1785,
uni1786,
uni1787,
uni1788,
uni1789,
uni178A,
uni178B,
uni178C,
uni178D,
uni178E,
uni178F,
uni1790,
uni1791,
uni1792,
uni1793,
uni1794,
uni1795,
uni1796,
uni1797,
uni1798,
uni1799,
uni179A,
uni179B,
uni179C,
uni179D,
uni179E,
uni179F,
uni17A0,
uni17A1,
uni17A2,
uni17A3,
uni17A4,
uni17A5,
uni17A6,
uni17A7,
uni17A8,
uni17A9,
uni17AA,
uni17AB,
uni17AC,
uni17AD,
uni17AE,
uni17AF,
uni17B0,
uni17B1,
uni17B2,
uni17B3,
uni17B4,
uni17B5,
uni17B6,
uni17B7,
uni17B8,
uni17B9,
uni17BA,
uni17BB,
uni17BC,
uni17BD,
uni17BE,
uni17BF,
uni17C0,
uni17C1,
uni17C2,
uni17C3,
uni17C4,
uni17C5,
uni17C6,
uni17C7,
uni17C8,
uni17C9,
uni17CA,
uni17CB,
uni17CC,
uni17CD,
uni17CE,
uni17CF,

glyphs = (
{
glyphname = .notdef;
layers = (
{
layerId = "B1070C97-2DE4-4FC8-9990-FF316D9539D4";
paths = (
{
closed = 1;
nodes = (
"922 1462 LINE",
"102 1462 LINE",
"102 0 LINE",
"922 0 LINE"
);
},
{
closed = 1;
nodes = (
"823 1364 LINE",
"823 98 LINE",
"201 98 LINE",
"201 1364 LINE"
);
}
);
userData = {
assembly = "NPUSHB[ ]	/* 39 values pushed */\0120 0 0 3 2 0 3 103 0 2 1 1 2 87 0 2 2 1 95 4 1 1 2 1 79 0 0 7 6 5 4 0 3 0 3 17 5 6 23 \012CALL[ ]	/* CallFunction */";
};
width = 1024;
}
);
note = .notdef;
},
{
glyphname = exclam;
layers = (
{
layerId = "B1070C97-2DE4-4FC8-9990-FF316D9539D4";
paths = (
{
closed = 1;
nodes = (
"631 1331 LINE",
"631 1630 LINE",
"43 1630 LINE",
"43 1331 LINE",
"127 555 LINE",
"547 557 LINE"
);
},
{
closed = 1;
nodes = (
"461 -33 OFFCURVE",
"543 33 QCURVE SMOOTH",
"623 100 OFFCURVE",
"623 213 QCURVE SMOOTH",
"623 328 OFFCURVE",
"541 395 QCURVE SMOOTH",
"457 463 OFFCURVE",
"336 463 QCURVE SMOOTH",
"334 463 LINE SMOOTH",
"215 463 OFFCURVE",
"135 395 QCURVE SMOOTH",
"57 328 OFFCURVE",
"57 213 QCURVE SMOOTH",
"57 100 OFFCURVE",
"135 33 QCURVE SMOOTH",
"213 -33 OFFCURVE",
"336 -33 QCURVE SMOOTH"
);
}
);
width = 679;
}
);
note = exclam;
unicode = 0021;
},
{
glyphname = quotedbl;
layers = (
{
layerId = "B1070C97-2DE4-4FC8-9990-FF316D9539D4";
paths = (
{
closed = 1;
nodes = (
"519 1624 LINE",
"40 1624 LINE",
"120 944 LINE",
"421 944 LINE"
);
},
{
closed = 1;
nodes = (
"1107 1624 LINE",
"628 1624 LINE",
"708 944 LINE",
"1007 944 LINE"
);
}
);
width = 1148;
}
);
note = quotedbl;
unicode = 0022;
},
{
glyphname = numbersign;
layers = (
{
layerId = "B1070C97-2DE4-4FC8-9990-FF316D9539D4";
paths = (
{
closed = 1;
nodes = (
"483 287 LINE",
"646 287 LINE",
"583 0 LINE",
"896 0 LINE",
"962 287 LINE",
"1111 287 LINE",
"1175 586 LINE",
"1029 586 LINE",
"1113 946 LINE",
"1259 946 LINE",
"1322 1245 LINE",
"1181 1245 LINE",
"1269 1622 LINE",
"943 1622 LINE",
"859 1245 LINE",
"702 1245 LINE",
"790 1622 LINE",
"466 1622 LINE",
"382 1245 LINE",
"241 1245 LINE",
"177 946 LINE",
"315 946 LINE",
"235 586 LINE",
"93 586 LINE",
"32 287 LINE",
"167 287 LINE",
"104 0 LINE",
"417 0 LINE"
);
},
{
closed = 1;
nodes = (
"794 946 LINE",
"714 586 LINE",
"552 586 LINE",
"634 946 LINE"
);
}
);
width = 1353;
}
);
note = numbersign;
unicode = 0023;
},
{
glyphname = dollar;
layers = (
{
layerId = "B1070C97-2DE4-4FC8-9990-FF316D9539D4";
paths = (
{
closed = 1;
nodes = (
"780 -168 LINE",
"780 35 LINE",
"909 39 OFFCURVE",
"1128 168 OFFCURVE",
"1257 381 OFFCURVE",
"1257 508 QCURVE SMOOTH",
"1257 705 OFFCURVE",
"1012 928 OFFCURVE",
"780 989 QCURVE",
"780 1235 LINE",
"823 1225 OFFCURVE",
"905 1104 OFFCURVE",
"919 1038 QCURVE",
"1149 1038 LINE",
"1149 1477 LINE",
"967 1477 LINE",
"923 1434 LINE",
"852 1479 OFFCURVE",
"778 1493 QCURVE",
"778 1704 LINE",
"553 1704 LINE",
"553 1511 LINE",
"328 1501 OFFCURVE",
"49 1262 OFFCURVE",
"49 1053 QCURVE SMOOTH",
"49 918 OFFCURVE",
"160 743 OFFCURVE",
"371 635 OFFCURVE",
"543 588 QCURVE",
"543 299 LINE",
"493 299 OFFCURVE",
"381 375 OFFCURVE",
"303 492 OFFCURVE",
"299 547 QCURVE",
"57 545 LINE",
"57 66 LINE",
"254 66 LINE",
"297 129 LINE",
"407 76 OFFCURVE",
"549 47 QCURVE",
"549 -168 LINE"
);
},
{
closed = 1;
nodes = (
"498 1069 OFFCURVE",
"432 1135 OFFCURVE",
"432 1180 QCURVE SMOOTH",
"432 1182 LINE SMOOTH",
"432 1219 OFFCURVE",
"467 1246 QCURVE SMOOTH",
"500 1270 OFFCURVE",
"541 1270 QCURVE SMOOTH",
"547 1270 LINE",
"547 1059 LINE"
);
},
{
closed = 1;
nodes = (
"770 528 LINE",
"819 522 OFFCURVE",
"872 457 OFFCURVE",
"872 414 QCURVE SMOOTH",
"872 369 OFFCURVE",
"809 307 OFFCURVE",
"770 307 QCURVE"
);
}
);
width = 1294;
}
);
note = dollar;
unicode = 0024;
},
{
glyphname = percent;
layers = (
{
layerId = "B1070C97-2DE4-4FC8-9990-FF316D9539D4";
paths = (
{
closed = 1;
nodes = (
"677 539 OFFCURVE",
"902 678 OFFCURVE",
"1025 936 OFFCURVE",
"1025 1110 QCURVE SMOOTH",
"1025 1276 OFFCURVE",
"904 1522 OFFCURVE",
"677 1653 OFFCURVE",
"526 1653 QCURVE SMOOTH",
"376 1653 OFFCURVE",
"153 1522 OFFCURVE",
"32 1276 OFFCURVE",
"32 1110 QCURVE SMOOTH",
"32 936 OFFCURVE",
"151 678 OFFCURVE",
"374 539 OFFCURVE",
"524 539 QCURVE SMOOTH"
);
},
{
closed = 1;
nodes = (
"1758 1622 LINE",
"1255 1622 LINE",
"913 0 LINE",
"1416 0 LINE"
);
},
{
closed = 1;
nodes = (
"476 889 OFFCURVE",
"429 995 OFFCURVE",
"429 1110 QCURVE SMOOTH",
"429 1214 OFFCURVE",
"476 1311 OFFCURVE",
"526 1313 QCURVE SMOOTH",
"577 1313 OFFCURVE",
"624 1217 OFFCURVE",
"624 1110 QCURVE SMOOTH",
"624 993 OFFCURVE",
"577 889 OFFCURVE",
"526 889 QCURVE SMOOTH"
);
},
{
closed = 1;
nodes = (
"2301 -31 OFFCURVE",
"2526 109 OFFCURVE",
"2649 367 OFFCURVE",
"2649 541 QCURVE SMOOTH",
"2649 705 OFFCURVE",
"2529 950 OFFCURVE",
"2301 1081 OFFCURVE",
"2150 1081 QCURVE SMOOTH",
"2000 1081 OFFCURVE",
"1777 950 OFFCURVE",
"1656 705 OFFCURVE",
"1656 541 QCURVE SMOOTH",
"1656 367 OFFCURVE",
"1775 109 OFFCURVE",
"1998 -31 OFFCURVE",
"2148 -31 QCURVE SMOOTH"
);
},
{
closed = 1;
nodes = (
"2100 319 OFFCURVE",
"2053 424 OFFCURVE",
"2053 541 QCURVE SMOOTH",
"2053 647 OFFCURVE",
"2103 741 OFFCURVE",
"2154 741 QCURVE SMOOTH",
"2201 741 OFFCURVE",
"2248 645 OFFCURVE",
"2248 541 QCURVE SMOOTH",
"2248 424 OFFCURVE",
"2201 319 OFFCURVE",
"2150 319 QCURVE SMOOTH"
);
}
);
width = 2693;
}
);
note = percent;
unicode = 0025;
},
{
glyphname = ampersand;
layers = (
{
layerId = "B1070C97-2DE4-4FC8-9990-FF316D9539D4";
paths = (
{
closed = 1;
nodes = (
"1592 811 OFFCURVE",
"1668 838 QCURVE",
"1668 1126 LINE",
"1185 1126 LINE",
"1185 831 LINE",
"1232 831 LINE SMOOTH",
"1259 831 OFFCURVE",
"1259 797 QCURVE SMOOTH",
"1259 778 OFFCURVE",
"1232 750 QCURVE",
"1214 727 OFFCURVE",
"1179 692 QCURVE",
"1152 670 LINE",
"974 844 LINE",
"1031 893 OFFCURVE",
"1054 920 QCURVE SMOOTH",
"1087 954 OFFCURVE",
"1103 985 QCURVE SMOOTH",
"1125 1022 OFFCURVE",
"1134 1065 QCURVE",
"1142 1122 OFFCURVE",
"1142 1167 QCURVE SMOOTH",
"1142 1243 OFFCURVE",
"1103 1315 QCURVE SMOOTH",
"1066 1382 OFFCURVE",
"1005 1425 QCURVE SMOOTH",
"939 1468 OFFCURVE",
"867 1491 QCURVE SMOOTH",
"790 1513 OFFCURVE",
"716 1513 QCURVE SMOOTH",
"624 1513 OFFCURVE",
"532 1487 QCURVE SMOOTH",
"450 1462 OFFCURVE",
"378 1409 QCURVE SMOOTH",
"308 1356 OFFCURVE",
"274 1280 QCURVE SMOOTH",
"235 1204 OFFCURVE",
"235 1108 QCURVE SMOOTH",
"239 930 OFFCURVE",
"353 805 QCURVE",
"198 737 OFFCURVE",
"120 633 QCURVE SMOOTH",
"42 530 OFFCURVE",
"38 375 QCURVE",
"44 184 OFFCURVE",
"169 78 QCURVE SMOOTH",
"296 -27 OFFCURVE",
"491 -31 QCURVE",
"767 -25 OFFCURVE",
"951 180 QCURVE",
"1064 59 OFFCURVE",
"1125 -2 QCURVE",
"1125 0 LINE",
"1664 0 LINE",
"1664 369 LINE",
"1435 369 LINE",
"1295 514 OFFCURVE",
"1287 518 QCURVE",
"1457 694 LINE SMOOTH",
"1519 756 OFFCURVE",
"1560 786 QCURVE SMOOTH"
);
},
{
closed = 1;
nodes = (
"843 1057 OFFCURVE",
"794 1020 QCURVE",
"763 1042 OFFCURVE",
"743 1063 QCURVE",
"730 1073 OFFCURVE",
"706 1110 QCURVE SMOOTH",
"687 1141 OFFCURVE",
"687 1171 QCURVE SMOOTH",
"687 1210 OFFCURVE",
"714 1239 QCURVE SMOOTH",
"743 1270 OFFCURVE",
"779 1270 QCURVE SMOOTH",
"833 1270 OFFCURVE",
"857 1235 QCURVE SMOOTH",
"886 1196 OFFCURVE",
"886 1149 QCURVE SMOOTH",
"886 1108 OFFCURVE",
"863 1079 QCURVE SMOOTH"
);
},
{
closed = 1;
nodes = (
"583 330 OFFCURVE",
"540 373 QCURVE SMOOTH",
"497 416 OFFCURVE",
"497 481 QCURVE SMOOTH",
"497 483 LINE SMOOTH",
"497 502 OFFCURVE",
"503 516 QCURVE SMOOTH",
"509 532 OFFCURVE",
"517 545 QCURVE",
"536 565 LINE",
"550 580 LINE",
"556 584 LINE",
"765 371 LINE",
"712 330 OFFCURVE",
"650 330 QCURVE SMOOTH"
);
}
);
width = 1722;
}
);
note = ampersand;
unicode = 0026;
},
{
glyphname = quotesingle;
layers = (
{
layerId = "B1070C97-2DE4-4FC8-9990-FF316D9539D4";
paths = (
{
closed = 1;
nodes = (
"519 1624 LINE",
"40 1624 LINE",
"120 944 LINE",
"421 944 LINE"
);
}
);
width = 561;
}
);
note = quotesingle;
unicode = 0027;
},
{
glyphname = parenleft;
layers = (
{
layerId = "B1070C97-2DE4-4FC8-9990-FF316D9539D4";
paths = (
{
closed = 1;
nodes = (
"874 311 LINE",
"790 311 OFFCURVE",
"725 342 QCURVE SMOOTH",
"663 369 OFFCURVE",
"624 420 QCURVE SMOOTH",
"585 465 OFFCURVE",
"561 537 QCURVE SMOOTH",
"536 616 OFFCURVE",
"528 672 QCURVE SMOOTH",
"520 731 OFFCURVE",
"520 817 QCURVE SMOOTH",
"520 899 OFFCURVE",
"524 936 QCURVE SMOOTH",
"526 979 OFFCURVE",
"540 1049 QCURVE SMOOTH",
"553 1110 OFFCURVE",
"579 1153 QCURVE SMOOTH",
"602 1194 OFFCURVE",
"641 1237 QCURVE SMOOTH",
"677 1274 OFFCURVE",
"739 1296 QCURVE SMOOTH",
"802 1319 OFFCURVE",
"876 1319 QCURVE",
"878 1321 LINE",
"878 1653 LINE",
"653 1653 OFFCURVE",
"483 1599 QCURVE SMOOTH",
"315 1542 OFFCURVE",
"217 1438 QCURVE SMOOTH",
"112 1327 OFFCURVE",
"67 1176 QCURVE SMOOTH",
"18 1022 OFFCURVE",
"18 815 QCURVE SMOOTH",
"18 682 OFFCURVE",
"49 561 QCURVE SMOOTH",
"84 436 OFFCURVE",
"149 334 QCURVE SMOOTH",
"219 227 OFFCURVE",
"317 147 QCURVE SMOOTH",
"419 70 OFFCURVE",
"559 25 QCURVE SMOOTH",
"706 -20 OFFCURVE",
"874 -20 QCURVE"
);
}
);
width = 915;
}
);
note = parenleft;
unicode = 0028;
},
{
glyphname = parenright;
layers = (
{
layerId = "B1070C97-2DE4-4FC8-9990-FF316D9539D4";
paths = (
{
closed = 1;
nodes = (
"798 1329 OFFCURVE",
"698 1436 QCURVE SMOOTH",
"593 1546 OFFCURVE",
"429 1597 QCURVE SMOOTH",
"267 1653 OFFCURVE",
"38 1653 QCURVE",
"38 1321 LINE",
"112 1321 OFFCURVE",
"173 1298 QCURVE SMOOTH",
"235 1278 OFFCURVE",
"272 1237 QCURVE SMOOTH",
"308 1202 OFFCURVE",
"335 1153 QCURVE SMOOTH",
"364 1104 OFFCURVE",
"374 1049 QCURVE SMOOTH",
"380 1016 OFFCURVE",
"390 936 QCURVE",
"394 866 OFFCURVE",
"394 817 QCURVE SMOOTH",
"394 748 OFFCURVE",
"384 672 QCURVE SMOOTH",
"378 612 OFFCURVE",
"351 537 QCURVE SMOOTH",
"331 473 OFFCURVE",
"290 420 QCURVE SMOOTH",
"253 371 OFFCURVE",
"188 342 QCURVE SMOOTH",
"124 311 OFFCURVE",
"40 311 QCURVE",
"40 -20 LINE",
"204 -20 OFFCURVE",
"355 25 QCURVE SMOOTH",
"495 70 OFFCURVE",
"597 147 QCURVE SMOOTH",
"698 229 OFFCURVE",
"765 332 QCURVE SMOOTH",
"833 438 OFFCURVE",
"863 559 QCURVE SMOOTH",
"896 678 OFFCURVE",
"896 815 QCURVE SMOOTH",
"896 1022 OFFCURVE",
"847 1176 QCURVE SMOOTH"
);
}
);
width = 915;
}
);
note = parenright;
unicode = 0029;
},
{
glyphname = asterisk;
layers = (
{
layerId = "B1070C97-2DE4-4FC8-9990-FF316D9539D4";
paths = (
{
closed = 1;
nodes = (
"686 242 OFFCURVE",
"731 291 QCURVE",
"780 338 OFFCURVE",
"780 422 QCURVE SMOOTH",
"780 455 OFFCURVE",
"770 516 QCURVE SMOOTH",
"759 571 OFFCURVE",
"751 602 QCURVE SMOOTH",
"721 709 LINE",
"692 797 LINE",
"753 725 LINE",
"776 694 OFFCURVE",
"825 641 QCURVE SMOOTH",
"860 602 OFFCURVE",
"888 575 QCURVE SMOOTH",
"931 535 OFFCURVE",
"962 516 QCURVE SMOOTH",
"1020 481 OFFCURVE",
"1073 481 QCURVE SMOOTH",
"1093 481 OFFCURVE",
"1101 483 QCURVE SMOOTH",
"1167 500 OFFCURVE",
"1200 553 QCURVE SMOOTH",
"1226 594 OFFCURVE",
"1226 639 QCURVE SMOOTH",
"1226 674 OFFCURVE",
"1206 713 QCURVE SMOOTH",
"1185 756 OFFCURVE",
"1138 786 QCURVE SMOOTH",
"1097 815 OFFCURVE",
"1022 846 QCURVE",
"923 881 OFFCURVE",
"858 899 QCURVE SMOOTH",
"755 930 OFFCURVE",
"733 938 QCURVE",
"809 963 OFFCURVE",
"856 977 QCURVE SMOOTH",
"921 995 OFFCURVE",
"1020 1030 QCURVE SMOOTH",
"1091 1059 OFFCURVE",
"1136 1087 QCURVE",
"1183 1122 OFFCURVE",
"1204 1163 QCURVE SMOOTH",
"1224 1198 OFFCURVE",
"1224 1237 QCURVE SMOOTH",
"1224 1280 OFFCURVE",
"1198 1323 QCURVE SMOOTH",
"1165 1378 OFFCURVE",
"1099 1391 QCURVE SMOOTH",
"1079 1395 OFFCURVE",
"1069 1395 QCURVE SMOOTH",
"1020 1395 OFFCURVE",
"960 1360 QCURVE",
"923 1333 OFFCURVE",
"888 1298 QCURVE SMOOTH",
"847 1262 OFFCURVE",
"823 1233 QCURVE SMOOTH",
"776 1180 OFFCURVE",
"753 1151 QCURVE SMOOTH",
"692 1079 LINE",
"714 1151 LINE",
"737 1231 LINE",
"757 1305 LINE",
"772 1384 LINE",
"776 1434 OFFCURVE",
"776 1454 QCURVE SMOOTH",
"776 1540 OFFCURVE",
"729 1585 QCURVE SMOOTH",
"680 1634 OFFCURVE",
"616 1634 QCURVE SMOOTH",
"551 1634 OFFCURVE",
"503 1585 QCURVE SMOOTH",
"454 1540 OFFCURVE",
"454 1454 QCURVE SMOOTH",
"454 1421 OFFCURVE",
"465 1360 QCURVE SMOOTH",
"473 1307 OFFCURVE",
"483 1272 QCURVE SMOOTH",
"514 1165 LINE",
"540 1077 LINE",
"526 1092 OFFCURVE",
"481 1149 QCURVE SMOOTH",
"409 1233 LINE SMOOTH",
"389 1257 OFFCURVE",
"346 1296 QCURVE SMOOTH",
"311 1331 OFFCURVE",
"274 1358 QCURVE",
"215 1393 OFFCURVE",
"163 1393 QCURVE SMOOTH",
"153 1393 OFFCURVE",
"133 1389 QCURVE SMOOTH",
"69 1376 OFFCURVE",
"36 1321 QCURVE",
"45 1327 LINE",
"20 1290 OFFCURVE",
"20 1243 QCURVE SMOOTH",
"20 1206 OFFCURVE",
"39 1169 QCURVE SMOOTH",
"61 1126 OFFCURVE",
"108 1094 QCURVE SMOOTH",
"149 1067 OFFCURVE",
"223 1036 QCURVE",
"297 1010 OFFCURVE",
"385 983 QCURVE SMOOTH",
"442 967 OFFCURVE",
"497 948 OFFCURVE",
"510 944 QCURVE",
"385 905 LINE",
"303 885 OFFCURVE",
"221 852 QCURVE SMOOTH",
"149 823 OFFCURVE",
"104 795 QCURVE",
"57 760 OFFCURVE",
"36 719 QCURVE SMOOTH",
"16 684 OFFCURVE",
"16 645 QCURVE SMOOTH",
"16 602 OFFCURVE",
"43 559 QCURVE SMOOTH",
"77 504 OFFCURVE",
"141 492 QCURVE SMOOTH",
"161 487 OFFCURVE",
"172 487 QCURVE SMOOTH",
"221 487 OFFCURVE",
"280 522 QCURVE",
"325 555 OFFCURVE",
"354 584 QCURVE SMOOTH",
"415 645 LINE",
"487 731 LINE",
"544 801 LINE",
"516 711 LINE",
"487 606 LINE SMOOTH",
"477 565 OFFCURVE",
"469 516 QCURVE",
"458 471 OFFCURVE",
"458 422 QCURVE SMOOTH",
"458 336 OFFCURVE",
"505 291 QCURVE SMOOTH",
"555 242 OFFCURVE",
"618 242 QCURVE SMOOTH"
);
}
);
width = 1243;
}
);
note = asterisk;
unicode = 002A;
},
{
glyphname = plus;
layers = (
{
layerId = "B1070C97-2DE4-4FC8-9990-FF316D9539D4";
paths = (
{
closed = 1;
nodes = (
"562 516 LINE",
"827 516 LINE",
"827 762 LINE",
"562 762 LINE",
"562 1051 LINE",
"306 1051 LINE",
"306 762 LINE",
"36 762 LINE",
"36 516 LINE",
"306 516 LINE",
"306 238 LINE",
"562 238 LINE"
);
}
);
width = 864;
}
);
note = plus;
unicode = 002B;
},
{
glyphname = comma;
layers = (
{
layerId = "B1070C97-2DE4-4FC8-9990-FF316D9539D4";
paths = (
{
closed = 1;
nodes = (
"310 -449 OFFCURVE",
"442 -319 QCURVE SMOOTH",
"571 -190 OFFCURVE",
"571 88 QCURVE SMOOTH",
"571 203 OFFCURVE",
"548 365 QCURVE",
"38 365 LINE",
"38 0 LINE",
"226 0 LINE",
"226 -51 OFFCURVE",
"224 -66 QCURVE",
"224 -88 OFFCURVE",
"218 -119 QCURVE SMOOTH",
"212 -147 OFFCURVE",
"200 -166 QCURVE",
"186 -182 OFFCURVE",
"167 -197 QCURVE SMOOTH",
"149 -211 OFFCURVE",
"114 -217 QCURVE SMOOTH",
"81 -223 OFFCURVE",
"36 -223 QCURVE",
"36 -449 LINE"
);
}
);
width = 595;
}
);
note = comma;
unicode = 002C;
},
{
glyphname = hyphen;
layers = (
{
layerId = "B1070C97-2DE4-4FC8-9990-FF316D9539D4";
paths = (
{
closed = 1;
nodes = (
"722 836 LINE",
"36 836 LINE",
"36 537 LINE",
"722 537 LINE"
);
}
);
width = 759;
}
);
note = hyphen;
unicode = 002D;
},
{
glyphname = period;
layers = (
{
layerId = "B1070C97-2DE4-4FC8-9990-FF316D9539D4";
paths = (
{
closed = 1;
nodes = (
"305 -27 LINE",
"427 -27 OFFCURVE",
"509 41 QCURVE SMOOTH",
"591 111 OFFCURVE",
"591 223 QCURVE SMOOTH",
"591 334 OFFCURVE",
"511 401 QCURVE SMOOTH",
"432 469 OFFCURVE",
"302 469 QCURVE SMOOTH",
"182 469 OFFCURVE",
"104 401 QCURVE SMOOTH",
"26 338 OFFCURVE",
"26 223 QCURVE SMOOTH",
"26 106 OFFCURVE",
"104 41 QCURVE SMOOTH",
"186 -29 OFFCURVE",
"302 -29 QCURVE"
);
}
);
width = 616;
}
);
note = period;
unicode = 002E;
},
{
glyphname = slash;
layers = (
{
layerId = "B1070C97-2DE4-4FC8-9990-FF316D9539D4";
paths = (
{
closed = 1;
nodes = (
"860 1622 LINE",
"356 1622 LINE",
"16 0 LINE",
"518 0 LINE"
);
}
);
width = 876;
}
);
note = slash;
unicode = 002F;
},
{
glyphname = zero;
layers = (
{
layerId = "B1070C97-2DE4-4FC8-9990-FF316D9539D4";
paths = (
{
closed = 1;
nodes = (
"884 -27 OFFCURVE",
"1161 145 OFFCURVE",
"1308 469 OFFCURVE",
"1308 694 QCURVE SMOOTH",
"1308 1016 OFFCURVE",
"982 1374 OFFCURVE",
"689 1374 QCURVE SMOOTH",
"397 1374 OFFCURVE",
"71 1016 OFFCURVE",
"71 694 QCURVE SMOOTH",
"71 354 OFFCURVE",
"399 -27 OFFCURVE",
"692 -27 QCURVE SMOOTH"
);
},
{
closed = 1;
nodes = (
"819 543 OFFCURVE",
"794 408 OFFCURVE",
"739 348 OFFCURVE",
"687 348 QCURVE SMOOTH",
"638 348 OFFCURVE",
"581 408 OFFCURVE",
"556 545 OFFCURVE",
"556 668 QCURVE SMOOTH",
"556 795 OFFCURVE",
"581 934 OFFCURVE",
"640 995 OFFCURVE",
"692 995 QCURVE SMOOTH",
"741 995 OFFCURVE",
"796 934 OFFCURVE",
"819 793 OFFCURVE",
"819 666 QCURVE SMOOTH"
);
}
);
width = 1382;
}
);
note = zero;
unicode = 0030;
},
{
glyphname = one;
layers = (
{
layerId = "B1070C97-2DE4-4FC8-9990-FF316D9539D4";
paths = (
{
closed = 1;
nodes = (
"833 324 LINE",
"737 324 LINE",
"731 1374 LINE",
"69 1208 LINE",
"69 950 LINE",
"233 950 LINE",
"233 324 LINE",
"143 326 LINE",
"143 0 LINE",
"833 0 LINE"
);
}
);
width = 903;
}
);
note = one;
unicode = 0031;
},
{
glyphname = two;
layers = (
{
layerId = "B1070C97-2DE4-4FC8-9990-FF316D9539D4";
paths = (
{
closed = 1;
nodes = (
"1257 0 LINE",
"1251 465 LINE",
"1079 465 LINE",
"1079 377 OFFCURVE",
"962 319 OFFCURVE",
"864 317 QCURVE SMOOTH",
"702 317 LINE",
"741 344 LINE SMOOTH",
"853 426 OFFCURVE",
"1027 578 OFFCURVE",
"1169 799 OFFCURVE",
"1169 922 QCURVE SMOOTH",
"1169 1053 OFFCURVE",
"1032 1260 OFFCURVE",
"788 1374 OFFCURVE",
"632 1374 QCURVE SMOOTH",
"468 1374 OFFCURVE",
"212 1264 OFFCURVE",
"142 1167 QCURVE SMOOTH",
"73 1072 OFFCURVE",
"73 951 QCURVE SMOOTH",
"73 927 LINE SMOOTH",
"73 837 OFFCURVE",
"111 745 QCURVE SMOOTH",
"153 643 OFFCURVE",
"223 582 QCURVE",
"448 756 LINE",
"423 780 OFFCURVE",
"386 852 OFFCURVE",
"386 887 QCURVE SMOOTH",
"386 948 OFFCURVE",
"456 1028 OFFCURVE",
"520 1028 QCURVE SMOOTH",
"577 1028 OFFCURVE",
"659 928 OFFCURVE",
"659 856 QCURVE SMOOTH",
"659 745 OFFCURVE",
"556 588 OFFCURVE",
"436 485 QCURVE SMOOTH",
"302 375 OFFCURVE",
"114 303 QCURVE",
"114 0 LINE"
);
}
);
width = 1329;
}
);
note = two;
unicode = 0032;
},
{
glyphname = three;
layers = (
{
layerId = "B1070C97-2DE4-4FC8-9990-FF316D9539D4";
paths = (
{
closed = 1;
nodes = (
"862 -18 OFFCURVE",
"1223 227 OFFCURVE",
"1223 473 QCURVE SMOOTH",
"1223 565 OFFCURVE",
"1128 733 OFFCURVE",
"969 844 OFFCURVE",
"872 852 QCURVE",
"1155 1087 LINE",
"1155 1352 LINE",
"86 1352 LINE",
"86 899 LINE",
"281 897 LINE",
"295 954 OFFCURVE",
"319 1010 OFFCURVE",
"369 1040 OFFCURVE",
"418 1040 QCURVE SMOOTH",
"639 1040 LINE",
"639 1030 LINE",
"297 739 LINE",
"297 571 LINE",
"317 571 LINE",
"328 573 OFFCURVE",
"410 592 OFFCURVE",
"444 592 QCURVE SMOOTH",
"545 592 OFFCURVE",
"690 514 OFFCURVE",
"690 426 QCURVE SMOOTH",
"690 350 OFFCURVE",
"557 279 OFFCURVE",
"469 279 QCURVE SMOOTH",
"281 279 OFFCURVE",
"98 424 QCURVE",
"98 78 LINE",
"184 18 OFFCURVE",
"410 -18 OFFCURVE",
"573 -18 QCURVE SMOOTH"
);
}
);
width = 1296;
}
);
note = three;
unicode = 0033;
},
{
glyphname = four;
layers = (
{
layerId = "B1070C97-2DE4-4FC8-9990-FF316D9539D4";
paths = (
{
closed = 1;
nodes = (
"1175 289 LINE",
"1054 289 LINE",
"1054 420 LINE",
"1282 420 LINE",
"1282 678 LINE",
"1054 676 LINE",
"1054 1341 LINE",
"616 1341 LINE",
"65 688 LINE",
"65 420 LINE",
"597 420 LINE",
"597 289 LINE",
"471 289 LINE",
"471 0 LINE",
"1175 0 LINE"
);
},
{
closed = 1;
nodes = (
"597 911 LINE",
"597 678 LINE",
"409 678 LINE"
);
}
);
width = 1339;
}
);
note = four;
unicode = 0034;
},
{
glyphname = five;
layers = (
{
layerId = "B1070C97-2DE4-4FC8-9990-FF316D9539D4";
paths = (
{
closed = 1;
nodes = (
"645 -20 OFFCURVE",
"928 102 OFFCURVE",
"1083 344 OFFCURVE",
"1083 512 QCURVE SMOOTH",
"1083 635 OFFCURVE",
"954 829 OFFCURVE",
"737 938 OFFCURVE",
"608 938 QCURVE SMOOTH",
"495 938 OFFCURVE",
"397 922 QCURVE",
"397 1061 LINE",
"1007 1061 LINE",
"1007 1358 LINE",
"92 1358 LINE",
"92 563 LINE",
"104 553 LINE",
"201 616 OFFCURVE",
"311 616 QCURVE SMOOTH",
"403 616 OFFCURVE",
"534 524 OFFCURVE",
"534 444 QCURVE SMOOTH",
"534 365 OFFCURVE",
"399 281 OFFCURVE",
"315 281 QCURVE SMOOTH",
"209 281 OFFCURVE",
"94 346 QCURVE",
"94 76 LINE",
"92 74 LINE",
"141 27 OFFCURVE",
"358 -20 OFFCURVE",
"459 -20 QCURVE SMOOTH"
);
}
);
width = 1157;
}
);
note = five;
unicode = 0035;
},
{
glyphname = six;
layers = (
{
layerId = "B1070C97-2DE4-4FC8-9990-FF316D9539D4";
paths = (
{
closed = 1;
nodes = (
"882 -18 OFFCURVE",
"1165 143 OFFCURVE",
"1316 401 OFFCURVE",
"1316 543 QCURVE SMOOTH",
"1316 668 OFFCURVE",
"1216 881 OFFCURVE",
"1003 1016 OFFCURVE",
"843 1024 QCURVE",
"911 1116 OFFCURVE",
"1140 1346 QCURVE",
"597 1346 LINE",
"403 1151 OFFCURVE",
"206 928 OFFCURVE",
"69 670 OFFCURVE",
"69 535 QCURVE SMOOTH",
"69 360 OFFCURVE",
"245 111 OFFCURVE",
"532 -18 OFFCURVE",
"696 -18 QCURVE SMOOTH"
);
},
{
closed = 1;
nodes = (
"581 330 OFFCURVE",
"581 551 QCURVE SMOOTH",
"581 776 OFFCURVE",
"694 776 QCURVE SMOOTH",
"802 776 OFFCURVE",
"802 547 QCURVE SMOOTH",
"802 436 OFFCURVE",
"749 330 OFFCURVE",
"694 330 QCURVE SMOOTH"
);
}
);
width = 1384;
}
);
note = six;
unicode = 0036;
},
{
glyphname = seven;
layers = (
{
layerId = "B1070C97-2DE4-4FC8-9990-FF316D9539D4";
paths = (
{
closed = 1;
nodes = (
"687 0 LINE",
"1214 1067 LINE",
"1214 1337 LINE",
"71 1337 LINE",
"71 879 LINE",
"288 877 LINE",
"288 954 OFFCURVE",
"343 1020 OFFCURVE",
"419 1020 QCURVE SMOOTH",
"661 1020 LINE",
"155 0 LINE"
);
}
);
width = 1282;
}
);
note = seven;
unicode = 0037;
},
{
glyphname = eight;
layers = (
{
layerId = "B1070C97-2DE4-4FC8-9990-FF316D9539D4";
paths = (
{
closed = 1;
nodes = (
"935 -18 OFFCURVE",
"1273 172 OFFCURVE",
"1273 375 QCURVE SMOOTH",
"1273 631 OFFCURVE",
"1013 729 QCURVE",
"1101 762 OFFCURVE",
"1195 911 OFFCURVE",
"1195 1010 QCURVE SMOOTH",
"1195 1190 OFFCURVE",
"902 1374 OFFCURVE",
"677 1374 QCURVE SMOOTH",
"440 1374 OFFCURVE",
"151 1186 OFFCURVE",
"151 1008 QCURVE SMOOTH",
"151 909 OFFCURVE",
"245 760 OFFCURVE",
"333 727 QCURVE",
"73 629 OFFCURVE",
"73 373 QCURVE",
"75 375 LINE",
"75 176 OFFCURVE",
"409 -18 OFFCURVE",
"675 -18 QCURVE SMOOTH"
);
},
{
closed = 1;
nodes = (
"634 823 OFFCURVE",
"597 893 OFFCURVE",
"597 975 QCURVE SMOOTH",
"597 1053 OFFCURVE",
"634 1120 OFFCURVE",
"677 1120 QCURVE SMOOTH",
"718 1120 OFFCURVE",
"757 1053 OFFCURVE",
"757 975 QCURVE SMOOTH",
"757 893 OFFCURVE",
"720 823 OFFCURVE",
"679 823 QCURVE SMOOTH"
);
},
{
closed = 1;
nodes = (
"630 238 OFFCURVE",
"593 313 OFFCURVE",
"593 403 QCURVE SMOOTH",
"593 496 OFFCURVE",
"630 575 OFFCURVE",
"675 575 QCURVE SMOOTH",
"716 575 OFFCURVE",
"753 496 OFFCURVE",
"753 403 QCURVE SMOOTH",
"753 315 OFFCURVE",
"714 238 OFFCURVE",
"673 238 QCURVE SMOOTH"
);
}
);
width = 1345;
}
);
note = eight;
unicode = 0038;
},
{
glyphname = nine;
layers = (
{
layerId = "B1070C97-2DE4-4FC8-9990-FF316D9539D4";
paths = (
{
closed = 1;
nodes = (
"966 184 OFFCURVE",
"1185 440 OFFCURVE",
"1312 688 OFFCURVE",
"1312 811 QCURVE SMOOTH",
"1312 983 OFFCURVE",
"1140 1235 OFFCURVE",
"862 1366 OFFCURVE",
"702 1366 QCURVE SMOOTH",
"520 1366 OFFCURVE",
"229 1219 OFFCURVE",
"61 952 OFFCURVE",
"61 780 QCURVE SMOOTH",
"61 649 OFFCURVE",
"188 440 OFFCURVE",
"409 322 OFFCURVE",
"546 322 QCURVE",
"483 240 OFFCURVE",
"241 0 QCURVE",
"780 -2 LINE"
);
},
{
closed = 1;
nodes = (
"630 571 OFFCURVE",
"583 674 OFFCURVE",
"583 791 QCURVE SMOOTH",
"583 907 OFFCURVE",
"630 1010 OFFCURVE",
"686 1010 QCURVE SMOOTH",
"743 1010 OFFCURVE",
"790 907 OFFCURVE",
"790 791 QCURVE SMOOTH",
"790 674 OFFCURVE",
"743 571 OFFCURVE",
"686 571 QCURVE SMOOTH"
);
}
);
width = 1374;
}
);
note = nine;
unicode = 0039;
},
{
glyphname = colon;
layers = (
{
layerId = "B1070C97-2DE4-4FC8-9990-FF316D9539D4";
paths = (
{
closed = 1;
nodes = (
"311 596 LINE SMOOTH",
"433 596 OFFCURVE",
"515 664 QCURVE SMOOTH",
"597 731 OFFCURVE",
"597 846 QCURVE SMOOTH",
"597 961 OFFCURVE",
"517 1024 QCURVE SMOOTH",
"438 1092 OFFCURVE",
"311 1092 QCURVE SMOOTH",
"190 1092 OFFCURVE",
"110 1024 QCURVE SMOOTH",
"32 958 OFFCURVE",
"32 846 QCURVE SMOOTH",
"32 731 OFFCURVE",
"112 664 QCURVE SMOOTH",
"192 596 OFFCURVE",
"309 596 QCURVE SMOOTH"
);
},
{
closed = 1;
nodes = (
"309 -18 LINE",
"433 -18 OFFCURVE",
"513 47 QCURVE SMOOTH",
"595 115 OFFCURVE",
"595 231 QCURVE SMOOTH",
"595 346 OFFCURVE",
"515 410 QCURVE SMOOTH",
"438 475 OFFCURVE",
"309 475 QCURVE SMOOTH",
"186 475 OFFCURVE",
"108 410 QCURVE SMOOTH",
"30 344 OFFCURVE",
"30 231 QCURVE SMOOTH",
"30 115 OFFCURVE",
"110 47 QCURVE SMOOTH",
"190 -20 OFFCURVE",
"306 -20 QCURVE"
);
}
);
width = 628;
}
);
note = colon;
unicode = 003A;
},
{
glyphname = semicolon;
layers = (
{
layerId = "B1070C97-2DE4-4FC8-9990-FF316D9539D4";
paths = (
{
closed = 1;
nodes = (
"311 594 LINE",
"435 594 OFFCURVE",
"515 659 QCURVE SMOOTH",
"597 727 OFFCURVE",
"597 844 QCURVE SMOOTH",
"597 958 OFFCURVE",
"517 1022 QCURVE SMOOTH",
"440 1087 OFFCURVE",
"311 1087 QCURVE SMOOTH",
"188 1087 OFFCURVE",
"110 1022 QCURVE SMOOTH",
"32 956 OFFCURVE",
"32 844 QCURVE SMOOTH",
"32 727 OFFCURVE",
"112 659 QCURVE SMOOTH",
"192 592 OFFCURVE",
"308 592 QCURVE"
);
},
{
closed = 1;
nodes = (
"319 -451 OFFCURVE",
"450 -322 QCURVE SMOOTH",
"579 -193 OFFCURVE",
"579 86 QCURVE SMOOTH",
"579 209 OFFCURVE",
"554 362 QCURVE",
"44 362 LINE",
"44 -2 LINE",
"235 -2 LINE",
"235 -51 OFFCURVE",
"233 -68 QCURVE",
"233 -88 OFFCURVE",
"227 -119 QCURVE SMOOTH",
"220 -147 OFFCURVE",
"208 -166 QCURVE",
"194 -182 OFFCURVE",
"175 -197 QCURVE SMOOTH",
"157 -211 OFFCURVE",
"122 -217 QCURVE SMOOTH",
"87 -223 OFFCURVE",
"42 -223 QCURVE",
"42 -449 LINE",
"44 -451 LINE"
);
}
);
width = 626;
}
);
note = semicolon;
unicode = 003B;
},
{
glyphname = less;
layers = (
{
layerId = "B1070C97-2DE4-4FC8-9990-FF316D9539D4";
paths = (
{
closed = 1;
nodes = (
"417 762 LINE",
"751 1077 LINE",
"751 1542 LINE",
"36 946 LINE",
"36 575 LINE",
"751 -20 LINE",
"751 444 LINE"
);
}
);
width = 786;
}
);
note = less;
unicode = 003C;
},
{
glyphname = equal;
layers = (
{
layerId = "B1070C97-2DE4-4FC8-9990-FF316D9539D4";
paths = (
{
closed = 1;
nodes = (
"681 922 LINE",
"36 922 LINE",
"36 698 LINE",
"681 698 LINE"
);
},
{
closed = 1;
nodes = (
"681 553 LINE",
"36 553 LINE",
"36 330 LINE",
"681 330 LINE"
);
}
);
width = 718;
}
);
note = equal;
unicode = 003D;
},
{
glyphname = greater;
layers = (
{
layerId = "B1070C97-2DE4-4FC8-9990-FF316D9539D4";
paths = (
{
closed = 1;
nodes = (
"751 946 LINE",
"36 1542 LINE",
"36 1077 LINE",
"368 762 LINE",
"36 444 LINE",
"36 -20 LINE",
"751 575 LINE"
);
}
);
width = 786;
}
);
note = greater;
unicode = 003E;
},
{
glyphname = question;
layers = (
{
layerId = "B1070C97-2DE4-4FC8-9990-FF316D9539D4";
paths = (
{
closed = 1;
nodes = (
"673 539 LINE",
"673 725 LINE",
"722 741 OFFCURVE",
"782 766 QCURVE",
"825 780 OFFCURVE",
"890 813 QCURVE SMOOTH",
"935 836 OFFCURVE",
"997 872 QCURVE",
"1052 913 OFFCURVE",
"1089 946 QCURVE SMOOTH",
"1138 989 OFFCURVE",
"1167 1036 QCURVE SMOOTH",
"1197 1081 OFFCURVE",
"1216 1145 QCURVE SMOOTH",
"1236 1204 OFFCURVE",
"1236 1274 QCURVE SMOOTH",
"1236 1405 OFFCURVE",
"1156 1511 QCURVE SMOOTH",
"1081 1616 OFFCURVE",
"941 1677 QCURVE SMOOTH",
"800 1737 OFFCURVE",
"634 1737 QCURVE SMOOTH",
"378 1737 OFFCURVE",
"208 1591 QCURVE SMOOTH",
"38 1442 OFFCURVE",
"26 1219 QCURVE",
"497 1219 LINE",
"509 1380 OFFCURVE",
"628 1380 QCURVE SMOOTH",
"659 1380 OFFCURVE",
"679 1366 QCURVE SMOOTH",
"700 1350 OFFCURVE",
"708 1327 QCURVE SMOOTH",
"718 1303 OFFCURVE",
"720 1284 QCURVE SMOOTH",
"724 1264 OFFCURVE",
"724 1249 QCURVE SMOOTH",
"724 1071 OFFCURVE",
"327 893 QCURVE",
"327 539 LINE"
);
},
{
closed = 1;
nodes = (
"507 -25 LINE",
"628 -25 OFFCURVE",
"710 43 QCURVE SMOOTH",
"792 106 OFFCURVE",
"792 225 QCURVE SMOOTH",
"792 340 OFFCURVE",
"712 403 QCURVE SMOOTH",
"634 469 OFFCURVE",
"505 469 QCURVE SMOOTH",
"382 469 OFFCURVE",
"305 403 QCURVE SMOOTH",
"227 338 OFFCURVE",
"227 225 QCURVE SMOOTH",
"227 109 OFFCURVE",
"307 43 QCURVE SMOOTH",
"388 -27 OFFCURVE",
"505 -27 QCURVE"
);
}
);
width = 1259;
}
);
note = question;
unicode = 003F;
},
{
glyphname = at;
layers = (
{
layerId = "B1070C97-2DE4-4FC8-9990-FF316D9539D4";
paths = (
{
closed = 1;
nodes = (
"1085 -201 OFFCURVE",
"1199 -172 QCURVE",
"1148 55 LINE",
"1074 35 OFFCURVE",
"984 35 QCURVE SMOOTH",
"823 35 OFFCURVE",
"706 76 QCURVE SMOOTH",
"579 121 OFFCURVE",
"505 190 QCURVE SMOOTH",
"429 256 OFFCURVE",
"384 358 QCURVE SMOOTH",
"343 457 OFFCURVE",
"343 565 QCURVE SMOOTH",
"343 817 OFFCURVE",
"497 967 QCURVE SMOOTH",
"651 1114 OFFCURVE",
"935 1114 QCURVE SMOOTH",
"1216 1114 OFFCURVE",
"1361 995 QCURVE SMOOTH",
"1505 877 OFFCURVE",
"1505 676 QCURVE SMOOTH",
"1505 592 OFFCURVE",
"1494 549 QCURVE",
"1486 496 OFFCURVE",
"1470 467 QCURVE SMOOTH",
"1455 438 OFFCURVE",
"1433 422 QCURVE SMOOTH",
"1410 406 OFFCURVE",
"1390 399 QCURVE",
"1365 395 OFFCURVE",
"1347 395 QCURVE",
"1343 397 LINE",
"1341 602 LINE SMOOTH",
"1341 678 OFFCURVE",
"1322 735 QCURVE",
"1306 797 OFFCURVE",
"1279 829 QCURVE",
"1259 862 OFFCURVE",
"1216 893 QCURVE SMOOTH",
"1189 911 OFFCURVE",
"1144 934 QCURVE",
"1120 944 OFFCURVE",
"1066 954 QCURVE SMOOTH",
"1009 963 OFFCURVE",
"1001 963 QCURVE SMOOTH",
"984 965 OFFCURVE",
"950 965 QCURVE SMOOTH",
"837 965 OFFCURVE",
"755 934 QCURVE SMOOTH",
"669 903 OFFCURVE",
"622 850 QCURVE SMOOTH",
"573 791 OFFCURVE",
"550 729 QCURVE SMOOTH",
"526 666 OFFCURVE",
"526 588 QCURVE SMOOTH",
"526 412 OFFCURVE",
"610 299 QCURVE SMOOTH",
"696 188 OFFCURVE",
"812 188 QCURVE SMOOTH",
"866 188 OFFCURVE",
"929 215 QCURVE SMOOTH",
"991 244 OFFCURVE",
"1023 293 QCURVE",
"1062 203 LINE",
"1212 203 LINE SMOOTH",
"1371 203 OFFCURVE",
"1476 238 QCURVE SMOOTH",
"1589 270 OFFCURVE",
"1656 336 QCURVE SMOOTH",
"1724 399 OFFCURVE",
"1756 485 QCURVE SMOOTH",
"1789 565 OFFCURVE",
"1789 674 QCURVE SMOOTH",
"1789 815 OFFCURVE",
"1730 944 QCURVE SMOOTH",
"1672 1069 OFFCURVE",
"1564 1165 QCURVE SMOOTH",
"1457 1260 OFFCURVE",
"1294 1315 QCURVE SMOOTH",
"1128 1368 OFFCURVE",
"933 1368 QCURVE SMOOTH",
"720 1368 OFFCURVE",
"550 1305 QCURVE SMOOTH",
"382 1243 OFFCURVE",
"263 1130 QCURVE SMOOTH",
"149 1016 OFFCURVE",
"89 874 QCURVE SMOOTH",
"30 735 OFFCURVE",
"30 563 QCURVE SMOOTH",
"30 401 OFFCURVE",
"93 266 QCURVE SMOOTH",
"157 131 OFFCURVE",
"276 25 QCURVE SMOOTH",
"395 -80 OFFCURVE",
"577 -141 QCURVE SMOOTH",
"765 -201 OFFCURVE",
"984 -201 QCURVE SMOOTH"
);
},
{
closed = 1;
nodes = (
"909 371 OFFCURVE",
"890 426 QCURVE SMOOTH",
"870 492 OFFCURVE",
"870 578 QCURVE",
"872 580 LINE",
"872 641 OFFCURVE",
"874 666 QCURVE SMOOTH",
"878 702 OFFCURVE",
"886 739 QCURVE SMOOTH",
"892 770 OFFCURVE",
"909 795 QCURVE",
"927 813 OFFCURVE",
"952 813 QCURVE SMOOTH",
"993 813 OFFCURVE",
"1011 780 QCURVE SMOOTH",
"1027 748 OFFCURVE",
"1027 668 QCURVE SMOOTH",
"1027 406 LINE",
"999 371 OFFCURVE",
"943 371 QCURVE SMOOTH"
);
}
);
width = 1816;
}
);
note = at;
unicode = 0040;
},
{
glyphname = A;
layers = (
{
layerId = "B1070C97-2DE4-4FC8-9990-FF316D9539D4";
paths = (
{
closed = 1;
nodes = (
"734 352 LINE",
"544 352 LINE",
"589 522 LINE",
"950 522 LINE",
"993 352 LINE",
"863 352 LINE",
"863 0 LINE",
"1758 0 LINE",
"1758 352 LINE",
"1601 352 LINE",
"1246 1591 LINE",
"255 1591 LINE",
"255 1239 LINE",
"464 1239 LINE",
"190 352 LINE",
"32 352 LINE",
"32 0 LINE",
"734 0 LINE"
);
},
{
closed = 1;
nodes = (
"902 764 LINE",
"640 764 LINE",
"786 1251 LINE"
);
}
);
width = 1759;
}
);
note = A;
unicode = 0041;
},
{
glyphname = B;
layers = (
{
layerId = "B1070C97-2DE4-4FC8-9990-FF316D9539D4";
paths = (
{
closed = 1;
nodes = (
"960 0 LINE SMOOTH",
"1251 0 OFFCURVE",
"1568 221 OFFCURVE",
"1568 424 QCURVE SMOOTH",
"1568 590 OFFCURVE",
"1435 780 OFFCURVE",
"1296 840 QCURVE",
"1402 879 OFFCURVE",
"1540 1055 OFFCURVE",
"1540 1174 QCURVE SMOOTH",
"1540 1343 OFFCURVE",
"1378 1528 OFFCURVE",
"1103 1593 OFFCURVE",
"903 1593 QCURVE SMOOTH",
"90 1593 LINE",
"90 1239 LINE",
"256 1239 LINE",
"256 352 LINE",
"63 352 LINE",
"63 0 LINE"
);
},
{
closed = 1;
nodes = (
"768 1239 LINE",
"909 1239 LINE SMOOTH",
"970 1239 OFFCURVE",
"1046 1163 OFFCURVE",
"1046 1102 QCURVE SMOOTH",
"1046 1014 OFFCURVE",
"937 950 OFFCURVE",
"823 950 QCURVE SMOOTH",
"768 950 LINE"
);
},
{
closed = 1;
nodes = (
"768 688 LINE",
"811 690 OFFCURVE",
"856 690 QCURVE SMOOTH",
"1056 690 OFFCURVE",
"1056 526 QCURVE SMOOTH",
"1056 420 OFFCURVE",
"925 352 OFFCURVE",
"804 352 QCURVE SMOOTH",
"768 352 LINE"
);
}
);
width = 1683;
}
);
note = B;
unicode = 0042;
},
{
glyphname = C;
layers = (
{
layerId = "B1070C97-2DE4-4FC8-9990-FF316D9539D4";
paths = (
{
closed = 1;
nodes = (
"1030 -29 OFFCURVE",
"1312 29 OFFCURVE",
"1439 102 QCURVE",
"1439 528 LINE",
"1417 547 LINE",
"1349 500 OFFCURVE",
"1138 418 OFFCURVE",
"1015 418 QCURVE SMOOTH",
"841 418 OFFCURVE",
"641 645 OFFCURVE",
"641 846 QCURVE SMOOTH",
"641 948 OFFCURVE",
"714 1141 OFFCURVE",
"843 1260 OFFCURVE",
"921 1260 QCURVE SMOOTH",
"1036 1260 OFFCURVE",
"1153 1098 OFFCURVE",
"1153 971 QCURVE SMOOTH",
"1153 938 LINE",
"1472 938 LINE",
"1472 1591 LINE",
"1161 1591 LINE",
"1120 1430 LINE",
"1079 1513 OFFCURVE",
"894 1622 OFFCURVE",
"778 1622 QCURVE SMOOTH",
"550 1622 OFFCURVE",
"229 1405 OFFCURVE",
"63 1034 OFFCURVE",
"63 805 QCURVE SMOOTH",
"63 532 OFFCURVE",
"282 158 OFFCURVE",
"649 -29 OFFCURVE",
"870 -29 QCURVE SMOOTH"
);
}
);
width = 1546;
}
);
note = C;
unicode = 0043;
},
{
glyphname = D;
layers = (
{
layerId = "B1070C97-2DE4-4FC8-9990-FF316D9539D4";
paths = (
{
closed = 1;
nodes = (
"798 0 LINE SMOOTH",
"1237 0 OFFCURVE",
"1695 414 OFFCURVE",
"1695 797 QCURVE SMOOTH",
"1695 1190 OFFCURVE",
"1234 1591 OFFCURVE",
"800 1591 QCURVE SMOOTH",
"63 1591 LINE",
"63 1239 LINE",
"223 1239 LINE",
"223 352 LINE",
"63 352 LINE",
"63 0 LINE"
);
},
{
closed = 1;
nodes = (
"735 1239 LINE",
"798 1239 LINE SMOOTH",
"968 1239 OFFCURVE",
"1120 993 OFFCURVE",
"1120 797 QCURVE SMOOTH",
"1120 604 OFFCURVE",
"966 352 OFFCURVE",
"798 352 QCURVE SMOOTH",
"735 352 LINE"
);
}
);
width = 1804;
}
);
note = D;
unicode = 0044;
},
{
glyphname = E;
layers = (
{
layerId = "B1070C97-2DE4-4FC8-9990-FF316D9539D4";
paths = (
{
closed = 1;
nodes = (
"1439 678 LINE",
"1183 678 LINE",
"1087 352 LINE",
"801 352 LINE",
"801 717 LINE",
"1057 717 LINE",
"1057 979 LINE",
"801 979 LINE",
"801 1239 LINE",
"1087 1239 LINE",
"1183 958 LINE",
"1439 958 LINE",
"1439 1591 LINE",
"96 1591 LINE",
"96 1239 LINE",
"289 1239 LINE",
"289 352 LINE",
"96 352 LINE",
"96 0 LINE",
"1439 0 LINE"
);
}
);
width = 1449;
}
);
note = E;
unicode = 0045;
},
{
glyphname = F;
layers = (
{
layerId = "B1070C97-2DE4-4FC8-9990-FF316D9539D4";
paths = (
{
closed = 1;
nodes = (
"991 352 LINE",
"801 352 LINE",
"801 682 LINE",
"1024 682 LINE",
"1024 938 LINE",
"801 938 LINE",
"801 1239 LINE",
"1057 1239 LINE",
"1120 948 LINE",
"1409 948 LINE",
"1409 1591 LINE",
"96 1591 LINE",
"96 1239 LINE",
"289 1239 LINE",
"289 352 LINE",
"96 352 LINE",
"96 0 LINE",
"991 0 LINE"
);
}
);
width = 1433;
}
);
note = F;
unicode = 0046;
},
{
glyphname = G;
layers = (
{
layerId = "B1070C97-2DE4-4FC8-9990-FF316D9539D4";
paths = (
{
closed = 1;
nodes = (
"1126 -29 OFFCURVE",
"1478 57 OFFCURVE",
"1632 139 QCURVE",
"1632 854 LINE",
"991 854 LINE",
"991 557 LINE",
"1183 557 LINE",
"1183 416 LINE",
"1175 414 OFFCURVE",
"1122 395 OFFCURVE",
"1036 379 OFFCURVE",
"993 379 QCURVE SMOOTH",
"825 379 OFFCURVE",
"641 614 OFFCURVE",
"641 821 QCURVE SMOOTH",
"641 1026 OFFCURVE",
"827 1260 OFFCURVE",
"987 1260 QCURVE SMOOTH",
"1083 1260 OFFCURVE",
"1259 1130 OFFCURVE",
"1290 1004 QCURVE",
"1599 1004 LINE",
"1599 1591 LINE",
"1253 1591 LINE",
"1220 1485 LINE",
"1163 1552 OFFCURVE",
"966 1622 OFFCURVE",
"862 1622 QCURVE SMOOTH",
"616 1622 OFFCURVE",
"253 1415 OFFCURVE",
"63 1051 OFFCURVE",
"63 821 QCURVE SMOOTH",
"63 532 OFFCURVE",
"305 152 OFFCURVE",
"708 -29 OFFCURVE",
"952 -29 QCURVE SMOOTH"
);
}
);
width = 1722;
}
);
note = G;
unicode = 0047;
},
{
glyphname = H;
layers = (
{
layerId = "B1070C97-2DE4-4FC8-9990-FF316D9539D4";
paths = (
{
closed = 1;
nodes = (
"872 352 LINE",
"745 352 LINE",
"745 635 LINE",
"1128 635 LINE",
"1128 352 LINE",
"1001 352 LINE",
"1001 0 LINE",
"1799 0 LINE",
"1799 352 LINE",
"1640 352 LINE",
"1640 1239 LINE",
"1799 1239 LINE",
"1799 1591 LINE",
"1001 1593 LINE",
"1001 1239 LINE",
"1128 1239 LINE",
"1128 977 LINE",
"745 977 LINE",
"745 1239 LINE",
"872 1239 LINE",
"872 1593 LINE",
"73 1591 LINE",
"73 1239 LINE",
"233 1239 LINE",
"233 352 LINE",
"73 352 LINE",
"73 0 LINE",
"872 0 LINE"
);
}
);
width = 1873;
}
);
note = H;
unicode = 0048;
},
{
glyphname = I;
layers = (
{
layerId = "B1070C97-2DE4-4FC8-9990-FF316D9539D4";
paths = (
{
closed = 1;
nodes = (
"960 352 LINE",
"801 352 LINE",
"801 1239 LINE",
"960 1239 LINE",
"960 1591 LINE",
"129 1591 LINE",
"129 1239 LINE",
"289 1239 LINE",
"289 352 LINE",
"129 352 LINE",
"129 0 LINE",
"960 0 LINE"
);
}
);
width = 1028;
}
);
note = I;
unicode = 0049;
},
{
glyphname = J;
layers = (
{
layerId = "B1070C97-2DE4-4FC8-9990-FF316D9539D4";
paths = (
{
closed = 1;
nodes = (
"886 -31 OFFCURVE",
"1153 244 OFFCURVE",
"1153 475 QCURVE SMOOTH",
"1153 1239 LINE",
"1312 1239 LINE",
"1312 1593 LINE",
"448 1593 LINE",
"448 1239 LINE",
"641 1239 LINE",
"641 571 LINE SMOOTH",
"641 483 OFFCURVE",
"557 352 OFFCURVE",
"487 352 QCURVE SMOOTH",
"405 352 OFFCURVE",
"352 487 OFFCURVE",
"352 633 QCURVE",
"63 633 LINE",
"63 -12 LINE",
"331 -12 LINE",
"368 98 LINE",
"415 41 OFFCURVE",
"561 -31 OFFCURVE",
"655 -31 QCURVE SMOOTH"
);
}
);
width = 1368;
}
);
note = J;
unicode = 004A;
},
{
glyphname = K;
layers = (
{
layerId = "B1070C97-2DE4-4FC8-9990-FF316D9539D4";
paths = (
{
closed = 1;
nodes = (
"960 0 LINE",
"960 352 LINE",
"801 352 LINE",
"801 631 LINE",
"946 631 LINE SMOOTH",
"991 631 OFFCURVE",
"1057 532 OFFCURVE",
"1057 481 QCURVE SMOOTH",
"1057 307 LINE SMOOTH",
"1057 0 OFFCURVE",
"1393 0 QCURVE SMOOTH",
"1759 0 LINE",
"1759 352 LINE",
"1645 352 LINE SMOOTH",
"1614 352 OFFCURVE",
"1579 399 OFFCURVE",
"1579 430 QCURVE SMOOTH",
"1579 592 LINE SMOOTH",
"1579 729 OFFCURVE",
"1395 840 OFFCURVE",
"1233 840 QCURVE",
"1233 854 LINE",
"1550 1239 LINE",
"1688 1239 LINE",
"1688 1591 LINE",
"1065 1591 LINE",
"1065 1239 LINE",
"801 877 LINE",
"801 1239 LINE",
"928 1239 LINE",
"928 1591 LINE",
"129 1591 LINE",
"129 1239 LINE",
"289 1239 LINE",
"289 352 LINE",
"129 352 LINE",
"129 0 LINE"
);
}
);
width = 1814;
}
);
note = K;
unicode = 004B;
},
{
glyphname = L;
layers = (
{
layerId = "B1070C97-2DE4-4FC8-9990-FF316D9539D4";
paths = (
{
closed = 1;
nodes = (
"1407 709 LINE",
"1153 709 LINE",
"1057 358 LINE",
"801 358 LINE",
"801 1239 LINE",
"960 1239 LINE",
"960 1591 LINE",
"129 1591 LINE",
"129 1239 LINE",
"289 1239 LINE",
"289 358 LINE",
"129 358 LINE",
"129 0 LINE",
"1407 0 LINE"
);
}
);
width = 1435;
}
);
note = L;
unicode = 004C;
},
{
glyphname = M;
layers = (
{
layerId = "B1070C97-2DE4-4FC8-9990-FF316D9539D4";
paths = (
{
closed = 1;
nodes = (
"735 352 LINE",
"575 352 LINE",
"575 969 LINE",
"991 0 LINE",
"1280 0 LINE",
"1632 946 LINE",
"1632 352 LINE",
"1503 352 LINE",
"1503 0 LINE",
"2336 0 LINE",
"2336 352 LINE",
"2144 352 LINE",
"2144 1239 LINE",
"2336 1239 LINE",
"2336 1591 LINE",
"1536 1591 LINE",
"1230 825 LINE",
"921 1591 LINE",
"63 1591 LINE",
"63 1239 LINE",
"256 1239 LINE",
"256 352 LINE",
"63 352 LINE",
"63 0 LINE",
"735 0 LINE"
);
}
);
width = 2371;
}
);
note = M;
unicode = 004D;
},
{
glyphname = N;
layers = (
{
layerId = "B1070C97-2DE4-4FC8-9990-FF316D9539D4";
paths = (
{
closed = 1;
nodes = (
"718 358 LINE",
"558 358 LINE",
"558 879 LINE",
"1031 0 LINE",
"1637 0 LINE",
"1637 1239 LINE",
"1795 1239 LINE",
"1795 1591 LINE",
"1158 1591 LINE",
"1158 1239 LINE",
"1318 1239 LINE",
"1318 647 LINE",
"820 1593 LINE",
"85 1593 LINE",
"85 1241 LINE",
"243 1241 LINE",
"243 358 LINE",
"81 358 LINE",
"81 0 LINE",
"718 0 LINE"
);
}
);
width = 1851;
}
);
note = N;
unicode = 004E;
},
{
glyphname = O;
layers = (
{
layerId = "B1070C97-2DE4-4FC8-9990-FF316D9539D4";
paths = (
{
closed = 1;
nodes = (
"1114 -29 OFFCURVE",
"1476 184 OFFCURVE",
"1665 559 OFFCURVE",
"1665 799 QCURVE SMOOTH",
"1665 1047 OFFCURVE",
"1476 1419 OFFCURVE",
"1116 1622 OFFCURVE",
"864 1622 QCURVE SMOOTH",
"612 1622 OFFCURVE",
"251 1419 OFFCURVE",
"63 1047 OFFCURVE",
"63 799 QCURVE SMOOTH",
"63 559 OFFCURVE",
"251 184 OFFCURVE",
"614 -29 OFFCURVE",
"864 -29 QCURVE SMOOTH"
);
},
{
closed = 1;
nodes = (
"755 326 OFFCURVE",
"641 588 OFFCURVE",
"641 807 QCURVE SMOOTH",
"641 1020 OFFCURVE",
"751 1268 OFFCURVE",
"864 1268 QCURVE SMOOTH",
"976 1268 OFFCURVE",
"1087 1020 OFFCURVE",
"1087 807 QCURVE SMOOTH",
"1087 588 OFFCURVE",
"972 326 OFFCURVE",
"864 326 QCURVE SMOOTH"
);
}
);
width = 1779;
}
);
note = O;
unicode = 004F;
},
{
glyphname = P;
layers = (
{
layerId = "B1070C97-2DE4-4FC8-9990-FF316D9539D4";
paths = (
{
closed = 1;
nodes = (
"941 0 LINE",
"941 358 LINE",
"796 358 LINE",
"796 569 LINE",
"863 559 OFFCURVE",
"945 559 QCURVE SMOOTH",
"1277 559 OFFCURVE",
"1609 827 OFFCURVE",
"1609 1133 QCURVE SMOOTH",
"1609 1395 OFFCURVE",
"1230 1593 OFFCURVE",
"937 1593 QCURVE SMOOTH",
"85 1593 LINE",
"85 1239 LINE",
"237 1239 LINE",
"237 358 LINE",
"81 358 LINE",
"81 0 LINE"
);
},
{
closed = 1;
nodes = (
"798 1239 LINE",
"882 1239 LINE SMOOTH",
"966 1239 OFFCURVE",
"1066 1159 OFFCURVE",
"1066 1085 QCURVE SMOOTH",
"1066 885 OFFCURVE",
"839 885 QCURVE SMOOTH",
"798 885 LINE"
);
}
);
width = 1681;
}
);
note = P;
unicode = 0050;
},
{
glyphname = Q;
layers = (
{
layerId = "B1070C97-2DE4-4FC8-9990-FF316D9539D4";
paths = (
{
closed = 1;
nodes = (
"1007 -29 OFFCURVE",
"1122 0 QCURVE",
"1759 0 LINE",
"1759 360 LINE",
"1597 360 LINE",
"1593 358 LINE",
"1707 553 OFFCURVE",
"1707 799 QCURVE SMOOTH",
"1707 1044 OFFCURVE",
"1507 1417 OFFCURVE",
"1138 1622 OFFCURVE",
"888 1622 QCURVE SMOOTH",
"638 1622 OFFCURVE",
"268 1417 OFFCURVE",
"67 1044 OFFCURVE",
"67 799 QCURVE SMOOTH",
"67 563 OFFCURVE",
"278 186 OFFCURVE",
"651 -29 OFFCURVE",
"888 -29 QCURVE SMOOTH"
);
},
{
closed = 1;
nodes = (
"782 317 OFFCURVE",
"667 606 OFFCURVE",
"667 807 QCURVE SMOOTH",
"667 997 OFFCURVE",
"778 1260 OFFCURVE",
"888 1260 QCURVE SMOOTH",
"997 1260 OFFCURVE",
"1107 997 OFFCURVE",
"1107 807 QCURVE SMOOTH",
"1107 606 OFFCURVE",
"993 317 OFFCURVE",
"888 317 QCURVE SMOOTH"
);
}
);
width = 1835;
}
);
note = Q;
unicode = 0051;
},
{
glyphname = R;
layers = (
{
layerId = "B1070C97-2DE4-4FC8-9990-FF316D9539D4";
paths = (
{
closed = 1;
nodes = (
"960 0 LINE",
"960 352 LINE",
"801 352 LINE",
"801 682 LINE",
"922 682 LINE SMOOTH",
"1028 682 OFFCURVE",
"1108 563 OFFCURVE",
"1108 440 QCURVE SMOOTH",
"1108 225 OFFCURVE",
"1180 41 OFFCURVE",
"1315 0 OFFCURVE",
"1470 0 QCURVE SMOOTH",
"1792 0 LINE",
"1792 358 LINE",
"1569 358 LINE",
"1569 487 LINE SMOOTH",
"1569 614 OFFCURVE",
"1442 784 OFFCURVE",
"1298 807 QCURVE",
"1458 836 OFFCURVE",
"1632 1004 OFFCURVE",
"1632 1159 QCURVE SMOOTH",
"1632 1391 OFFCURVE",
"1399 1591 OFFCURVE",
"1151 1591 QCURVE SMOOTH",
"129 1591 LINE",
"129 1239 LINE",
"289 1239 LINE",
"289 352 LINE",
"129 352 LINE",
"129 0 LINE"
);
},
{
closed = 1;
nodes = (
"801 1239 LINE",
"958 1239 LINE SMOOTH",
"1044 1239 OFFCURVE",
"1153 1157 OFFCURVE",
"1153 1085 QCURVE SMOOTH",
"1153 987 OFFCURVE",
"1047 909 OFFCURVE",
"938 909 QCURVE SMOOTH",
"801 909 LINE"
);
}
);
width = 1779;
}
);
note = R;
unicode = 0052;
},
{
glyphname = S;
layers = (
{
layerId = "B1070C97-2DE4-4FC8-9990-FF316D9539D4";
paths = (
{
closed = 1;
nodes = (
"974 -29 OFFCURVE",
"1205 111 OFFCURVE",
"1330 352 OFFCURVE",
"1330 502 QCURVE SMOOTH",
"1330 678 OFFCURVE",
"1181 901 OFFCURVE",
"933 1022 OFFCURVE",
"755 1063 QCURVE SMOOTH",
"655 1085 OFFCURVE",
"546 1137 OFFCURVE",
"546 1184 QCURVE SMOOTH",
"546 1227 OFFCURVE",
"622 1276 OFFCURVE",
"691 1276 QCURVE SMOOTH",
"782 1276 OFFCURVE",
"886 1206 OFFCURVE",
"929 1116 QCURVE",
"1236 1116 LINE",
"1236 1593 LINE",
"949 1593 LINE",
"898 1499 LINE",
"786 1622 OFFCURVE",
"593 1622 QCURVE SMOOTH",
"435 1622 OFFCURVE",
"202 1499 OFFCURVE",
"77 1278 OFFCURVE",
"77 1133 QCURVE SMOOTH",
"77 944 OFFCURVE",
"229 715 OFFCURVE",
"476 592 OFFCURVE",
"669 539 QCURVE SMOOTH",
"745 518 OFFCURVE",
"829 469 OFFCURVE",
"829 420 QCURVE SMOOTH",
"829 381 OFFCURVE",
"747 334 OFFCURVE",
"689 334 QCURVE SMOOTH",
"595 334 OFFCURVE",
"466 403 OFFCURVE",
"435 487 QCURVE",
"114 487 LINE",
"114 0 LINE",
"437 0 LINE",
"472 92 LINE",
"556 27 OFFCURVE",
"702 -29 OFFCURVE",
"825 -29 QCURVE SMOOTH"
);
}
);
width = 1406;
}
);
note = S;
unicode = 0053;
},
{
glyphname = T;
layers = (
{
layerId = "B1070C97-2DE4-4FC8-9990-FF316D9539D4";
paths = (
{
closed = 1;
nodes = (
"1255 360 LINE",
"1091 360 LINE",
"1091 1239 LINE",
"1237 1239 LINE",
"1280 965 LINE",
"1560 965 LINE",
"1560 1591 LINE",
"63 1591 LINE",
"63 965 LINE",
"344 965 LINE",
"387 1239 LINE",
"528 1239 LINE",
"528 360 LINE",
"364 360 LINE",
"364 0 LINE",
"1255 0 LINE"
);
}
);
width = 1636;
}
);
note = T;
unicode = 0054;
},
{
glyphname = U;
layers = (
{
layerId = "B1070C97-2DE4-4FC8-9990-FF316D9539D4";
paths = (
{
closed = 1;
nodes = (
"1146 -29 OFFCURVE",
"1482 264 OFFCURVE",
"1482 551 QCURVE SMOOTH",
"1482 1239 LINE",
"1635 1239 LINE",
"1635 1591 LINE",
"982 1591 LINE",
"982 1239 LINE",
"1146 1239 LINE",
"1146 537 LINE SMOOTH",
"1146 449 OFFCURVE",
"1046 346 OFFCURVE",
"960 346 QCURVE SMOOTH",
"857 346 OFFCURVE",
"761 471 OFFCURVE",
"761 569 QCURVE SMOOTH",
"761 1239 LINE",
"908 1239 LINE",
"908 1591 LINE",
"40 1591 LINE",
"40 1239 LINE",
"202 1239 LINE",
"202 705 LINE SMOOTH",
"202 344 OFFCURVE",
"515 -29 OFFCURVE",
"871 -29 QCURVE SMOOTH"
);
}
);
width = 1691;
}
);
note = U;
unicode = 0055;
},
{
glyphname = V;
layers = (
{
layerId = "B1070C97-2DE4-4FC8-9990-FF316D9539D4";
paths = (
{
closed = 1;
nodes = (
"1547 1239 LINE",
"1728 1239 LINE",
"1728 1591 LINE",
"1033 1591 LINE",
"1033 1239 LINE",
"1164 1239 LINE",
"988 516 LINE",
"788 1239 LINE",
"902 1239 LINE",
"902 1591 LINE",
"38 1591 LINE",
"38 1239 LINE",
"204 1239 LINE",
"564 0 LINE",
"1150 0 LINE"
);
}
);
width = 1777;
}
);
note = V;
unicode = 0056;
},
{
glyphname = W;
layers = (
{
layerId = "B1070C97-2DE4-4FC8-9990-FF316D9539D4";
paths = (
{
closed = 1;
nodes = (
"1289 707 LINE",
"1482 0 LINE",
"2025 0 LINE",
"2367 1239 LINE",
"2535 1239 LINE",
"2535 1593 LINE",
"1875 1593 LINE",
"1875 1239 LINE",
"2014 1239 LINE",
"1859 702 LINE",
"1607 1593 LINE",
"1197 1593 LINE",
"937 672 LINE",
"777 1239 LINE",
"929 1239 LINE",
"929 1593 LINE",
"38 1593 LINE",
"38 1239 LINE",
"202 1239 LINE",
"550 0 LINE",
"1087 0 LINE"
);
}
);
width = 2584;
}
);
note = W;
unicode = 0057;
},
{
glyphname = X;
layers = (
{
layerId = "B1070C97-2DE4-4FC8-9990-FF316D9539D4";
paths = (
{
closed = 1;
nodes = (
"898 358 LINE",
"675 358 LINE",
"882 614 LINE",
"1124 358 LINE",
"999 358 LINE",
"999 0 LINE",
"1926 0 LINE",
"1926 358 LINE",
"1775 358 LINE",
"1347 809 LINE",
"1679 1239 LINE",
"1877 1239 LINE",
"1877 1593 LINE",
"1130 1593 LINE",
"1130 1239 LINE",
"1273 1239 LINE",
"1126 1044 LINE",
"964 1239 LINE",
"1046 1239 LINE",
"1046 1593 LINE",
"128 1593 LINE",
"128 1239 LINE",
"298 1239 LINE",
"669 842 LINE",
"235 358 LINE",
"77 358 LINE",
"77 0 LINE",
"898 0 LINE"
);
}
);
width = 2002;
}
);
note = X;
unicode = 0058;
},
{
glyphname = Y;
layers = (
{
layerId = "B1070C97-2DE4-4FC8-9990-FF316D9539D4";
paths = (
{
closed = 1;
nodes = (
"1285 358 LINE",
"1128 358 LINE",
"1128 705 LINE",
"1437 1239 LINE",
"1617 1239 LINE",
"1617 1591 LINE",
"980 1591 LINE",
"980 1239 LINE",
"1125 1239 LINE",
"982 973 LINE",
"800 1239 LINE",
"890 1239 LINE",
"890 1591 LINE",
"38 1591 LINE",
"38 1239 LINE",
"151 1239 LINE",
"570 651 LINE",
"570 358 LINE",
"417 358 LINE",
"417 0 LINE",
"1285 0 LINE"
);
}
);
width = 1665;
}
);
note = Y;
unicode = 0059;
},
{
glyphname = Z;
layers = (
{
layerId = "B1070C97-2DE4-4FC8-9990-FF316D9539D4";
paths = (
{
closed = 1;
nodes = (
"1503 694 LINE",
"1223 694 LINE",
"1114 358 LINE",
"807 358 LINE",
"1483 1264 LINE",
"1483 1591 LINE",
"88 1591 LINE",
"88 928 LINE",
"377 928 LINE",
"457 1239 LINE",
"772 1239 LINE",
"94 350 LINE",
"94 0 LINE",
"1503 0 LINE"
);
}
);
width = 1587;
}
);
note = Z;
unicode = 005A;
},
{
glyphname = bracketleft;
layers = (
{
layerId = "B1070C97-2DE4-4FC8-9990-FF316D9539D4";
paths = (
{
closed = 1;
nodes = (
"745 311 LINE",
"552 311 LINE",
"552 1323 LINE",
"749 1323 LINE",
"749 1622 LINE",
"36 1622 LINE",
"36 0 LINE",
"745 0 LINE"
);
}
);
width = 786;
}
);
note = bracketleft;
unicode = 005B;
},
{
glyphname = backslash;
layers = (
{
layerId = "B1070C97-2DE4-4FC8-9990-FF316D9539D4";
paths = (
{
closed = 1;
nodes = (
"589 1622 LINE",
"16 1622 LINE",
"358 0 LINE",
"931 0 LINE"
);
}
);
width = 946;
}
);
note = backslash;
unicode = 005C;
},
{
glyphname = bracketright;
layers = (
{
layerId = "B1070C97-2DE4-4FC8-9990-FF316D9539D4";
paths = (
{
closed = 1;
nodes = (
"749 1622 LINE",
"36 1622 LINE",
"36 1323 LINE",
"233 1323 LINE",
"233 311 LINE",
"40 311 LINE",
"40 0 LINE",
"749 0 LINE"
);
}
);
width = 786;
}
);
note = bracketright;
unicode = 005D;
},
{
glyphname = asciicircum;
layers = (
{
layerId = "B1070C97-2DE4-4FC8-9990-FF316D9539D4";
paths = (
{
closed = 1;
nodes = (
"716 1241 LINE",
"933 909 LINE",
"1398 909 LINE",
"900 1624 LINE",
"532 1624 LINE",
"36 909 LINE",
"501 909 LINE"
);
}
);
width = 1437;
}
);
note = asciicircum;
unicode = 005E;
},
{
glyphname = underscore;
layers = (
{
layerId = "B1070C97-2DE4-4FC8-9990-FF316D9539D4";
paths = (
{
closed = 1;
nodes = (
"1261 0 LINE",
"69 0 LINE",
"69 -223 LINE",
"1261 -223 LINE"
);
}
);
width = 1327;
}
);
note = underscore;
unicode = 005F;
},
{
glyphname = grave;
layers = (
{
layerId = "B1070C97-2DE4-4FC8-9990-FF316D9539D4";
paths = (
{
closed = 1;
nodes = (
"231 1788 LINE",
"47 1524 LINE",
"602 1210 LINE",
"706 1352 LINE"
);
}
);
width = 755;
}
);
note = grave;
unicode = 0060;
},
{
glyphname = a;
layers = (
{
layerId = "B1070C97-2DE4-4FC8-9990-FF316D9539D4";
paths = (
{
closed = 1;
nodes = (
"542 -18 OFFCURVE",
"724 80 OFFCURVE",
"767 164 QCURVE",
"812 0 LINE",
"1324 0 LINE",
"1324 301 LINE",
"1230 301 LINE",
"1230 750 LINE SMOOTH",
"1230 1092 OFFCURVE",
"622 1092 QCURVE SMOOTH",
"513 1092 OFFCURVE",
"261 1055 OFFCURVE",
"140 1012 QCURVE",
"140 721 LINE",
"169 709 LINE",
"233 748 OFFCURVE",
"425 801 OFFCURVE",
"499 801 QCURVE SMOOTH",
"614 801 OFFCURVE",
"749 717 OFFCURVE",
"749 637 QCURVE SMOOTH",
"749 592 LINE",
"628 631 OFFCURVE",
"497 631 QCURVE SMOOTH",
"386 631 OFFCURVE",
"194 559 OFFCURVE",
"77 414 OFFCURVE",
"77 307 QCURVE SMOOTH",
"77 209 OFFCURVE",
"177 61 OFFCURVE",
"345 -18 OFFCURVE",
"446 -18 QCURVE SMOOTH"
);
},
{
closed = 1;
nodes = (
"585 238 OFFCURVE",
"526 299 OFFCURVE",
"526 340 QCURVE SMOOTH",
"526 395 OFFCURVE",
"589 461 OFFCURVE",
"642 461 QCURVE SMOOTH",
"667 461 OFFCURVE",
"734 442 OFFCURVE",
"749 440 QCURVE",
"749 272 LINE",
"736 260 OFFCURVE",
"667 238 OFFCURVE",
"634 238 QCURVE SMOOTH"
);
}
);
width = 1396;
}
);
note = a;
unicode = 0061;
},
{
glyphname = b;
layers = (
{
layerId = "B1070C97-2DE4-4FC8-9990-FF316D9539D4";
paths = (
{
closed = 1;
nodes = (
"1112 -18 OFFCURVE",
"1323 127 OFFCURVE",
"1427 379 OFFCURVE",
"1427 539 QCURVE SMOOTH",
"1427 692 OFFCURVE",
"1327 944 OFFCURVE",
"1124 1092 OFFCURVE",
"981 1092 QCURVE SMOOTH",
"905 1092 OFFCURVE",
"737 1028 OFFCURVE",
"659 965 QCURVE",
"659 1561 LINE",
"51 1495 LINE",
"51 1223 LINE",
"180 1223 LINE",
"180 0 LINE",
"629 0 LINE",
"667 115 LINE",
"719 59 OFFCURVE",
"868 -18 OFFCURVE",
"960 -18 QCURVE SMOOTH"
);
},
{
closed = 1;
nodes = (
"772 274 OFFCURVE",
"682 305 OFFCURVE",
"659 324 QCURVE",
"659 733 LINE",
"678 758 OFFCURVE",
"768 799 OFFCURVE",
"815 799 QCURVE SMOOTH",
"899 799 OFFCURVE",
"981 627 OFFCURVE",
"981 510 QCURVE SMOOTH",
"981 416 OFFCURVE",
"887 274 OFFCURVE",
"815 274 QCURVE SMOOTH"
);
}
);
width = 1499;
}
);
note = b;
unicode = 0062;
},
{
glyphname = c;
layers = (
{
layerId = "B1070C97-2DE4-4FC8-9990-FF316D9539D4";
paths = (
{
closed = 1;
nodes = (
"796 -18 OFFCURVE",
"997 33 OFFCURVE",
"1120 94 OFFCURVE",
"1120 98 QCURVE SMOOTH",
"1120 377 LINE",
"1105 387 LINE",
"1040 332 OFFCURVE",
"872 281 OFFCURVE",
"800 281 QCURVE SMOOTH",
"700 281 OFFCURVE",
"544 395 OFFCURVE",
"544 545 QCURVE SMOOTH",
"544 690 OFFCURVE",
"634 799 OFFCURVE",
"720 799 QCURVE SMOOTH",
"778 799 OFFCURVE",
"856 709 OFFCURVE",
"864 629 QCURVE",
"1153 629 LINE",
"1153 1071 LINE",
"935 1071 LINE",
"894 965 LINE",
"868 1028 OFFCURVE",
"669 1092 OFFCURVE",
"581 1092 QCURVE SMOOTH",
"425 1092 OFFCURVE",
"190 950 OFFCURVE",
"63 702 OFFCURVE",
"63 547 QCURVE SMOOTH",
"63 375 OFFCURVE",
"215 121 OFFCURVE",
"489 -18 OFFCURVE",
"671 -18 QCURVE SMOOTH"
);
}
);
width = 1249;
}
);
note = c;
unicode = 0063;
},
{
glyphname = d;
layers = (
{
layerId = "B1070C97-2DE4-4FC8-9990-FF316D9539D4";
paths = (
{
closed = 1;
nodes = (
"630 -16 OFFCURVE",
"782 63 OFFCURVE",
"831 129 QCURVE",
"831 0 LINE",
"1447 0 LINE",
"1447 301 LINE",
"1320 301 LINE",
"1320 1561 LINE",
"679 1495 LINE",
"679 1223 LINE",
"839 1223 LINE",
"839 961 LINE",
"776 1026 OFFCURVE",
"630 1092 OFFCURVE",
"528 1092 QCURVE SMOOTH",
"388 1092 OFFCURVE",
"182 942 OFFCURVE",
"71 694 OFFCURVE",
"71 551 QCURVE SMOOTH",
"71 395 OFFCURVE",
"180 135 OFFCURVE",
"390 -18 OFFCURVE",
"536 -18 QCURVE SMOOTH"
);
},
{
closed = 1;
nodes = (
"610 274 OFFCURVE",
"520 428 OFFCURVE",
"520 551 QCURVE SMOOTH",
"520 672 OFFCURVE",
"618 799 OFFCURVE",
"696 799 QCURVE SMOOTH",
"739 799 OFFCURVE",
"816 756 OFFCURVE",
"839 729 QCURVE",
"839 350 LINE",
"819 319 OFFCURVE",
"743 274 OFFCURVE",
"696 274 QCURVE SMOOTH"
);
}
);
width = 1513;
}
);
note = d;
unicode = 0064;
},
{
glyphname = e;
layers = (
{
layerId = "B1070C97-2DE4-4FC8-9990-FF316D9539D4";
paths = (
{
closed = 1;
nodes = (
"833 -18 OFFCURVE",
"1050 41 OFFCURVE",
"1153 100 QCURVE",
"1153 369 LINE",
"1136 375 LINE",
"1044 319 OFFCURVE",
"862 266 OFFCURVE",
"786 266 QCURVE SMOOTH",
"686 266 OFFCURVE",
"544 379 OFFCURVE",
"544 473 QCURVE",
"1167 473 LINE",
"1183 522 OFFCURVE",
"1183 575 QCURVE SMOOTH",
"1183 731 OFFCURVE",
"1048 965 OFFCURVE",
"802 1092 OFFCURVE",
"641 1092 QCURVE SMOOTH",
"466 1092 OFFCURVE",
"206 958 OFFCURVE",
"63 711 OFFCURVE",
"63 543 QCURVE SMOOTH",
"63 373 OFFCURVE",
"210 119 OFFCURVE",
"485 -18 OFFCURVE",
"671 -18 QCURVE SMOOTH"
);
},
{
closed = 1;
nodes = (
"544 678 LINE SMOOTH",
"544 739 OFFCURVE",
"618 844 OFFCURVE",
"671 844 QCURVE SMOOTH",
"735 844 OFFCURVE",
"800 741 OFFCURVE",
"800 670 QCURVE SMOOTH",
"800 649 LINE",
"544 649 LINE"
);
}
);
width = 1275;
}
);
note = e;
unicode = 0065;
},
{
glyphname = f;
layers = (
{
layerId = "B1070C97-2DE4-4FC8-9990-FF316D9539D4";
paths = (
{
closed = 1;
nodes = (
"912 0 LINE",
"912 301 LINE",
"720 301 LINE",
"720 778 LINE",
"912 778 LINE",
"912 1071 LINE",
"720 1071 LINE",
"720 1108 LINE SMOOTH",
"720 1241 OFFCURVE",
"808 1241 QCURVE SMOOTH",
"837 1241 OFFCURVE",
"912 1229 QCURVE",
"912 1524 LINE",
"855 1542 OFFCURVE",
"675 1571 OFFCURVE",
"597 1571 QCURVE SMOOTH",
"241 1571 OFFCURVE",
"241 1167 QCURVE SMOOTH",
"241 1071 LINE",
"81 1071 LINE",
"81 778 LINE",
"241 778 LINE",
"241 301 LINE",
"81 301 LINE",
"81 0 LINE"
);
}
);
width = 1003;
}
);
note = f;
unicode = 0066;
},
{
glyphname = g;
layers = (
{
layerId = "B1070C97-2DE4-4FC8-9990-FF316D9539D4";
paths = (
{
closed = 1;
nodes = (
"958 -389 OFFCURVE",
"1322 -125 OFFCURVE",
"1322 135 QCURVE SMOOTH",
"1322 762 LINE",
"1418 762 LINE",
"1418 1071 LINE",
"909 1071 LINE",
"837 922 LINE",
"718 1092 OFFCURVE",
"521 1092 QCURVE SMOOTH",
"378 1092 OFFCURVE",
"177 944 OFFCURVE",
"75 694 OFFCURVE",
"75 541 QCURVE SMOOTH",
"75 391 OFFCURVE",
"175 145 OFFCURVE",
"376 0 OFFCURVE",
"521 0 QCURVE SMOOTH",
"622 0 OFFCURVE",
"782 68 OFFCURVE",
"837 117 QCURVE",
"837 -123 OFFCURVE",
"595 -123 QCURVE SMOOTH",
"511 -123 OFFCURVE",
"337 -80 OFFCURVE",
"204 -39 QCURVE",
"204 -328 LINE",
"442 -389 OFFCURVE",
"655 -389 QCURVE SMOOTH"
);
},
{
closed = 1;
nodes = (
"620 274 OFFCURVE",
"521 418 OFFCURVE",
"521 535 QCURVE SMOOTH",
"521 657 OFFCURVE",
"620 799 OFFCURVE",
"702 799 QCURVE SMOOTH",
"751 799 OFFCURVE",
"825 760 OFFCURVE",
"843 725 QCURVE",
"843 360 LINE",
"835 332 OFFCURVE",
"757 274 OFFCURVE",
"710 274 QCURVE SMOOTH"
);
}
);
width = 1490;
}
);
note = g;
unicode = 0067;
},
{
glyphname = h;
layers = (
{
layerId = "B1070C97-2DE4-4FC8-9990-FF316D9539D4";
paths = (
{
closed = 1;
nodes = (
"801 0 LINE",
"801 301 LINE",
"704 301 LINE",
"704 662 LINE SMOOTH",
"704 721 OFFCURVE",
"762 791 OFFCURVE",
"813 791 QCURVE SMOOTH",
"858 791 OFFCURVE",
"927 713 OFFCURVE",
"927 653 QCURVE SMOOTH",
"927 0 LINE",
"1536 0 LINE",
"1536 301 LINE",
"1409 301 LINE",
"1409 702 LINE SMOOTH",
"1409 887 OFFCURVE",
"1231 1092 OFFCURVE",
"1057 1092 QCURVE SMOOTH",
"938 1092 OFFCURVE",
"743 987 OFFCURVE",
"704 915 QCURVE",
"704 1561 LINE",
"96 1495 LINE",
"96 1223 LINE",
"223 1223 LINE",
"223 301 LINE",
"96 301 LINE",
"96 0 LINE"
);
}
);
width = 1552;
}
);
note = h;
unicode = 0068;
},
{
glyphname = i;
layers = (
{
layerId = "B1070C97-2DE4-4FC8-9990-FF316D9539D4";
paths = (
{
closed = 1;
nodes = (
"580 1176 OFFCURVE",
"743 1294 OFFCURVE",
"743 1405 QCURVE SMOOTH",
"743 1518 OFFCURVE",
"584 1630 OFFCURVE",
"457 1630 QCURVE SMOOTH",
"330 1630 OFFCURVE",
"168 1516 OFFCURVE",
"168 1405 QCURVE SMOOTH",
"168 1294 OFFCURVE",
"330 1176 OFFCURVE",
"455 1176 QCURVE SMOOTH"
);
},
{
closed = 1;
nodes = (
"823 301 LINE",
"694 301 LINE",
"694 1071 LINE",
"86 1008 LINE",
"86 762 LINE",
"215 762 LINE",
"215 301 LINE",
"86 301 LINE",
"86 0 LINE",
"823 0 LINE"
);
}
);
width = 888;
}
);
note = i;
unicode = 0069;
},
{
glyphname = j;
layers = (
{
layerId = "B1070C97-2DE4-4FC8-9990-FF316D9539D4";
paths = (
{
closed = 1;
nodes = (
"546 1176 OFFCURVE",
"708 1292 OFFCURVE",
"708 1405 QCURVE SMOOTH",
"708 1518 OFFCURVE",
"550 1630 OFFCURVE",
"421 1630 QCURVE SMOOTH",
"294 1630 OFFCURVE",
"132 1516 OFFCURVE",
"132 1405 QCURVE SMOOTH",
"132 1294 OFFCURVE",
"296 1176 OFFCURVE",
"421 1176 QCURVE SMOOTH"
);
},
{
closed = 1;
nodes = (
"292 -397 OFFCURVE",
"567 -322 OFFCURVE",
"708 -113 OFFCURVE",
"708 82 QCURVE SMOOTH",
"708 1071 LINE",
"69 1008 LINE",
"69 762 LINE",
"229 762 LINE",
"229 0 LINE SMOOTH",
"229 -92 OFFCURVE",
"100 -92 QCURVE SMOOTH",
"69 -92 LINE",
"69 -397 LINE"
);
}
);
width = 800;
}
);
note = j;
unicode = 006A;
},
{
glyphname = k;
layers = (
{
layerId = "B1070C97-2DE4-4FC8-9990-FF316D9539D4";
paths = (
{
closed = 1;
nodes = (
"1282 762 LINE",
"1442 762 LINE",
"1442 1071 LINE",
"803 1071 LINE",
"803 762 LINE",
"913 762 LINE",
"704 588 LINE",
"704 1561 LINE",
"49 1495 LINE",
"49 1223 LINE",
"225 1223 LINE",
"225 301 LINE",
"49 301 LINE",
"49 0 LINE",
"704 0 LINE",
"704 438 LINE",
"997 0 LINE",
"1474 0 LINE",
"1474 301 LINE",
"1317 301 LINE",
"1110 618 LINE"
);
}
);
width = 1509;
}
);
note = k;
unicode = 006B;
},
{
glyphname = l;
layers = (
{
layerId = "B1070C97-2DE4-4FC8-9990-FF316D9539D4";
paths = (
{
closed = 1;
nodes = (
"901 301 LINE",
"747 301 LINE",
"747 1561 LINE",
"92 1495 LINE",
"92 1223 LINE",
"268 1223 LINE",
"268 301 LINE",
"92 301 LINE",
"92 0 LINE",
"901 0 LINE"
);
}
);
width = 978;
}
);
note = l;
unicode = 006C;
},
{
glyphname = m;
layers = (
{
layerId = "B1070C97-2DE4-4FC8-9990-FF316D9539D4";
paths = (
{
closed = 1;
nodes = (
"2099 680 LINE SMOOTH",
"2099 1092 OFFCURVE",
"1769 1092 QCURVE SMOOTH",
"1646 1092 OFFCURVE",
"1454 1004 OFFCURVE",
"1380 899 QCURVE",
"1310 1092 OFFCURVE",
"1083 1092 QCURVE SMOOTH",
"972 1092 OFFCURVE",
"796 1024 OFFCURVE",
"727 942 QCURVE",
"727 1092 LINE",
"104 1032 LINE",
"104 762 LINE",
"249 762 LINE",
"249 289 LINE",
"104 289 LINE",
"104 0 LINE",
"729 0 LINE",
"729 289 LINE",
"727 289 LINE",
"727 508 LINE SMOOTH",
"727 645 OFFCURVE",
"766 791 OFFCURVE",
"839 791 QCURVE SMOOTH",
"878 791 OFFCURVE",
"933 725 OFFCURVE",
"933 682 QCURVE SMOOTH",
"933 0 LINE",
"1413 0 LINE",
"1413 508 LINE SMOOTH",
"1413 645 OFFCURVE",
"1452 791 OFFCURVE",
"1525 791 QCURVE SMOOTH",
"1564 791 OFFCURVE",
"1620 725 OFFCURVE",
"1620 682 QCURVE SMOOTH",
"1620 0 LINE",
"2238 0 LINE",
"2238 289 LINE",
"2099 289 LINE"
);
}
);
width = 2263;
}
);
note = m;
unicode = 006D;
},
{
glyphname = n;
layers = (
{
layerId = "B1070C97-2DE4-4FC8-9990-FF316D9539D4";
paths = (
{
closed = 1;
nodes = (
"1413 680 LINE SMOOTH",
"1413 1092 OFFCURVE",
"1083 1092 QCURVE SMOOTH",
"972 1092 OFFCURVE",
"796 1024 OFFCURVE",
"727 942 QCURVE",
"727 1092 LINE",
"104 1032 LINE",
"104 762 LINE",
"249 762 LINE",
"249 289 LINE",
"104 289 LINE",
"104 0 LINE",
"729 0 LINE",
"729 289 LINE",
"727 289 LINE",
"727 508 LINE SMOOTH",
"727 645 OFFCURVE",
"766 791 OFFCURVE",
"839 791 QCURVE SMOOTH",
"878 791 OFFCURVE",
"933 725 OFFCURVE",
"933 682 QCURVE SMOOTH",
"933 0 LINE",
"1552 0 LINE",
"1552 289 LINE",
"1413 289 LINE"
);
}
);
width = 1579;
}
);
note = n;
unicode = 006E;
},
{
glyphname = o;
layers = (
{
layerId = "B1070C97-2DE4-4FC8-9990-FF316D9539D4";
paths = (
{
closed = 1;
nodes = (
"863 -18 OFFCURVE",
"1138 115 OFFCURVE",
"1289 371 OFFCURVE",
"1289 547 QCURVE SMOOTH",
"1289 807 OFFCURVE",
"958 1092 OFFCURVE",
"681 1092 QCURVE SMOOTH",
"501 1092 OFFCURVE",
"227 967 OFFCURVE",
"75 721 OFFCURVE",
"75 547 QCURVE SMOOTH",
"75 371 OFFCURVE",
"227 115 OFFCURVE",
"501 -18 OFFCURVE",
"681 -18 QCURVE SMOOTH"
);
},
{
closed = 1;
nodes = (
"618 274 OFFCURVE",
"554 403 OFFCURVE",
"554 547 QCURVE SMOOTH",
"554 680 OFFCURVE",
"616 799 OFFCURVE",
"681 799 QCURVE SMOOTH",
"749 799 OFFCURVE",
"810 680 OFFCURVE",
"810 547 QCURVE SMOOTH",
"810 403 OFFCURVE",
"747 274 OFFCURVE",
"681 274 QCURVE SMOOTH"
);
}
);
width = 1366;
}
);
note = o;
unicode = 006F;
},
{
glyphname = p;
layers = (
{
layerId = "B1070C97-2DE4-4FC8-9990-FF316D9539D4";
paths = (
{
closed = 1;
nodes = (
"800 -397 LINE",
"800 -96 LINE",
"671 -96 LINE",
"671 119 LINE",
"725 61 OFFCURVE",
"890 -18 OFFCURVE",
"991 -18 QCURVE SMOOTH",
"1136 -18 OFFCURVE",
"1339 133 OFFCURVE",
"1439 387 OFFCURVE",
"1439 541 QCURVE SMOOTH",
"1439 694 OFFCURVE",
"1337 944 OFFCURVE",
"1136 1092 OFFCURVE",
"993 1092 QCURVE SMOOTH",
"884 1092 OFFCURVE",
"722 993 OFFCURVE",
"671 922 QCURVE",
"671 1092 LINE",
"63 1030 LINE",
"63 762 LINE",
"192 762 LINE",
"192 -94 LINE",
"63 -94 LINE",
"63 -397 LINE"
);
},
{
closed = 1;
nodes = (
"716 274 OFFCURVE",
"671 360 QCURVE",
"671 707 LINE",
"688 748 OFFCURVE",
"770 799 OFFCURVE",
"821 799 QCURVE SMOOTH",
"897 799 OFFCURVE",
"991 655 OFFCURVE",
"991 535 QCURVE SMOOTH",
"991 418 OFFCURVE",
"905 274 OFFCURVE",
"815 274 QCURVE SMOOTH"
);
}
);
width = 1511;
}
);
note = p;
unicode = 0070;
},
{
glyphname = q;
layers = (
{
layerId = "B1070C97-2DE4-4FC8-9990-FF316D9539D4";
paths = (
{
closed = 1;
nodes = (
"1445 -397 LINE",
"1445 -94 LINE",
"1326 -94 LINE",
"1326 762 LINE",
"1421 762 LINE",
"1421 1071 LINE",
"913 1071 LINE",
"841 922 LINE",
"790 995 OFFCURVE",
"634 1092 OFFCURVE",
"526 1092 QCURVE SMOOTH",
"382 1092 OFFCURVE",
"179 944 OFFCURVE",
"75 692 OFFCURVE",
"75 541 QCURVE SMOOTH",
"75 387 OFFCURVE",
"177 133 OFFCURVE",
"382 -18 OFFCURVE",
"528 -18 QCURVE SMOOTH",
"708 -18 OFFCURVE",
"841 119 QCURVE",
"841 -96 LINE",
"728 -96 LINE",
"728 -397 LINE"
);
},
{
closed = 1;
nodes = (
"624 295 OFFCURVE",
"546 428 OFFCURVE",
"546 535 QCURVE SMOOTH",
"546 778 OFFCURVE",
"708 778 QCURVE SMOOTH",
"759 778 OFFCURVE",
"831 727 OFFCURVE",
"841 684 QCURVE",
"841 389 LINE SMOOTH",
"841 350 OFFCURVE",
"763 295 OFFCURVE",
"712 295 QCURVE SMOOTH"
);
}
);
width = 1515;
}
);
note = q;
unicode = 0071;
},
{
glyphname = r;
layers = (
{
layerId = "B1070C97-2DE4-4FC8-9990-FF316D9539D4";
paths = (
{
closed = 1;
nodes = (
"831 0 LINE",
"831 301 LINE",
"671 301 LINE",
"671 506 LINE SMOOTH",
"671 596 OFFCURVE",
"735 707 OFFCURVE",
"831 707 QCURVE SMOOTH",
"907 707 OFFCURVE",
"1024 668 QCURVE",
"1024 1092 LINE",
"940 1092 OFFCURVE",
"718 993 OFFCURVE",
"671 918 QCURVE",
"671 1092 LINE",
"63 1032 LINE",
"63 762 LINE",
"192 762 LINE",
"192 301 LINE",
"63 301 LINE",
"63 0 LINE"
);
}
);
width = 1071;
}
);
note = r;
unicode = 0072;
},
{
glyphname = s;
layers = (
{
layerId = "B1070C97-2DE4-4FC8-9990-FF316D9539D4";
paths = (
{
closed = 1;
nodes = (
"763 -18 OFFCURVE",
"964 63 OFFCURVE",
"1087 225 OFFCURVE",
"1087 342 QCURVE SMOOTH",
"1087 453 OFFCURVE",
"983 602 OFFCURVE",
"843 684 OFFCURVE",
"737 729 QCURVE SMOOTH",
"651 766 OFFCURVE",
"577 811 OFFCURVE",
"575 844 QCURVE SMOOTH",
"575 870 OFFCURVE",
"614 891 OFFCURVE",
"649 891 QCURVE SMOOTH",
"712 891 OFFCURVE",
"806 817 OFFCURVE",
"831 752 QCURVE",
"1024 752 LINE",
"1024 1071 LINE",
"858 1071 LINE",
"833 1006 LINE",
"694 1092 OFFCURVE",
"530 1092 QCURVE SMOOTH",
"405 1092 OFFCURVE",
"192 1018 OFFCURVE",
"63 874 OFFCURVE",
"63 774 QCURVE SMOOTH",
"63 678 OFFCURVE",
"159 541 OFFCURVE",
"290 457 OFFCURVE",
"393 406 QCURVE SMOOTH",
"479 365 OFFCURVE",
"563 305 OFFCURVE",
"563 268 QCURVE SMOOTH",
"563 231 OFFCURVE",
"520 199 OFFCURVE",
"491 199 QCURVE SMOOTH",
"415 199 OFFCURVE",
"299 319 OFFCURVE",
"286 395 QCURVE",
"63 395 LINE",
"63 0 LINE",
"249 0 LINE",
"282 90 LINE",
"440 -18 OFFCURVE",
"645 -18 QCURVE SMOOTH"
);
}
);
width = 1185;
}
);
note = s;
unicode = 0073;
},
{
glyphname = t;
layers = (
{
layerId = "B1070C97-2DE4-4FC8-9990-FF316D9539D4";
paths = (
{
closed = 1;
nodes = (
"732 -18 OFFCURVE",
"863 41 QCURVE",
"863 319 LINE",
"827 313 OFFCURVE",
"790 313 QCURVE SMOOTH",
"739 313 OFFCURVE",
"671 373 OFFCURVE",
"671 418 QCURVE SMOOTH",
"671 778 LINE",
"863 778 LINE",
"863 1071 LINE",
"671 1071 LINE",
"671 1407 LINE",
"192 1300 LINE",
"192 1071 LINE",
"32 1071 LINE",
"32 778 LINE",
"192 778 LINE",
"192 383 LINE SMOOTH",
"192 180 OFFCURVE",
"382 -18 OFFCURVE",
"577 -18 QCURVE SMOOTH"
);
}
);
width = 954;
}
);
note = t;
unicode = 0074;
},
{
glyphname = u;
layers = (
{
layerId = "B1070C97-2DE4-4FC8-9990-FF316D9539D4";
paths = (
{
closed = 1;
nodes = (
"634 -18 OFFCURVE",
"811 74 OFFCURVE",
"864 156 QCURVE",
"864 0 LINE",
"1472 0 LINE",
"1472 301 LINE",
"1343 301 LINE",
"1343 1092 LINE",
"768 1032 LINE",
"768 762 LINE",
"864 762 LINE",
"864 387 LINE SMOOTH",
"864 342 OFFCURVE",
"813 281 OFFCURVE",
"768 281 QCURVE SMOOTH",
"729 281 OFFCURVE",
"671 346 OFFCURVE",
"671 385 QCURVE SMOOTH",
"671 1092 LINE",
"63 1032 LINE",
"63 762 LINE",
"192 762 LINE",
"192 385 LINE SMOOTH",
"192 -18 OFFCURVE",
"514 -18 QCURVE SMOOTH"
);
}
);
width = 1538;
}
);
note = u;
unicode = 0075;
},
{
glyphname = v;
layers = (
{
layerId = "B1070C97-2DE4-4FC8-9990-FF316D9539D4";
paths = (
{
closed = 1;
nodes = (
"1305 762 LINE",
"1440 762 LINE",
"1440 1071 LINE",
"897 1071 LINE",
"897 762 LINE",
"1024 762 LINE",
"831 258 LINE",
"657 762 LINE",
"768 762 LINE",
"768 1071 LINE",
"0 1071 LINE",
"0 762 LINE",
"147 762 LINE",
"481 0 LINE",
"991 0 LINE"
);
}
);
width = 1482;
}
);
note = v;
unicode = 0076;
},
{
glyphname = w;
layers = (
{
layerId = "B1070C97-2DE4-4FC8-9990-FF316D9539D4";
paths = (
{
closed = 1;
nodes = (
"1030 430 LINE",
"1159 0 LINE",
"1634 0 LINE",
"1861 762 LINE",
"1996 762 LINE",
"1996 1071 LINE",
"1445 1071 LINE",
"1445 762 LINE",
"1564 762 LINE",
"1464 379 LINE",
"1247 1071 LINE",
"981 1071 LINE",
"770 391 LINE",
"677 762 LINE",
"772 762 LINE",
"772 1071 LINE",
"63 1071 LINE",
"63 762 LINE",
"196 762 LINE",
"434 0 LINE",
"878 0 LINE"
);
}
);
width = 2060;
}
);
note = w;
unicode = 0077;
},
{
glyphname = x;
layers = (
{
layerId = "B1070C97-2DE4-4FC8-9990-FF316D9539D4";
paths = (
{
closed = 1;
nodes = (
"587 276 LINE",
"775 0 LINE",
"1248 0 LINE",
"1248 301 LINE",
"1117 301 LINE",
"925 580 LINE",
"1087 762 LINE",
"1218 762 LINE",
"1218 1071 LINE",
"943 1071 LINE",
"759 821 LINE",
"597 1071 LINE",
"101 1071 LINE",
"101 762 LINE",
"230 762 LINE",
"413 512 LINE",
"233 301 LINE",
"83 301 LINE",
"83 0 LINE",
"380 0 LINE"
);
}
);
width = 1329;
}
);
note = x;
unicode = 0078;
},
{
glyphname = y;
layers = (
{
layerId = "B1070C97-2DE4-4FC8-9990-FF316D9539D4";
paths = (
{
closed = 1;
nodes = (
"1091 -61 LINE",
"937 -61 LINE",
"1374 762 LINE",
"1482 762 LINE",
"1482 1071 LINE",
"923 1071 LINE",
"923 762 LINE",
"1032 762 LINE",
"880 455 LINE",
"714 762 LINE",
"813 762 LINE",
"813 1071 LINE",
"63 1071 LINE",
"63 762 LINE",
"190 762 LINE",
"657 31 LINE",
"602 -61 LINE",
"399 -61 LINE",
"399 -377 LINE",
"1091 -377 LINE"
);
}
);
width = 1546;
}
);
note = y;
unicode = 0079;
},
{
glyphname = z;
layers = (
{
layerId = "B1070C97-2DE4-4FC8-9990-FF316D9539D4";
paths = (
{
closed = 1;
nodes = (
"1166 451 LINE",
"982 451 LINE",
"947 295 LINE",
"661 295 LINE",
"1130 795 LINE",
"1130 1071 LINE",
"108 1071 LINE",
"108 637 LINE",
"304 637 LINE",
"370 778 LINE",
"575 778 LINE",
"81 283 LINE",
"81 0 LINE",
"1166 0 LINE"
);
}
);
width = 1247;
}
);
note = z;
unicode = 007A;
},
{
glyphname = braceleft;
layers = (
{
layerId = "B1070C97-2DE4-4FC8-9990-FF316D9539D4";
paths = (
{
closed = 1;
nodes = (
"821 313 LINE",
"659 313 OFFCURVE",
"659 559 QCURVE SMOOTH",
"659 750 OFFCURVE",
"409 842 QCURVE",
"659 934 OFFCURVE",
"659 1124 QCURVE SMOOTH",
"659 1370 OFFCURVE",
"821 1370 QCURVE",
"821 1702 LINE",
"665 1702 OFFCURVE",
"409 1610 OFFCURVE",
"331 1530 QCURVE SMOOTH",
"176 1368 OFFCURVE",
"176 1124 QCURVE SMOOTH",
"176 1042 OFFCURVE",
"96 967 OFFCURVE",
"12 963 QCURVE",
"12 723 LINE",
"96 719 OFFCURVE",
"176 641 OFFCURVE",
"176 559 QCURVE SMOOTH",
"176 444 OFFCURVE",
"215 338 QCURVE SMOOTH",
"280 168 OFFCURVE",
"590 -18 OFFCURVE",
"821 -18 QCURVE"
);
}
);
width = 858;
}
);
note = braceleft;
unicode = 007B;
},
{
glyphname = bar;
layers = (
{
layerId = "B1070C97-2DE4-4FC8-9990-FF316D9539D4";
paths = (
{
closed = 1;
nodes = (
"429 1622 LINE",
"36 1622 LINE",
"36 0 LINE",
"429 0 LINE"
);
}
);
width = 466;
}
);
note = bar;
unicode = 007C;
},
{
glyphname = braceright;
layers = (
{
layerId = "B1070C97-2DE4-4FC8-9990-FF316D9539D4";
paths = (
{
closed = 1;
nodes = (
"194 -16 OFFCURVE",
"448 76 OFFCURVE",
"525 158 QCURVE SMOOTH",
"681 319 OFFCURVE",
"681 561 QCURVE SMOOTH",
"681 643 OFFCURVE",
"761 721 OFFCURVE",
"845 725 QCURVE",
"845 965 LINE",
"761 969 OFFCURVE",
"681 1047 OFFCURVE",
"681 1128 QCURVE SMOOTH",
"681 1243 OFFCURVE",
"640 1348 QCURVE SMOOTH",
"575 1520 OFFCURVE",
"267 1704 OFFCURVE",
"36 1704 QCURVE",
"36 1372 LINE",
"198 1372 OFFCURVE",
"198 1126 QCURVE SMOOTH",
"198 936 OFFCURVE",
"448 844 QCURVE",
"198 752 OFFCURVE",
"198 561 QCURVE SMOOTH",
"198 315 OFFCURVE",
"36 315 QCURVE",
"36 -16 LINE"
);
}
);
width = 858;
}
);
note = braceright;
unicode = 007D;
},
{
glyphname = asciitilde;
layers = (
{
layerId = "B1070C97-2DE4-4FC8-9990-FF316D9539D4";
paths = (
{
closed = 1;
nodes = (
"964 629 OFFCURVE",
"1058 694 OFFCURVE",
"1118 791 OFFCURVE",
"1161 877 QCURVE SMOOTH",
"1208 975 OFFCURVE",
"1245 1030 QCURVE",
"1116 1116 LINE",
"1034 1018 OFFCURVE",
"937 922 OFFCURVE",
"907 922 QCURVE SMOOTH",
"851 922 OFFCURVE",
"745 969 OFFCURVE",
"669 1014 QCURVE SMOOTH",
"577 1067 OFFCURVE",
"452 1120 OFFCURVE",
"378 1120 QCURVE SMOOTH",
"307 1120 OFFCURVE",
"200 1042 OFFCURVE",
"133 932 OFFCURVE",
"90 842 QCURVE SMOOTH",
"81 825 OFFCURVE",
"40 748 OFFCURVE",
"24 721 QCURVE",
"155 635 LINE",
"184 668 LINE SMOOTH",
"253 752 OFFCURVE",
"335 834 OFFCURVE",
"366 834 QCURVE SMOOTH",
"427 834 OFFCURVE",
"540 784 OFFCURVE",
"628 733 QCURVE SMOOTH",
"712 682 OFFCURVE",
"829 631 OFFCURVE",
"892 631 QCURVE",
"894 629 LINE"
);
}
);
width = 1269;
}
);
note = asciitilde;
unicode = 007E;
},
{
glyphname = guillemotleft;
layers = (
{
layerId = "B1070C97-2DE4-4FC8-9990-FF316D9539D4";
paths = (
{
closed = 1;
nodes = (
"350 535 LINE",
"665 850 LINE",
"475 1073 LINE",
"49 670 LINE",
"49 399 LINE",
"475 -4 LINE",
"665 219 LINE"
);
},
{
closed = 1;
nodes = (
"960 535 LINE",
"1276 850 LINE",
"1085 1073 LINE",
"659 670 LINE",
"659 399 LINE",
"1085 -4 LINE",
"1276 219 LINE"
);
}
);
width = 1314;
}
);
note = guillemotleft;
unicode = 00AB;
},
{
glyphname = guillemotright;
layers = (
{
layerId = "B1070C97-2DE4-4FC8-9990-FF316D9539D4";
paths = (
{
closed = 1;
nodes = (
"654 670 LINE",
"228 1073 LINE",
"38 850 LINE",
"351 535 LINE",
"38 219 LINE",
"228 -4 LINE",
"654 399 LINE"
);
},
{
closed = 1;
nodes = (
"1265 670 LINE",
"839 1073 LINE",
"646 850 LINE",
"962 535 LINE",
"646 219 LINE",
"839 -4 LINE",
"1265 399 LINE"
);
}
);
width = 1310;
}
);
note = guillemotright;
unicode = 00BB;
},
{
glyphname = uni1780;
layers = (
{
layerId = "B1070C97-2DE4-4FC8-9990-FF316D9539D4";
paths = (
{
closed = 1;
nodes = (
"1457 456 OFFCURVE",
"1457 469 QCURVE SMOOTH",
"1457 483 OFFCURVE",
"1469 493 QCURVE SMOOTH",
"1491 512 OFFCURVE",
"1550 567 QCURVE",
"1550 450 LINE SMOOTH",
"1550 406 OFFCURVE",
"1519 406 QCURVE SMOOTH",
"1487 406 OFFCURVE",
"1467 440 QCURVE SMOOTH"
);
},
{
closed = 1;
nodes = (
"411 1186 OFFCURVE",
"307 1194 QCURVE",
"377 1232 OFFCURVE",
"417 1232 QCURVE SMOOTH",
"456 1232 OFFCURVE",
"592 1143 QCURVE SMOOTH",
"728 1054 OFFCURVE",
"792 1054 QCURVE SMOOTH",
"855 1054 OFFCURVE",
"953 1137 QCURVE SMOOTH",
"1050 1220 OFFCURVE",
"1091 1220 QCURVE SMOOTH",
"1131 1220 OFFCURVE",
"1270 1160 QCURVE SMOOTH",
"1408 1100 OFFCURVE",
"1515 1100 QCURVE SMOOTH",
"1642 1100 OFFCURVE",
"1750 1350 QCURVE",
"1632 1350 OFFCURVE",
"1493 1425 QCURVE SMOOTH",
"1354 1500 OFFCURVE",
"1291 1500 QCURVE SMOOTH",
"1227 1500 OFFCURVE",
"1119 1410 QCURVE SMOOTH",
"1011 1320 OFFCURVE",
"964 1320 QCURVE SMOOTH",
"917 1320 OFFCURVE",
"780 1410 QCURVE SMOOTH",
"642 1500 OFFCURVE",
"554 1500 QCURVE SMOOTH",
"465 1500 OFFCURVE",
"150 1260 QCURVE",
"150 1054 LINE",
"167 1057 OFFCURVE",
"185 1057 QCURVE SMOOTH",
"271 1057 OFFCURVE",
"383 997 QCURVE",
"150 973 OFFCURVE",
"150 775 QCURVE SMOOTH",
"150 550 OFFCURVE",
"450 550 QCURVE SMOOTH",
"528 550 OFFCURVE",
"600 580 QCURVE SMOOTH",
"626 590 OFFCURVE",
"648 604 QCURVE",
"636 506 OFFCURVE",
"562 458 QCURVE SMOOTH",
"473 400 OFFCURVE",
"359 400 QCURVE SMOOTH",
"244 400 OFFCURVE",
"150 450 QCURVE",
"150 300 LINE SMOOTH",
"150 0 OFFCURVE",
"450 0 QCURVE SMOOTH",
"750 0 OFFCURVE",
"750 200 QCURVE SMOOTH",
"750 677 LINE",
"894 750 OFFCURVE",
"1056 750 QCURVE SMOOTH",
"1206 750 OFFCURVE",
"1517 633 QCURVE",
"1258 470 OFFCURVE",
"1050 450 QCURVE",
"1050 307 OFFCURVE",
"1170 154 QCURVE SMOOTH",
"1289 0 OFFCURVE",
"1450 0 QCURVE SMOOTH",
"1530 0 OFFCURVE",
"1650 140 QCURVE",
"1650 980 LINE",
"1282 1100 OFFCURVE",
"1096 1100 QCURVE SMOOTH",
"944 1100 OFFCURVE",
"707 891 QCURVE",
"667 943 OFFCURVE",
"597 971 QCURVE SMOOTH",
"525 1000 OFFCURVE",
"450 1000 QCURVE SMOOTH",
"434 1000 LINE",
"507 1102 LINE"
);
}
);
width = 1800;
}
);
note = uni1780;
unicode = 1780;
},
{
glyphname = uni1781;
layers = (
{
layerId = "B1070C97-2DE4-4FC8-9990-FF316D9539D4";
paths = (
{
closed = 1;
nodes = (
"729 720 OFFCURVE",
"858 770 OFFCURVE",
"930 859 OFFCURVE",
"930 908 QCURVE SMOOTH",
"930 957 OFFCURVE",
"856 1047 OFFCURVE",
"726 1096 OFFCURVE",
"658 1096 QCURVE SMOOTH",
"589 1096 OFFCURVE",
"459 1047 OFFCURVE",
"386 957 OFFCURVE",
"386 908 QCURVE SMOOTH",
"386 899 LINE",
"350 943 OFFCURVE",
"350 1020 QCURVE SMOOTH",
"350 1200 OFFCURVE",
"800 1200 QCURVE SMOOTH",
"1250 1200 OFFCURVE",
"1250 949 QCURVE SMOOTH",
"1250 757 OFFCURVE",
"918 680 QCURVE SMOOTH",
"586 603 OFFCURVE",
"150 601 QCURVE",
"150 0 OFFCURVE",
"900 0 QCURVE SMOOTH",
"1650 0 OFFCURVE",
"1650 658 QCURVE",
"1388 300 OFFCURVE",
"1024 300 QCURVE SMOOTH",
"660 300 OFFCURVE",
"600 464 QCURVE",
"1125 492 OFFCURVE",
"1650 765 OFFCURVE",
"1650 1009 QCURVE SMOOTH",
"1650 1500 OFFCURVE",
"900 1500 QCURVE SMOOTH",
"150 1500 OFFCURVE",
"150 1040 QCURVE SMOOTH",
"150 720 OFFCURVE",
"658 720 QCURVE SMOOTH"
);
}
);
width = 1800;
}
);
note = uni1781;
unicode = 1781;
},
{
glyphname = uni1782;
layers = (
{
layerId = "B1070C97-2DE4-4FC8-9990-FF316D9539D4";
paths = (
{
closed = 1;
nodes = (
"1457 456 OFFCURVE",
"1457 469 QCURVE SMOOTH",
"1457 483 OFFCURVE",
"1469 493 QCURVE SMOOTH",
"1491 512 OFFCURVE",
"1550 567 QCURVE",
"1550 450 LINE SMOOTH",
"1550 406 OFFCURVE",
"1519 406 QCURVE SMOOTH",
"1487 406 OFFCURVE",
"1467 440 QCURVE SMOOTH"
);
},
{
closed = 1;
nodes = (
"150 730 QCURVE",
"150 299 LINE SMOOTH",
"150 166 OFFCURVE",
"290 0 OFFCURVE",
"438 0 QCURVE SMOOTH",
"589 0 OFFCURVE",
"653 137 QCURVE",
"586 189 OFFCURVE",
"586 251 QCURVE SMOOTH",
"586 265 OFFCURVE",
"589 279 QCURVE",
"607 336 OFFCURVE",
"668 337 QCURVE SMOOTH",
"669 337 LINE SMOOTH",
"728 337 OFFCURVE",
"768 294 QCURVE SMOOTH",
"808 250 OFFCURVE",
"874 250 QCURVE SMOOTH",
"939 250 OFFCURVE",
"976 348 QCURVE SMOOTH",
"988 381 OFFCURVE",
"988 412 QCURVE SMOOTH",
"988 472 OFFCURVE",
"941 523 QCURVE SMOOTH",
"869 600 OFFCURVE",
"749 600 QCURVE SMOOTH",
"649 600 OFFCURVE",
"452 467 OFFCURVE",
"399 322 QCURVE",
"250 340 OFFCURVE",
"250 470 QCURVE SMOOTH",
"250 550 OFFCURVE",
"545 710 OFFCURVE",
"796 710 QCURVE SMOOTH",
"1046 710 OFFCURVE",
"1517 633 QCURVE",
"1258 470 OFFCURVE",
"1050 450 QCURVE",
"1050 307 OFFCURVE",
"1170 154 QCURVE SMOOTH",
"1289 0 OFFCURVE",
"1450 0 QCURVE SMOOTH",
"1530 0 OFFCURVE",
"1650 140 QCURVE",
"1650 980 LINE",
"1122 1060 OFFCURVE",
"845 1060 QCURVE SMOOTH",
"568 1060 OFFCURVE",
"235 897 OFFCURVE"
);
},
{
closed = 1;
nodes = (
"411 1186 OFFCURVE",
"307 1194 QCURVE",
"377 1232 OFFCURVE",
"417 1232 QCURVE SMOOTH",
"456 1232 OFFCURVE",
"728 1064 OFFCURVE",
"792 1064 QCURVE SMOOTH",
"855 1064 OFFCURVE",
"1050 1220 OFFCURVE",
"1091 1220 QCURVE SMOOTH",
"1131 1220 OFFCURVE",
"1408 1080 OFFCURVE",
"1515 1080 QCURVE SMOOTH",
"1642 1080 OFFCURVE",
"1750 1350 QCURVE",
"1632 1350 OFFCURVE",
"1493 1425 QCURVE SMOOTH",
"1354 1500 OFFCURVE",
"1291 1500 QCURVE SMOOTH",
"1227 1500 OFFCURVE",
"1119 1410 QCURVE SMOOTH",
"1011 1320 OFFCURVE",
"964 1320 QCURVE SMOOTH",
"917 1320 OFFCURVE",
"780 1410 QCURVE SMOOTH",
"642 1500 OFFCURVE",
"554 1500 QCURVE SMOOTH",
"465 1500 OFFCURVE",
"150 1260 QCURVE",
"150 1014 LINE",
"178 1018 OFFCURVE",
"206 1018 QCURVE SMOOTH",
"288 1018 OFFCURVE",
"368 981 QCURVE",
"552 1047 LINE"
);
}
);
width = 1800;
}
);
note = uni1782;
unicode = 1782;
},
{
glyphname = uni1783;
layers = (
{
layerId = "B1070C97-2DE4-4FC8-9990-FF316D9539D4";
paths = (
{
closed = 1;
nodes = (
"1650 601 QCURVE SMOOTH",
"1650 850 OFFCURVE",
"1493 965 QCURVE SMOOTH",
"1400 1033 OFFCURVE",
"1274 1033 QCURVE SMOOTH",
"1186 1033 OFFCURVE",
"1081 1000 QCURVE",
"1111 1120 OFFCURVE",
"1185 1140 QCURVE SMOOTH",
"1211 1147 OFFCURVE",
"1238 1147 QCURVE SMOOTH",
"1284 1147 OFFCURVE",
"1329 1125 QCURVE SMOOTH",
"1399 1090 OFFCURVE",
"1482 1090 QCURVE SMOOTH",
"1483 1090 OFFCURVE",
"1485 1091 QCURVE",
"1569 1091 OFFCURVE",
"1648 1364 QCURVE",
"1557 1364 OFFCURVE",
"1310 1500 OFFCURVE",
"1274 1500 QCURVE SMOOTH",
"1238 1500 OFFCURVE",
"980 1300 OFFCURVE",
"980 1224 QCURVE SMOOTH",
"980 650 LINE",
"1153 700 OFFCURVE",
"1265 700 QCURVE SMOOTH",
"1332 700 OFFCURVE",
"1378 683 QCURVE SMOOTH",
"1500 635 OFFCURVE",
"1500 580 QCURVE SMOOTH",
"1500 440 OFFCURVE",
"1255 320 OFFCURVE",
"1050 320 QCURVE SMOOTH",
"859 320 OFFCURVE",
"629 390 OFFCURVE",
"610 440 QCURVE",
"741 611 OFFCURVE",
"840 961 OFFCURVE",
"840 1068 QCURVE SMOOTH",
"840 1284 OFFCURVE",
"666 1500 OFFCURVE",
"481 1500 QCURVE SMOOTH",
"350 1500 OFFCURVE",
"250 1385 QCURVE SMOOTH",
"150 1270 OFFCURVE",
"150 1070 QCURVE SMOOTH",
"150 875 OFFCURVE",
"308 700 OFFCURVE",
"403 700 QCURVE SMOOTH",
"498 700 OFFCURVE",
"564 780 QCURVE SMOOTH",
"612 839 OFFCURVE",
"612 913 QCURVE SMOOTH",
"612 940 OFFCURVE",
"606 970 QCURVE SMOOTH",
"582 1079 OFFCURVE",
"500 1130 QCURVE",
"450 1080 OFFCURVE",
"381 1080 QCURVE SMOOTH",
"301 1080 OFFCURVE",
"301 1155 QCURVE SMOOTH",
"301 1230 OFFCURVE",
"450 1230 QCURVE SMOOTH",
"545 1230 OFFCURVE",
"680 1044 OFFCURVE",
"680 938 QCURVE SMOOTH",
"680 904 OFFCURVE",
"622 712 OFFCURVE",
"390 550 OFFCURVE",
"150 550 QCURVE",
"170 275 OFFCURVE",
"540 0 OFFCURVE",
"910 0 QCURVE SMOOTH",
"1135 0 OFFCURVE",
"1299 80 QCURVE",
"1485 0 OFFCURVE",
"1730 0 QCURVE SMOOTH",
"2050 0 OFFCURVE",
"2450 366 OFFCURVE",
"2450 601 QCURVE SMOOTH",
"2450 850 OFFCURVE",
"2293 965 QCURVE SMOOTH",
"2200 1033 OFFCURVE",
"2074 1033 QCURVE SMOOTH",
"1986 1033 OFFCURVE",
"1881 1000 QCURVE",
"1911 1120 OFFCURVE",
"1985 1140 QCURVE SMOOTH",
"2011 1147 OFFCURVE",
"2038 1147 QCURVE SMOOTH",
"2084 1147 OFFCURVE",
"2129 1125 QCURVE SMOOTH",
"2199 1090 OFFCURVE",
"2282 1090 QCURVE SMOOTH",
"2283 1090 OFFCURVE",
"2285 1091 QCURVE",
"2369 1091 OFFCURVE",
"2448 1364 QCURVE",
"2357 1364 OFFCURVE",
"2110 1500 OFFCURVE",
"2074 1500 QCURVE SMOOTH",
"2038 1500 OFFCURVE",
"1780 1300 OFFCURVE",
"1780 1224 QCURVE SMOOTH",
"1780 650 LINE",
"1953 700 OFFCURVE",
"2065 700 QCURVE SMOOTH",
"2132 700 OFFCURVE",
"2178 683 QCURVE SMOOTH",
"2300 635 OFFCURVE",
"2300 580 QCURVE SMOOTH",
"2300 440 OFFCURVE",
"2055 320 OFFCURVE",
"1850 320 QCURVE SMOOTH",
"1689 320 OFFCURVE",
"1582 345 QCURVE",
"1650 464 OFFCURVE"
);
}
);
width = 2600;
}
);
note = uni1783;
unicode = 1783;
},
{
glyphname = uni1784;
layers = (
{
layerId = "B1070C97-2DE4-4FC8-9990-FF316D9539D4";
paths = (
{
closed = 1;
nodes = (
"662 1190 OFFCURVE",
"953 1190 QCURVE SMOOTH",
"1177 1190 OFFCURVE",
"1501 1052 OFFCURVE",
"1501 955 QCURVE SMOOTH",
"1501 902 OFFCURVE",
"1418 902 QCURVE SMOOTH",
"1412 902 LINE SMOOTH",
"1330 904 OFFCURVE",
"1330 967 QCURVE SMOOTH",
"1330 974 OFFCURVE",
"1331 981 QCURVE",
"1282 1050 OFFCURVE",
"1155 1050 QCURVE SMOOTH",
"1151 1050 LINE SMOOTH",
"960 1050 OFFCURVE",
"960 845 QCURVE SMOOTH",
"960 640 OFFCURVE",
"1264 640 QCURVE SMOOTH",
"1452 640 OFFCURVE",
"1650 866 OFFCURVE",
"1650 1008 QCURVE SMOOTH",
"1650 1190 OFFCURVE",
"1240 1500 OFFCURVE",
"949 1500 QCURVE SMOOTH",
"629 1500 OFFCURVE",
"240 1260 OFFCURVE",
"150 1116 QCURVE",
"150 650 LINE",
"312 700 OFFCURVE",
"481 710 QCURVE SMOOTH",
"503 711 OFFCURVE",
"522 711 QCURVE SMOOTH",
"650 711 OFFCURVE",
"650 653 QCURVE SMOOTH",
"650 585 OFFCURVE",
"520 543 QCURVE SMOOTH",
"390 500 OFFCURVE",
"150 500 QCURVE",
"170 275 OFFCURVE",
"540 0 OFFCURVE",
"910 0 QCURVE SMOOTH",
"1250 0 OFFCURVE",
"1650 366 OFFCURVE",
"1650 691 QCURVE",
"1543 517 OFFCURVE",
"1255 320 OFFCURVE",
"1050 320 QCURVE SMOOTH",
"859 320 OFFCURVE",
"629 390 OFFCURVE",
"610 440 QCURVE",
"810 570 OFFCURVE",
"810 718 QCURVE SMOOTH",
"810 926 OFFCURVE",
"656 993 QCURVE SMOOTH",
"558 1035 OFFCURVE",
"442 1035 QCURVE SMOOTH",
"375 1035 OFFCURVE",
"302 1021 QCURVE",
"395 1083 OFFCURVE"
);
}
);
width = 1800;
}
);
note = uni1784;
unicode = 1784;
},
{
glyphname = uni1785;
layers = (
{
layerId = "B1070C97-2DE4-4FC8-9990-FF316D9539D4";
paths = (
{
closed = 1;
nodes = (
"349 1136 QCURVE SMOOTH",
"416 1182 OFFCURVE",
"474 1182 QCURVE SMOOTH",
"512 1182 OFFCURVE",
"708 1064 OFFCURVE",
"770 1064 QCURVE SMOOTH",
"831 1064 OFFCURVE",
"1021 1200 OFFCURVE",
"1060 1200 QCURVE SMOOTH",
"1099 1200 OFFCURVE",
"1368 1080 OFFCURVE",
"1472 1080 QCURVE SMOOTH",
"1595 1080 OFFCURVE",
"1700 1350 QCURVE",
"1585 1350 OFFCURVE",
"1451 1425 QCURVE SMOOTH",
"1316 1500 OFFCURVE",
"1254 1500 QCURVE SMOOTH",
"1192 1500 OFFCURVE",
"1088 1410 QCURVE SMOOTH",
"983 1320 OFFCURVE",
"937 1320 QCURVE SMOOTH",
"891 1320 OFFCURVE",
"758 1410 QCURVE SMOOTH",
"625 1500 OFFCURVE",
"539 1500 QCURVE SMOOTH",
"453 1500 OFFCURVE",
"150 1260 QCURVE",
"150 650 LINE",
"312 720 OFFCURVE",
"481 730 QCURVE SMOOTH",
"503 731 OFFCURVE",
"522 731 QCURVE SMOOTH",
"650 731 OFFCURVE",
"650 673 QCURVE SMOOTH",
"650 605 OFFCURVE",
"390 500 OFFCURVE",
"150 500 QCURVE",
"170 275 OFFCURVE",
"540 0 OFFCURVE",
"910 0 QCURVE SMOOTH",
"1250 0 OFFCURVE",
"1650 366 OFFCURVE",
"1650 650 QCURVE SMOOTH",
"1650 1000 OFFCURVE",
"1250 1000 QCURVE SMOOTH",
"1186 1000 OFFCURVE",
"1066 948 OFFCURVE",
"998 850 OFFCURVE",
"998 797 QCURVE SMOOTH",
"998 745 OFFCURVE",
"1064 648 OFFCURVE",
"1185 595 OFFCURVE",
"1250 595 QCURVE SMOOTH",
"1315 595 OFFCURVE",
"1436 648 OFFCURVE",
"1469 697 QCURVE SMOOTH",
"1483 717 OFFCURVE",
"1491 737 QCURVE",
"1500 698 OFFCURVE",
"1500 650 QCURVE SMOOTH",
"1500 497 OFFCURVE",
"1255 320 OFFCURVE",
"1050 320 QCURVE SMOOTH",
"859 320 OFFCURVE",
"629 390 OFFCURVE",
"610 440 QCURVE",
"810 570 OFFCURVE",
"810 718 QCURVE SMOOTH",
"810 926 OFFCURVE",
"656 1013 QCURVE SMOOTH",
"575 1058 OFFCURVE",
"457 1058 QCURVE SMOOTH",
"367 1058 OFFCURVE",
"256 1032 QCURVE",
"300 1102 OFFCURVE"
);
}
);
width = 1800;
}
);
note = uni1785;
unicode = 1785;
},
{
glyphname = uni1786;
layers = (
{
layerId = "B1070C97-2DE4-4FC8-9990-FF316D9539D4";
paths = (
{
closed = 1;
nodes = (
"619 356 QCURVE SMOOTH",
"587 356 OFFCURVE",
"567 390 QCURVE SMOOTH",
"557 406 OFFCURVE",
"557 418 QCURVE SMOOTH",
"557 430 OFFCURVE",
"569 437 QCURVE SMOOTH",
"591 450 OFFCURVE",
"650 450 QCURVE",
"650 400 LINE SMOOTH",
"650 356 OFFCURVE"
);
},
{
closed = 1;
nodes = (
"864 322 QCURVE",
"900 0 OFFCURVE",
"1215 0 QCURVE SMOOTH",
"1390 0 OFFCURVE",
"1650 326 OFFCURVE",
"1650 650 QCURVE SMOOTH",
"1650 1000 OFFCURVE",
"1250 1000 QCURVE SMOOTH",
"1186 1000 OFFCURVE",
"1066 948 OFFCURVE",
"998 850 OFFCURVE",
"998 797 QCURVE SMOOTH",
"998 745 OFFCURVE",
"1064 648 OFFCURVE",
"1185 595 OFFCURVE",
"1250 595 QCURVE SMOOTH",
"1315 595 OFFCURVE",
"1436 648 OFFCURVE",
"1469 697 QCURVE SMOOTH",
"1483 717 OFFCURVE",
"1491 737 QCURVE",
"1500 698 OFFCURVE",
"1500 650 QCURVE SMOOTH",
"1500 500 OFFCURVE",
"1365 320 OFFCURVE",
"1198 320 QCURVE SMOOTH",
"1060 320 OFFCURVE",
"1020 408 QCURVE SMOOTH",
"979 495 OFFCURVE",
"910 548 QCURVE SMOOTH",
"840 600 OFFCURVE",
"750 600 QCURVE",
"750 850 LINE",
"701 951 OFFCURVE",
"563 1003 QCURVE SMOOTH",
"467 1039 OFFCURVE",
"357 1039 QCURVE SMOOTH",
"308 1039 OFFCURVE",
"256 1032 QCURVE",
"300 1102 OFFCURVE",
"349 1136 QCURVE SMOOTH",
"416 1182 OFFCURVE",
"474 1182 QCURVE SMOOTH",
"512 1182 OFFCURVE",
"708 1064 OFFCURVE",
"770 1064 QCURVE SMOOTH",
"831 1064 OFFCURVE",
"1021 1200 OFFCURVE",
"1060 1200 QCURVE SMOOTH",
"1099 1200 OFFCURVE",
"1368 1080 OFFCURVE",
"1472 1080 QCURVE SMOOTH",
"1595 1080 OFFCURVE",
"1700 1350 QCURVE",
"1585 1350 OFFCURVE",
"1451 1425 QCURVE SMOOTH",
"1316 1500 OFFCURVE",
"1254 1500 QCURVE SMOOTH",
"1192 1500 OFFCURVE",
"1088 1410 QCURVE SMOOTH",
"983 1320 OFFCURVE",
"937 1320 QCURVE SMOOTH",
"891 1320 OFFCURVE",
"758 1410 QCURVE SMOOTH",
"625 1500 OFFCURVE",
"539 1500 QCURVE SMOOTH",
"453 1500 OFFCURVE",
"150 1260 QCURVE",
"150 650 LINE",
"265 703 OFFCURVE",
"375 703 QCURVE SMOOTH",
"423 703 OFFCURVE",
"470 693 QCURVE SMOOTH",
"622 659 OFFCURVE",
"622 602 QCURVE SMOOTH",
"622 600 LINE",
"485 600 LINE SMOOTH",
"298 600 OFFCURVE",
"150 450 QCURVE",
"150 307 OFFCURVE",
"270 154 QCURVE SMOOTH",
"389 0 OFFCURVE",
"550 0 QCURVE SMOOTH",
"630 0 OFFCURVE",
"750 140 QCURVE",
"750 450 LINE",
"830 450 OFFCURVE"
);
}
);
width = 1800;
}
);
note = uni1786;
unicode = 1786;
},
{
glyphname = uni1787;
layers = (
{
layerId = "B1070C97-2DE4-4FC8-9990-FF316D9539D4";
paths = (
{
closed = 1;
nodes = (
"545 1159 QCURVE SMOOTH",
"680 1159 OFFCURVE",
"1011 969 OFFCURVE",
"1176 969 QCURVE SMOOTH",
"1333 969 OFFCURVE",
"1650 1249 OFFCURVE",
"1650 1394 QCURVE SMOOTH",
"1650 1539 OFFCURVE",
"1440 1699 OFFCURVE",
"1316 1699 QCURVE SMOOTH",
"1191 1699 OFFCURVE",
"1141 1597 QCURVE SMOOTH",
"1128 1571 OFFCURVE",
"1128 1549 QCURVE SMOOTH",
"1128 1478 OFFCURVE",
"1246 1427 QCURVE SMOOTH",
"1401 1360 OFFCURVE",
"1401 1280 QCURVE SMOOTH",
"1401 1199 OFFCURVE",
"1339 1199 QCURVE SMOOTH",
"1267 1199 OFFCURVE",
"851 1499 OFFCURVE",
"699 1500 QCURVE SMOOTH",
"546 1500 OFFCURVE",
"224 1304 OFFCURVE",
"150 1170 QCURVE",
"150 650 LINE",
"302 725 OFFCURVE",
"461 725 QCURVE SMOOTH",
"481 725 LINE SMOOTH",
"650 720 OFFCURVE",
"650 653 QCURVE SMOOTH",
"650 585 OFFCURVE",
"390 500 OFFCURVE",
"150 500 QCURVE",
"170 275 OFFCURVE",
"540 0 OFFCURVE",
"910 0 QCURVE SMOOTH",
"1250 0 OFFCURVE",
"1650 366 OFFCURVE",
"1650 761 QCURVE",
"1543 517 OFFCURVE",
"1255 320 OFFCURVE",
"1050 320 QCURVE SMOOTH",
"859 320 OFFCURVE",
"629 390 OFFCURVE",
"610 440 QCURVE",
"810 570 OFFCURVE",
"810 718 QCURVE SMOOTH",
"810 926 OFFCURVE",
"656 1003 QCURVE SMOOTH",
"568 1047 OFFCURVE",
"453 1047 QCURVE SMOOTH",
"366 1047 OFFCURVE",
"262 1021 QCURVE",
"370 1159 OFFCURVE"
);
}
);
width = 1800;
}
);
note = uni1787;
unicode = 1787;
},
{
glyphname = uni1788;
layers = (
{
layerId = "B1070C97-2DE4-4FC8-9990-FF316D9539D4";
paths = (
{
closed = 1;
nodes = (
"789 1190 OFFCURVE",
"903 1107 QCURVE SMOOTH",
"1017 1023 OFFCURVE",
"1098 877 QCURVE",
"777 413 LINE",
"860 207 OFFCURVE",
"1210 0 OFFCURVE",
"1440 0 QCURVE SMOOTH",
"1665 0 OFFCURVE",
"1829 80 QCURVE",
"2015 0 OFFCURVE",
"2260 0 QCURVE SMOOTH",
"2580 0 OFFCURVE",
"2980 366 OFFCURVE",
"2980 601 QCURVE SMOOTH",
"2980 850 OFFCURVE",
"2823 965 QCURVE SMOOTH",
"2730 1033 OFFCURVE",
"2604 1033 QCURVE SMOOTH",
"2516 1033 OFFCURVE",
"2411 1000 QCURVE",
"2441 1120 OFFCURVE",
"2515 1140 QCURVE SMOOTH",
"2541 1147 OFFCURVE",
"2568 1147 QCURVE SMOOTH",
"2614 1147 OFFCURVE",
"2659 1125 QCURVE SMOOTH",
"2729 1090 OFFCURVE",
"2812 1090 QCURVE SMOOTH",
"2813 1090 OFFCURVE",
"2815 1091 QCURVE",
"2899 1091 OFFCURVE",
"2978 1364 QCURVE",
"2887 1364 OFFCURVE",
"2640 1500 OFFCURVE",
"2604 1500 QCURVE SMOOTH",
"2568 1500 OFFCURVE",
"2310 1300 OFFCURVE",
"2310 1224 QCURVE SMOOTH",
"2310 650 LINE",
"2483 700 OFFCURVE",
"2595 700 QCURVE SMOOTH",
"2662 700 OFFCURVE",
"2708 683 QCURVE SMOOTH",
"2830 635 OFFCURVE",
"2830 580 QCURVE SMOOTH",
"2830 440 OFFCURVE",
"2585 320 OFFCURVE",
"2380 320 QCURVE SMOOTH",
"2219 320 OFFCURVE",
"2112 345 QCURVE",
"2180 464 OFFCURVE",
"2180 601 QCURVE SMOOTH",
"2180 850 OFFCURVE",
"2023 965 QCURVE SMOOTH",
"1930 1033 OFFCURVE",
"1804 1033 QCURVE SMOOTH",
"1716 1033 OFFCURVE",
"1611 1000 QCURVE",
"1641 1120 OFFCURVE",
"1715 1140 QCURVE SMOOTH",
"1741 1147 OFFCURVE",
"1768 1147 QCURVE SMOOTH",
"1814 1147 OFFCURVE",
"1859 1125 QCURVE SMOOTH",
"1929 1090 OFFCURVE",
"2012 1090 QCURVE SMOOTH",
"2013 1090 OFFCURVE",
"2015 1091 QCURVE",
"2099 1091 OFFCURVE",
"2178 1364 QCURVE",
"2087 1364 OFFCURVE",
"1840 1500 OFFCURVE",
"1804 1500 QCURVE SMOOTH",
"1768 1500 OFFCURVE",
"1510 1300 OFFCURVE",
"1510 1224 QCURVE SMOOTH",
"1510 650 LINE",
"1683 700 OFFCURVE",
"1795 700 QCURVE SMOOTH",
"1862 700 OFFCURVE",
"1908 683 QCURVE SMOOTH",
"2030 635 OFFCURVE",
"2030 580 QCURVE SMOOTH",
"2030 440 OFFCURVE",
"1785 320 OFFCURVE",
"1580 320 QCURVE SMOOTH",
"1389 320 OFFCURVE",
"1174 459 OFFCURVE",
"1121 603 QCURVE",
"1393 1067 LINE",
"1340 1175 LINE SMOOTH",
"1287 1282 OFFCURVE",
"961 1500 OFFCURVE",
"722 1500 QCURVE SMOOTH",
"483 1500 OFFCURVE",
"220 1260 OFFCURVE",
"150 1116 QCURVE",
"150 670 LINE",
"213 728 OFFCURVE",
"324 728 QCURVE SMOOTH",
"434 728 OFFCURVE",
"450 616 QCURVE",
"254 543 OFFCURVE",
"202 457 QCURVE SMOOTH",
"150 370 OFFCURVE",
"150 280 QCURVE SMOOTH",
"150 0 OFFCURVE",
"425 0 QCURVE SMOOTH",
"700 0 OFFCURVE",
"700 270 QCURVE SMOOTH",
"700 430 OFFCURVE",
"557 430 QCURVE SMOOTH",
"503 430 OFFCURVE",
"465 364 QCURVE SMOOTH",
"439 319 OFFCURVE",
"413 319 QCURVE SMOOTH",
"399 319 OFFCURVE",
"386 330 QCURVE SMOOTH",
"378 336 OFFCURVE",
"378 346 QCURVE SMOOTH",
"378 388 OFFCURVE",
"516 496 QCURVE SMOOTH",
"650 600 OFFCURVE",
"650 718 QCURVE SMOOTH",
"650 926 OFFCURVE",
"537 993 QCURVE SMOOTH",
"465 1035 OFFCURVE",
"377 1035 QCURVE SMOOTH",
"325 1035 OFFCURVE",
"268 1021 QCURVE",
"341 1083 OFFCURVE",
"425 1137 QCURVE SMOOTH",
"508 1190 OFFCURVE",
"649 1190 QCURVE SMOOTH"
);
}
);
width = 3130;
}
);
note = uni1788;
unicode = 1788;
},
{
glyphname = uni1789;
layers = (
{
layerId = "B1070C97-2DE4-4FC8-9990-FF316D9539D4";
paths = (
{
closed = 1;
nodes = (
"2074 -50 QCURVE SMOOTH",
"1798 -50 OFFCURVE",
"1798 -250 QCURVE SMOOTH",
"1798 -400 OFFCURVE",
"1963 -400 QCURVE SMOOTH",
"2074 -400 OFFCURVE",
"2074 -250 QCURVE",
"2019 -250 OFFCURVE",
"2019 -200 QCURVE SMOOTH",
"2019 -150 OFFCURVE",
"2074 -150 QCURVE SMOOTH",
"2184 -150 OFFCURVE",
"2184 -300 QCURVE SMOOTH",
"2184 -550 OFFCURVE",
"1908 -550 QCURVE SMOOTH",
"1747 -550 OFFCURVE",
"1468 -400 QCURVE SMOOTH",
"1190 -250 OFFCURVE",
"803 -250 QCURVE SMOOTH",
"251 -250 OFFCURVE",
"251 -550 QCURVE",
"371 -400 OFFCURVE",
"693 -400 QCURVE SMOOTH",
"877 -400 OFFCURVE",
"1040 -450 QCURVE",
"1411 -607 OFFCURVE",
"1577 -628 QCURVE SMOOTH",
"1660 -639 OFFCURVE",
"1824 -650 OFFCURVE",
"1908 -650 QCURVE SMOOTH",
"2350 -650 OFFCURVE",
"2350 -300 QCURVE SMOOTH",
"2350 -50 OFFCURVE"
);
},
{
closed = 1;
nodes = (
"1467 440 QCURVE SMOOTH",
"1457 456 OFFCURVE",
"1457 469 QCURVE SMOOTH",
"1457 483 OFFCURVE",
"1469 493 QCURVE SMOOTH",
"1491 512 OFFCURVE",
"1550 567 QCURVE",
"1550 450 LINE SMOOTH",
"1550 406 OFFCURVE",
"1519 406 QCURVE SMOOTH",
"1487 406 OFFCURVE"
);
},
{
closed = 1;
nodes = (
"2317 440 QCURVE SMOOTH",
"2307 456 OFFCURVE",
"2307 469 QCURVE SMOOTH",
"2307 483 OFFCURVE",
"2319 493 QCURVE SMOOTH",
"2341 512 OFFCURVE",
"2400 567 QCURVE",
"2400 450 LINE SMOOTH",
"2400 406 OFFCURVE",
"2369 406 QCURVE SMOOTH",
"2337 406 OFFCURVE"
);
},
{
closed = 1;
nodes = (
"1892 1140 QCURVE SMOOTH",
"2035 1140 OFFCURVE",
"2218 1022 QCURVE SMOOTH",
"2400 904 OFFCURVE",
"2400 793 QCURVE SMOOTH",
"2400 629 OFFCURVE",
"2150 560 QCURVE SMOOTH",
"1900 491 OFFCURVE",
"1900 420 QCURVE SMOOTH",
"1900 307 OFFCURVE",
"2020 154 QCURVE SMOOTH",
"2139 0 OFFCURVE",
"2300 0 QCURVE SMOOTH",
"2380 0 OFFCURVE",
"2440 70 QCURVE SMOOTH",
"2500 140 OFFCURVE",
"2500 200 QCURVE SMOOTH",
"2500 1150 LINE SMOOTH",
"2500 1254 OFFCURVE",
"2140 1500 OFFCURVE",
"1975 1500 QCURVE SMOOTH",
"1870 1500 OFFCURVE",
"1744 1343 QCURVE SMOOTH",
"1685 1270 OFFCURVE",
"1649 1189 QCURVE",
"1636 1284 OFFCURVE",
"1500 1387 QCURVE SMOOTH",
"1350 1500 OFFCURVE",
"1205 1500 QCURVE SMOOTH",
"1100 1500 OFFCURVE",
"970 1305 QCURVE",
"888 1386 OFFCURVE",
"697 1500 OFFCURVE",
"588 1500 QCURVE SMOOTH",
"419 1500 OFFCURVE",
"285 1305 QCURVE SMOOTH",
"150 1110 OFFCURVE",
"150 750 QCURVE SMOOTH",
"150 0 OFFCURVE",
"531 0 QCURVE SMOOTH",
"800 0 OFFCURVE",
"800 558 QCURVE SMOOTH",
"800 903 OFFCURVE",
"577 903 QCURVE SMOOTH",
"375 903 OFFCURVE",
"375 665 QCURVE SMOOTH",
"375 487 OFFCURVE",
"517 487 QCURVE SMOOTH",
"593 487 OFFCURVE",
"620 518 QCURVE SMOOTH",
"634 535 OFFCURVE",
"650 535 QCURVE SMOOTH",
"661 535 OFFCURVE",
"673 525 QCURVE SMOOTH",
"700 501 OFFCURVE",
"700 461 QCURVE SMOOTH",
"700 392 OFFCURVE",
"550 377 QCURVE SMOOTH",
"532 375 OFFCURVE",
"514 375 QCURVE SMOOTH",
"393 375 OFFCURVE",
"340 469 QCURVE SMOOTH",
"280 576 OFFCURVE",
"280 750 QCURVE SMOOTH",
"280 920 OFFCURVE",
"365 1030 QCURVE SMOOTH",
"450 1139 OFFCURVE",
"559 1140 QCURVE SMOOTH",
"708 1140 OFFCURVE",
"890 1027 QCURVE",
"1008 1140 OFFCURVE",
"1122 1140 QCURVE SMOOTH",
"1235 1140 OFFCURVE",
"1393 1022 QCURVE SMOOTH",
"1550 904 OFFCURVE",
"1550 793 QCURVE SMOOTH",
"1550 629 OFFCURVE",
"1300 560 QCURVE SMOOTH",
"1050 491 OFFCURVE",
"1050 420 QCURVE SMOOTH",
"1050 307 OFFCURVE",
"1170 154 QCURVE SMOOTH",
"1289 0 OFFCURVE",
"1450 0 QCURVE SMOOTH",
"1530 0 OFFCURVE",
"1590 70 QCURVE SMOOTH",
"1650 140 OFFCURVE",
"1650 200 QCURVE SMOOTH",
"1650 1035 LINE",
"1795 1140 OFFCURVE"
);
}
);
width = 2650;
}
);
note = uni1789;
unicode = 1789;
},
{
glyphname = uni178A;
layers = (
{
layerId = "B1070C97-2DE4-4FC8-9990-FF316D9539D4";
paths = (
{
closed = 1;
nodes = (
"545 1159 QCURVE SMOOTH",
"680 1159 OFFCURVE",
"1011 969 OFFCURVE",
"1176 969 QCURVE SMOOTH",
"1333 969 OFFCURVE",
"1650 1249 OFFCURVE",
"1650 1394 QCURVE SMOOTH",
"1650 1539 OFFCURVE",
"1440 1699 OFFCURVE",
"1316 1699 QCURVE SMOOTH",
"1191 1699 OFFCURVE",
"1141 1597 QCURVE SMOOTH",
"1128 1571 OFFCURVE",
"1128 1549 QCURVE SMOOTH",
"1128 1478 OFFCURVE",
"1246 1427 QCURVE SMOOTH",
"1401 1360 OFFCURVE",
"1401 1280 QCURVE SMOOTH",
"1401 1199 OFFCURVE",
"1339 1199 QCURVE SMOOTH",
"1267 1199 OFFCURVE",
"851 1499 OFFCURVE",
"699 1500 QCURVE SMOOTH",
"546 1500 OFFCURVE",
"224 1304 OFFCURVE",
"150 1170 QCURVE",
"150 650 LINE",
"302 725 OFFCURVE",
"461 725 QCURVE SMOOTH",
"481 725 LINE SMOOTH",
"650 720 OFFCURVE",
"650 653 QCURVE SMOOTH",
"650 585 OFFCURVE",
"390 500 OFFCURVE",
"150 500 QCURVE",
"170 275 OFFCURVE",
"450 0 OFFCURVE",
"593 0 QCURVE SMOOTH",
"735 0 OFFCURVE",
"916 167 QCURVE",
"1110 0 OFFCURVE",
"1260 0 QCURVE SMOOTH",
"1410 0 OFFCURVE",
"1650 366 OFFCURVE",
"1650 761 QCURVE",
"1543 517 OFFCURVE",
"1325 360 OFFCURVE",
"1249 360 QCURVE SMOOTH",
"1173 360 OFFCURVE",
"1063 518 QCURVE",
"905 340 OFFCURVE",
"822 340 QCURVE SMOOTH",
"739 340 OFFCURVE",
"629 390 OFFCURVE",
"610 440 QCURVE",
"810 570 OFFCURVE",
"810 718 QCURVE SMOOTH",
"810 926 OFFCURVE",
"656 1003 QCURVE SMOOTH",
"568 1047 OFFCURVE",
"453 1047 QCURVE SMOOTH",
"366 1047 OFFCURVE",
"262 1021 QCURVE",
"370 1159 OFFCURVE"
);
}
);
width = 1800;
}
);
note = uni178A;
unicode = 178A;
},
{
glyphname = uni178B;
layers = (
{
layerId = "B1070C97-2DE4-4FC8-9990-FF316D9539D4";
paths = (
{
closed = 1;
nodes = (
"1650 366 OFFCURVE",
"1650 601 QCURVE SMOOTH",
"1650 850 OFFCURVE",
"1493 965 QCURVE SMOOTH",
"1400 1033 OFFCURVE",
"1274 1033 QCURVE SMOOTH",
"1186 1033 OFFCURVE",
"1081 1000 QCURVE",
"1111 1120 OFFCURVE",
"1185 1140 QCURVE SMOOTH",
"1211 1147 OFFCURVE",
"1238 1147 QCURVE SMOOTH",
"1284 1147 OFFCURVE",
"1329 1125 QCURVE SMOOTH",
"1399 1090 OFFCURVE",
"1482 1090 QCURVE SMOOTH",
"1483 1090 OFFCURVE",
"1485 1091 QCURVE",
"1569 1091 OFFCURVE",
"1650 1310 OFFCURVE",
"1650 1484 QCURVE SMOOTH",
"1650 1729 OFFCURVE",
"1440 1889 OFFCURVE",
"1316 1889 QCURVE SMOOTH",
"1191 1889 OFFCURVE",
"1168 1765 QCURVE SMOOTH",
"1164 1747 OFFCURVE",
"1164 1731 QCURVE SMOOTH",
"1164 1632 OFFCURVE",
"1287 1583 QCURVE",
"1340 1594 OFFCURVE",
"1379 1594 QCURVE SMOOTH",
"1500 1594 OFFCURVE",
"1500 1489 QCURVE SMOOTH",
"1500 1447 OFFCURVE",
"1467 1433 QCURVE SMOOTH",
"1458 1429 OFFCURVE",
"1447 1429 QCURVE SMOOTH",
"1417 1429 OFFCURVE",
"1372 1459 QCURVE SMOOTH",
"1310 1500 OFFCURVE",
"1274 1500 QCURVE SMOOTH",
"1238 1500 OFFCURVE",
"980 1300 OFFCURVE",
"980 1224 QCURVE SMOOTH",
"980 650 LINE",
"1153 700 OFFCURVE",
"1265 700 QCURVE SMOOTH",
"1332 700 OFFCURVE",
"1378 683 QCURVE SMOOTH",
"1500 635 OFFCURVE",
"1500 580 QCURVE SMOOTH",
"1500 440 OFFCURVE",
"1255 320 OFFCURVE",
"1050 320 QCURVE SMOOTH",
"859 320 OFFCURVE",
"629 390 OFFCURVE",
"610 440 QCURVE",
"741 611 OFFCURVE",
"840 961 OFFCURVE",
"840 1068 QCURVE SMOOTH",
"840 1284 OFFCURVE",
"666 1500 OFFCURVE",
"481 1500 QCURVE SMOOTH",
"350 1500 OFFCURVE",
"250 1385 QCURVE SMOOTH",
"150 1270 OFFCURVE",
"150 1070 QCURVE SMOOTH",
"150 875 OFFCURVE",
"308 700 OFFCURVE",
"403 700 QCURVE SMOOTH",
"498 700 OFFCURVE",
"564 780 QCURVE SMOOTH",
"612 839 OFFCURVE",
"612 913 QCURVE SMOOTH",
"612 940 OFFCURVE",
"606 970 QCURVE SMOOTH",
"582 1079 OFFCURVE",
"500 1130 QCURVE",
"450 1080 OFFCURVE",
"381 1080 QCURVE SMOOTH",
"301 1080 OFFCURVE",
"301 1155 QCURVE SMOOTH",
"301 1230 OFFCURVE",
"450 1230 QCURVE SMOOTH",
"545 1230 OFFCURVE",
"680 1044 OFFCURVE",
"680 938 QCURVE SMOOTH",
"680 904 OFFCURVE",
"622 712 OFFCURVE",
"390 550 OFFCURVE",
"150 550 QCURVE",
"170 275 OFFCURVE",
"540 0 OFFCURVE",
"910 0 QCURVE SMOOTH",
"1250 0 OFFCURVE"
);
}
);
width = 1800;
}
);
note = uni178B;
unicode = 178B;
},
{
glyphname = uni178C;
layers = (
{
layerId = "B1070C97-2DE4-4FC8-9990-FF316D9539D4";
paths = (
{
closed = 1;
nodes = (
"150 550 QCURVE",
"150 428 LINE SMOOTH",
"150 305 OFFCURVE",
"350 152 QCURVE SMOOTH",
"550 0 OFFCURVE",
"800 0 QCURVE SMOOTH",
"1150 0 OFFCURVE",
"1310 294 QCURVE",
"1310 0 OFFCURVE",
"1260 0 QCURVE",
"1357 -25 OFFCURVE",
"1430 -25 QCURVE SMOOTH",
"1649 -25 OFFCURVE",
"1650 200 QCURVE SMOOTH",
"1650 630 LINE SMOOTH",
"1650 688 OFFCURVE",
"1572 688 QCURVE SMOOTH",
"1487 688 OFFCURVE",
"1310 620 QCURVE",
"1310 475 OFFCURVE",
"1102 310 OFFCURVE",
"890 310 QCURVE SMOOTH",
"779 310 OFFCURVE",
"659 380 OFFCURVE",
"640 430 QCURVE",
"950 530 OFFCURVE",
"1212 669 QCURVE SMOOTH",
"1475 808 OFFCURVE",
"1562 909 QCURVE SMOOTH",
"1650 1010 OFFCURVE",
"1650 1153 QCURVE SMOOTH",
"1650 1291 OFFCURVE",
"1374 1500 OFFCURVE",
"1241 1500 QCURVE SMOOTH",
"1107 1500 OFFCURVE",
"980 1343 QCURVE",
"852 1432 OFFCURVE",
"710 1500 OFFCURVE",
"619 1500 QCURVE SMOOTH",
"528 1500 OFFCURVE",
"150 1240 OFFCURVE",
"150 1051 QCURVE SMOOTH",
"150 896 OFFCURVE",
"229 798 QCURVE SMOOTH",
"308 700 OFFCURVE",
"451 700 QCURVE SMOOTH",
"790 700 OFFCURVE",
"790 889 QCURVE SMOOTH",
"790 1060 OFFCURVE",
"584 1060 QCURVE SMOOTH",
"438 1060 OFFCURVE",
"399 900 QCURVE",
"339 900 OFFCURVE",
"339 945 QCURVE SMOOTH",
"339 990 LINE SMOOTH",
"339 1180 OFFCURVE",
"494 1180 QCURVE SMOOTH",
"670 1180 OFFCURVE",
"883 1013 QCURVE",
"993 1180 OFFCURVE",
"1104 1180 QCURVE SMOOTH",
"1246 1180 OFFCURVE",
"1297 1056 QCURVE",
"1297 943 OFFCURVE",
"600 580 OFFCURVE"
);
}
);
width = 1800;
}
);
note = uni178C;
unicode = 178C;
},
{
glyphname = uni178D;
layers = (
{
layerId = "B1070C97-2DE4-4FC8-9990-FF316D9539D4";
paths = (
{
closed = 1;
nodes = (
"1519 356 QCURVE SMOOTH",
"1487 356 OFFCURVE",
"1467 390 QCURVE SMOOTH",
"1457 406 OFFCURVE",
"1457 418 QCURVE SMOOTH",
"1457 430 OFFCURVE",
"1469 437 QCURVE SMOOTH",
"1491 450 OFFCURVE",
"1550 450 QCURVE",
"1550 400 LINE SMOOTH",
"1550 356 OFFCURVE"
);
},
{
closed = 1;
nodes = (
"577 903 QCURVE SMOOTH",
"375 903 OFFCURVE",
"375 665 QCURVE SMOOTH",
"375 487 OFFCURVE",
"517 487 QCURVE SMOOTH",
"593 487 OFFCURVE",
"620 518 QCURVE SMOOTH",
"634 535 OFFCURVE",
"650 535 QCURVE SMOOTH",
"661 535 OFFCURVE",
"673 525 QCURVE SMOOTH",
"700 501 OFFCURVE",
"700 461 QCURVE SMOOTH",
"700 392 OFFCURVE",
"550 377 QCURVE SMOOTH",
"532 375 OFFCURVE",
"514 375 QCURVE SMOOTH",
"393 375 OFFCURVE",
"340 469 QCURVE SMOOTH",
"280 576 OFFCURVE",
"280 750 QCURVE SMOOTH",
"280 920 OFFCURVE",
"365 1030 QCURVE SMOOTH",
"450 1139 OFFCURVE",
"559 1140 QCURVE SMOOTH",
"708 1140 OFFCURVE",
"890 1027 QCURVE",
"1008 1140 OFFCURVE",
"1122 1140 QCURVE SMOOTH",
"1235 1140 OFFCURVE",
"1550 904 OFFCURVE",
"1550 793 QCURVE SMOOTH",
"1550 600 LINE",
"1385 600 LINE SMOOTH",
"1198 600 OFFCURVE",
"1050 450 QCURVE",
"1050 307 OFFCURVE",
"1170 154 QCURVE SMOOTH",
"1289 0 OFFCURVE",
"1450 0 QCURVE SMOOTH",
"1530 0 OFFCURVE",
"1650 140 QCURVE",
"1650 450 LINE",
"1730 450 OFFCURVE",
"1764 322 QCURVE",
"1800 0 OFFCURVE",
"2115 0 QCURVE SMOOTH",
"2290 0 OFFCURVE",
"2550 326 OFFCURVE",
"2550 588 QCURVE SMOOTH",
"2550 850 OFFCURVE",
"2393 965 QCURVE SMOOTH",
"2300 1033 OFFCURVE",
"2174 1033 QCURVE SMOOTH",
"2086 1033 OFFCURVE",
"1981 1000 QCURVE",
"2011 1120 OFFCURVE",
"2085 1140 QCURVE SMOOTH",
"2111 1147 OFFCURVE",
"2138 1147 QCURVE SMOOTH",
"2184 1147 OFFCURVE",
"2229 1125 QCURVE SMOOTH",
"2299 1090 OFFCURVE",
"2382 1090 QCURVE SMOOTH",
"2383 1090 OFFCURVE",
"2385 1091 QCURVE",
"2469 1091 OFFCURVE",
"2548 1364 QCURVE",
"2457 1364 OFFCURVE",
"2210 1500 OFFCURVE",
"2174 1500 QCURVE SMOOTH",
"2138 1500 OFFCURVE",
"1880 1300 OFFCURVE",
"1880 1224 QCURVE SMOOTH",
"1880 650 LINE",
"2053 700 OFFCURVE",
"2166 700 QCURVE SMOOTH",
"2232 700 OFFCURVE",
"2278 683 QCURVE SMOOTH",
"2400 635 OFFCURVE",
"2400 568 QCURVE SMOOTH",
"2400 470 OFFCURVE",
"2328 395 QCURVE SMOOTH",
"2255 320 OFFCURVE",
"2098 320 QCURVE SMOOTH",
"1960 320 OFFCURVE",
"1920 408 QCURVE SMOOTH",
"1879 495 OFFCURVE",
"1810 548 QCURVE SMOOTH",
"1740 600 OFFCURVE",
"1650 600 QCURVE",
"1650 1170 LINE SMOOTH",
"1650 1274 OFFCURVE",
"1500 1387 QCURVE SMOOTH",
"1362 1491 OFFCURVE",
"1229 1491 QCURVE SMOOTH",
"1217 1491 OFFCURVE",
"1205 1490 QCURVE SMOOTH",
"1100 1480 OFFCURVE",
"970 1305 QCURVE",
"888 1386 OFFCURVE",
"697 1500 OFFCURVE",
"588 1500 QCURVE SMOOTH",
"419 1500 OFFCURVE",
"285 1305 QCURVE SMOOTH",
"150 1110 OFFCURVE",
"150 750 QCURVE SMOOTH",
"150 0 OFFCURVE",
"531 0 QCURVE SMOOTH",
"800 0 OFFCURVE",
"800 558 QCURVE SMOOTH",
"800 903 OFFCURVE"
);
}
);
width = 2700;
}
);
note = uni178D;
unicode = 178D;
},
{
glyphname = uni178E;
layers = (
{
layerId = "B1070C97-2DE4-4FC8-9990-FF316D9539D4";
paths = (
{
closed = 1;
nodes = (
"2837 456 OFFCURVE",
"2837 469 QCURVE SMOOTH",
"2837 483 OFFCURVE",
"2849 493 QCURVE SMOOTH",
"2871 512 OFFCURVE",
"2930 567 QCURVE",
"2930 450 LINE SMOOTH",
"2930 406 OFFCURVE",
"2899 406 QCURVE SMOOTH",
"2867 406 OFFCURVE",
"2847 440 QCURVE SMOOTH"
);
},
{
closed = 1;
nodes = (
"809 1190 OFFCURVE",
"1067 1063 OFFCURVE",
"1148 917 QCURVE",
"790 694 OFFCURVE",
"790 500 QCURVE",
"810 275 OFFCURVE",
"1080 0 OFFCURVE",
"1223 0 QCURVE SMOOTH",
"1345 0 OFFCURVE",
"1536 167 QCURVE",
"1690 0 OFFCURVE",
"1840 0 QCURVE SMOOTH",
"1990 0 OFFCURVE",
"2290 296 OFFCURVE",
"2290 601 QCURVE SMOOTH",
"2290 850 OFFCURVE",
"2153 965 QCURVE SMOOTH",
"2072 1033 OFFCURVE",
"1950 1033 QCURVE SMOOTH",
"1866 1033 OFFCURVE",
"1761 1000 QCURVE",
"1813 1100 OFFCURVE",
"1937 1145 QCURVE SMOOTH",
"2060 1190 OFFCURVE",
"2201 1190 QCURVE SMOOTH",
"2371 1190 OFFCURVE",
"2651 1047 QCURVE SMOOTH",
"2930 904 OFFCURVE",
"2930 793 QCURVE SMOOTH",
"2930 629 OFFCURVE",
"2680 560 QCURVE SMOOTH",
"2430 491 OFFCURVE",
"2430 420 QCURVE SMOOTH",
"2430 307 OFFCURVE",
"2550 154 QCURVE SMOOTH",
"2669 0 OFFCURVE",
"2830 0 QCURVE SMOOTH",
"2910 0 OFFCURVE",
"2970 70 QCURVE SMOOTH",
"3030 140 OFFCURVE",
"3030 200 QCURVE SMOOTH",
"3030 1170 LINE SMOOTH",
"3030 1274 OFFCURVE",
"2546 1500 OFFCURVE",
"2276 1500 QCURVE SMOOTH",
"2056 1500 OFFCURVE",
"1660 1250 OFFCURVE",
"1660 1174 QCURVE SMOOTH",
"1660 650 LINE",
"1833 700 OFFCURVE",
"1937 700 QCURVE SMOOTH",
"1999 700 OFFCURVE",
"2038 683 QCURVE SMOOTH",
"2140 635 OFFCURVE",
"2140 580 QCURVE SMOOTH",
"2140 477 OFFCURVE",
"1965 360 OFFCURVE",
"1869 360 QCURVE SMOOTH",
"1773 360 OFFCURVE",
"1663 518 QCURVE",
"1545 340 OFFCURVE",
"1452 340 QCURVE SMOOTH",
"1359 340 OFFCURVE",
"1193 425 OFFCURVE",
"1128 577 QCURVE",
"1128 703 OFFCURVE",
"1312 819 QCURVE SMOOTH",
"1495 935 OFFCURVE",
"1496 1021 QCURVE",
"1419 1260 OFFCURVE",
"981 1500 OFFCURVE",
"772 1500 QCURVE SMOOTH",
"513 1500 OFFCURVE",
"220 1260 OFFCURVE",
"150 1116 QCURVE",
"150 670 LINE",
"213 728 OFFCURVE",
"324 728 QCURVE SMOOTH",
"434 728 OFFCURVE",
"450 616 QCURVE",
"254 543 OFFCURVE",
"202 457 QCURVE SMOOTH",
"150 370 OFFCURVE",
"150 280 QCURVE SMOOTH",
"150 0 OFFCURVE",
"425 0 QCURVE SMOOTH",
"700 0 OFFCURVE",
"700 270 QCURVE SMOOTH",
"700 430 OFFCURVE",
"557 430 QCURVE SMOOTH",
"503 430 OFFCURVE",
"465 364 QCURVE SMOOTH",
"439 319 OFFCURVE",
"413 319 QCURVE SMOOTH",
"399 319 OFFCURVE",
"386 330 QCURVE SMOOTH",
"378 336 OFFCURVE",
"378 346 QCURVE SMOOTH",
"378 388 OFFCURVE",
"516 496 QCURVE SMOOTH",
"650 600 OFFCURVE",
"650 718 QCURVE SMOOTH",
"650 926 OFFCURVE",
"537 993 QCURVE SMOOTH",
"465 1035 OFFCURVE",
"377 1035 QCURVE SMOOTH",
"325 1035 OFFCURVE",
"268 1021 QCURVE",
"341 1083 OFFCURVE",
"425 1137 QCURVE SMOOTH",
"508 1190 OFFCURVE",
"669 1190 QCURVE SMOOTH"
);
}
);
width = 3180;
}
);
note = uni178E;
unicode = 178E;
},
{
glyphname = uni178F;
layers = (
{
layerId = "B1070C97-2DE4-4FC8-9990-FF316D9539D4";
paths = (
{
closed = 1;
nodes = (
"1457 456 OFFCURVE",
"1457 469 QCURVE SMOOTH",
"1457 483 OFFCURVE",
"1469 493 QCURVE SMOOTH",
"1491 512 OFFCURVE",
"1550 567 QCURVE",
"1550 450 LINE SMOOTH",
"1550 406 OFFCURVE",
"1519 406 QCURVE SMOOTH",
"1487 406 OFFCURVE",
"1467 440 QCURVE SMOOTH"
);
},
{
closed = 1;
nodes = (
"150 495 QCURVE SMOOTH",
"150 0 OFFCURVE",
"590 0 QCURVE SMOOTH",
"769 0 OFFCURVE",
"868 157 QCURVE SMOOTH",
"926 250 OFFCURVE",
"926 347 QCURVE SMOOTH",
"926 414 OFFCURVE",
"899 483 QCURVE SMOOTH",
"839 636 OFFCURVE",
"658 636 QCURVE SMOOTH",
"638 636 OFFCURVE",
"616 634 QCURVE SMOOTH",
"400 614 OFFCURVE",
"400 461 QCURVE SMOOTH",
"400 312 OFFCURVE",
"582 312 QCURVE SMOOTH",
"594 312 LINE",
"581 260 OFFCURVE",
"538 260 QCURVE SMOOTH",
"300 260 OFFCURVE",
"300 420 QCURVE SMOOTH",
"300 580 OFFCURVE",
"545 710 OFFCURVE",
"796 710 QCURVE SMOOTH",
"1046 710 OFFCURVE",
"1517 633 QCURVE",
"1258 470 OFFCURVE",
"1050 450 QCURVE",
"1050 307 OFFCURVE",
"1170 154 QCURVE SMOOTH",
"1289 0 OFFCURVE",
"1450 0 QCURVE SMOOTH",
"1530 0 OFFCURVE",
"1650 140 QCURVE",
"1650 980 LINE",
"1122 1060 OFFCURVE",
"845 1060 QCURVE SMOOTH",
"568 1060 OFFCURVE",
"150 810 OFFCURVE"
);
},
{
closed = 1;
nodes = (
"411 1186 OFFCURVE",
"307 1194 QCURVE",
"377 1232 OFFCURVE",
"417 1232 QCURVE SMOOTH",
"456 1232 OFFCURVE",
"728 1064 OFFCURVE",
"792 1064 QCURVE SMOOTH",
"855 1064 OFFCURVE",
"1050 1220 OFFCURVE",
"1091 1220 QCURVE SMOOTH",
"1131 1220 OFFCURVE",
"1408 1080 OFFCURVE",
"1515 1080 QCURVE SMOOTH",
"1642 1080 OFFCURVE",
"1750 1350 QCURVE",
"1632 1350 OFFCURVE",
"1493 1425 QCURVE SMOOTH",
"1354 1500 OFFCURVE",
"1291 1500 QCURVE SMOOTH",
"1227 1500 OFFCURVE",
"1119 1410 QCURVE SMOOTH",
"1011 1320 OFFCURVE",
"964 1320 QCURVE SMOOTH",
"917 1320 OFFCURVE",
"780 1410 QCURVE SMOOTH",
"642 1500 OFFCURVE",
"554 1500 QCURVE SMOOTH",
"465 1500 OFFCURVE",
"150 1260 QCURVE",
"150 1014 LINE",
"178 1018 OFFCURVE",
"206 1018 QCURVE SMOOTH",
"288 1018 OFFCURVE",
"368 981 QCURVE",
"552 1047 LINE"
);
}
);
width = 1800;
}
);
note = uni178F;
unicode = 178F;
},
{
glyphname = uni1790;
layers = (
{
layerId = "B1070C97-2DE4-4FC8-9990-FF316D9539D4";
paths = (
{
closed = 1;
nodes = (
"312 720 OFFCURVE",
"481 730 QCURVE SMOOTH",
"503 731 OFFCURVE",
"522 731 QCURVE SMOOTH",
"650 731 OFFCURVE",
"650 673 QCURVE SMOOTH",
"650 605 OFFCURVE",
"390 500 OFFCURVE",
"150 500 QCURVE",
"170 275 OFFCURVE",
"540 0 OFFCURVE",
"910 0 QCURVE SMOOTH",
"1250 0 OFFCURVE",
"1650 366 OFFCURVE",
"1650 600 QCURVE SMOOTH",
"1650 950 OFFCURVE",
"1250 950 QCURVE SMOOTH",
"1186 950 OFFCURVE",
"1066 898 OFFCURVE",
"998 800 OFFCURVE",
"998 747 QCURVE SMOOTH",
"998 695 OFFCURVE",
"1064 598 OFFCURVE",
"1185 545 OFFCURVE",
"1250 545 QCURVE SMOOTH",
"1315 545 OFFCURVE",
"1436 598 OFFCURVE",
"1469 647 QCURVE SMOOTH",
"1483 667 OFFCURVE",
"1491 687 QCURVE",
"1500 648 OFFCURVE",
"1500 600 QCURVE SMOOTH",
"1500 497 OFFCURVE",
"1255 320 OFFCURVE",
"1050 320 QCURVE SMOOTH",
"859 320 OFFCURVE",
"629 390 OFFCURVE",
"610 440 QCURVE",
"810 570 OFFCURVE",
"810 718 QCURVE SMOOTH",
"810 926 OFFCURVE",
"656 1013 QCURVE SMOOTH",
"575 1058 OFFCURVE",
"457 1058 QCURVE SMOOTH",
"375 1058 OFFCURVE",
"274 1036 QCURVE",
"380 1159 OFFCURVE",
"545 1159 QCURVE SMOOTH",
"680 1159 OFFCURVE",
"1011 1029 OFFCURVE",
"1176 1029 QCURVE SMOOTH",
"1333 1029 OFFCURVE",
"1650 1309 OFFCURVE",
"1650 1454 QCURVE SMOOTH",
"1650 1599 OFFCURVE",
"1440 1759 OFFCURVE",
"1316 1759 QCURVE SMOOTH",
"1191 1759 OFFCURVE",
"1141 1657 QCURVE SMOOTH",
"1128 1631 OFFCURVE",
"1128 1609 QCURVE SMOOTH",
"1128 1538 OFFCURVE",
"1246 1487 QCURVE SMOOTH",
"1401 1420 OFFCURVE",
"1401 1340 QCURVE SMOOTH",
"1401 1259 OFFCURVE",
"1339 1259 QCURVE SMOOTH",
"1267 1259 OFFCURVE",
"851 1499 OFFCURVE",
"699 1500 QCURVE SMOOTH",
"546 1500 OFFCURVE",
"224 1304 OFFCURVE",
"150 1170 QCURVE",
"150 650 LINE"
);
}
);
width = 1800;
}
);
note = uni1790;
unicode = 1790;
},
{
glyphname = uni1791;
layers = (
{
layerId = "B1070C97-2DE4-4FC8-9990-FF316D9539D4";
paths = (
{
closed = 1;
nodes = (
"810 540 OFFCURVE",
"810 718 QCURVE SMOOTH",
"810 926 OFFCURVE",
"656 993 QCURVE SMOOTH",
"558 1035 OFFCURVE",
"442 1035 QCURVE SMOOTH",
"375 1035 OFFCURVE",
"302 1021 QCURVE",
"395 1083 OFFCURVE",
"662 1190 OFFCURVE",
"953 1190 QCURVE SMOOTH",
"1177 1190 OFFCURVE",
"1501 1062 OFFCURVE",
"1501 995 QCURVE SMOOTH",
"1501 942 OFFCURVE",
"1418 942 QCURVE SMOOTH",
"1412 942 LINE SMOOTH",
"1330 944 OFFCURVE",
"1330 1007 QCURVE SMOOTH",
"1330 1014 OFFCURVE",
"1331 1021 QCURVE",
"1282 1090 OFFCURVE",
"1155 1090 QCURVE SMOOTH",
"1151 1090 LINE SMOOTH",
"960 1090 OFFCURVE",
"960 885 QCURVE SMOOTH",
"960 680 OFFCURVE",
"1264 680 QCURVE SMOOTH",
"1452 680 OFFCURVE",
"1650 906 OFFCURVE",
"1650 1008 QCURVE SMOOTH",
"1650 1190 OFFCURVE",
"1240 1500 OFFCURVE",
"949 1500 QCURVE SMOOTH",
"629 1500 OFFCURVE",
"240 1260 OFFCURVE",
"150 1116 QCURVE",
"150 650 LINE",
"312 700 OFFCURVE",
"481 710 QCURVE SMOOTH",
"503 711 OFFCURVE",
"522 711 QCURVE SMOOTH",
"650 711 OFFCURVE",
"650 653 QCURVE SMOOTH",
"650 585 OFFCURVE",
"440 500 OFFCURVE",
"250 500 QCURVE SMOOTH",
"150 500 LINE",
"150 368 LINE SMOOTH",
"150 235 OFFCURVE",
"295 118 QCURVE SMOOTH",
"440 0 OFFCURVE",
"620 0 QCURVE SMOOTH",
"890 0 OFFCURVE",
"1120 430 OFFCURVE",
"1250 430 QCURVE SMOOTH",
"1400 430 OFFCURVE",
"1400 365 QCURVE SMOOTH",
"1400 320 OFFCURVE",
"1350 320 QCURVE SMOOTH",
"1300 320 OFFCURVE",
"1300 370 QCURVE",
"1200 370 OFFCURVE",
"1150 320 QCURVE",
"1100 300 OFFCURVE",
"1100 200 QCURVE SMOOTH",
"1100 100 OFFCURVE",
"1162 50 QCURVE SMOOTH",
"1225 0 OFFCURVE",
"1350 0 QCURVE SMOOTH",
"1475 0 OFFCURVE",
"1650 195 OFFCURVE",
"1650 319 QCURVE SMOOTH",
"1650 443 OFFCURVE",
"1445 620 OFFCURVE",
"1320 620 QCURVE SMOOTH",
"1120 620 OFFCURVE",
"809 330 OFFCURVE",
"724 330 QCURVE SMOOTH",
"649 330 OFFCURVE",
"591 395 QCURVE"
);
}
);
width = 1800;
}
);
note = uni1791;
unicode = 1791;
},
{
glyphname = uni1792;
layers = (
{
layerId = "B1070C97-2DE4-4FC8-9990-FF316D9539D4";
paths = (
{
closed = 1;
nodes = (
"1325 360 OFFCURVE",
"1249 360 QCURVE SMOOTH",
"1173 360 OFFCURVE",
"1063 518 QCURVE",
"905 340 OFFCURVE",
"822 340 QCURVE SMOOTH",
"739 340 OFFCURVE",
"629 390 OFFCURVE",
"610 440 QCURVE",
"810 570 OFFCURVE",
"810 718 QCURVE SMOOTH",
"810 926 OFFCURVE",
"656 1013 QCURVE SMOOTH",
"575 1058 OFFCURVE",
"457 1058 QCURVE SMOOTH",
"367 1058 OFFCURVE",
"256 1032 QCURVE",
"300 1102 OFFCURVE",
"349 1136 QCURVE SMOOTH",
"416 1182 OFFCURVE",
"474 1182 QCURVE SMOOTH",
"512 1182 OFFCURVE",
"708 1064 OFFCURVE",
"770 1064 QCURVE SMOOTH",
"831 1064 OFFCURVE",
"1021 1200 OFFCURVE",
"1060 1200 QCURVE SMOOTH",
"1099 1200 OFFCURVE",
"1368 1080 OFFCURVE",
"1472 1080 QCURVE SMOOTH",
"1595 1080 OFFCURVE",
"1700 1350 QCURVE",
"1585 1350 OFFCURVE",
"1451 1425 QCURVE SMOOTH",
"1316 1500 OFFCURVE",
"1254 1500 QCURVE SMOOTH",
"1192 1500 OFFCURVE",
"1088 1410 QCURVE SMOOTH",
"983 1320 OFFCURVE",
"937 1320 QCURVE SMOOTH",
"891 1320 OFFCURVE",
"758 1410 QCURVE SMOOTH",
"625 1500 OFFCURVE",
"539 1500 QCURVE SMOOTH",
"453 1500 OFFCURVE",
"150 1260 QCURVE",
"150 650 LINE",
"312 720 OFFCURVE",
"481 730 QCURVE SMOOTH",
"500 731 OFFCURVE",
"517 731 QCURVE SMOOTH",
"650 731 OFFCURVE",
"650 663 QCURVE SMOOTH",
"650 585 OFFCURVE",
"390 500 OFFCURVE",
"150 500 QCURVE",
"170 275 OFFCURVE",
"450 0 OFFCURVE",
"593 0 QCURVE SMOOTH",
"735 0 OFFCURVE",
"916 167 QCURVE",
"1110 0 OFFCURVE",
"1260 0 QCURVE SMOOTH",
"1410 0 OFFCURVE",
"1650 366 OFFCURVE",
"1650 650 QCURVE SMOOTH",
"1650 1000 OFFCURVE",
"1250 1000 QCURVE SMOOTH",
"1186 1000 OFFCURVE",
"1066 948 OFFCURVE",
"998 850 OFFCURVE",
"998 797 QCURVE SMOOTH",
"998 745 OFFCURVE",
"1064 648 OFFCURVE",
"1185 595 OFFCURVE",
"1250 595 QCURVE SMOOTH",
"1315 595 OFFCURVE",
"1436 648 OFFCURVE",
"1469 697 QCURVE SMOOTH",
"1483 717 OFFCURVE",
"1491 737 QCURVE",
"1500 698 OFFCURVE",
"1500 650 QCURVE SMOOTH",
"1500 517 OFFCURVE"
);
}
);
width = 1800;
}
);
note = uni1792;
unicode = 1792;
},
{
glyphname = uni1793;
layers = (
{
layerId = "B1070C97-2DE4-4FC8-9990-FF316D9539D4";
paths = (
{
closed = 1;
nodes = (
"619 356 QCURVE SMOOTH",
"587 356 OFFCURVE",
"567 390 QCURVE SMOOTH",
"557 406 OFFCURVE",
"557 418 QCURVE SMOOTH",
"557 430 OFFCURVE",
"569 437 QCURVE SMOOTH",
"591 450 OFFCURVE",
"650 450 QCURVE",
"650 400 LINE SMOOTH",
"650 356 OFFCURVE"
);
},
{
closed = 1;
nodes = (
"864 322 QCURVE",
"900 0 OFFCURVE",
"1215 0 QCURVE SMOOTH",
"1390 0 OFFCURVE",
"1650 326 OFFCURVE",
"1650 691 QCURVE",
"1570 476 OFFCURVE",
"1365 320 OFFCURVE",
"1198 320 QCURVE SMOOTH",
"1060 320 OFFCURVE",
"1020 408 QCURVE SMOOTH",
"979 495 OFFCURVE",
"910 548 QCURVE SMOOTH",
"840 600 OFFCURVE",
"750 600 QCURVE",
"750 850 LINE",
"701 951 OFFCURVE",
"563 1003 QCURVE SMOOTH",
"480 1034 OFFCURVE",
"402 1034 QCURVE SMOOTH",
"351 1034 OFFCURVE",
"302 1021 QCURVE",
"395 1083 OFFCURVE",
"662 1190 OFFCURVE",
"953 1190 QCURVE SMOOTH",
"1177 1190 OFFCURVE",
"1501 1052 OFFCURVE",
"1501 955 QCURVE SMOOTH",
"1501 902 OFFCURVE",
"1418 902 QCURVE SMOOTH",
"1412 902 LINE SMOOTH",
"1330 904 OFFCURVE",
"1330 967 QCURVE SMOOTH",
"1330 974 OFFCURVE",
"1331 981 QCURVE",
"1282 1050 OFFCURVE",
"1155 1050 QCURVE SMOOTH",
"1151 1050 LINE SMOOTH",
"960 1050 OFFCURVE",
"960 845 QCURVE SMOOTH",
"960 640 OFFCURVE",
"1264 640 QCURVE SMOOTH",
"1452 640 OFFCURVE",
"1650 866 OFFCURVE",
"1650 1008 QCURVE SMOOTH",
"1650 1190 OFFCURVE",
"1240 1500 OFFCURVE",
"949 1500 QCURVE SMOOTH",
"629 1500 OFFCURVE",
"240 1260 OFFCURVE",
"150 1116 QCURVE",
"150 650 LINE",
"323 700 OFFCURVE",
"432 700 QCURVE SMOOTH",
"496 700 OFFCURVE",
"538 683 QCURVE SMOOTH",
"594 659 OFFCURVE",
"622 600 QCURVE",
"485 600 LINE SMOOTH",
"298 600 OFFCURVE",
"150 450 QCURVE",
"150 307 OFFCURVE",
"270 154 QCURVE SMOOTH",
"389 0 OFFCURVE",
"550 0 QCURVE SMOOTH",
"630 0 OFFCURVE",
"750 140 QCURVE",
"750 450 LINE",
"830 450 OFFCURVE"
);
}
);
width = 1800;
}
);
note = uni1793;
unicode = 1793;
},
{
glyphname = uni1794;
layers = (
{
layerId = "B1070C97-2DE4-4FC8-9990-FF316D9539D4";
paths = (
{
closed = 1;
nodes = (
"312 700 OFFCURVE",
"481 710 QCURVE SMOOTH",
"503 711 OFFCURVE",
"522 711 QCURVE SMOOTH",
"650 711 OFFCURVE",
"650 653 QCURVE SMOOTH",
"650 585 OFFCURVE",
"390 500 OFFCURVE",
"150 500 QCURVE",
"170 275 OFFCURVE",
"540 0 OFFCURVE",
"910 0 QCURVE SMOOTH",
"1250 0 OFFCURVE",
"1650 366 OFFCURVE",
"1650 601 QCURVE SMOOTH",
"1650 850 OFFCURVE",
"1493 965 QCURVE SMOOTH",
"1400 1033 OFFCURVE",
"1274 1033 QCURVE SMOOTH",
"1186 1033 OFFCURVE",
"1081 1000 QCURVE",
"1111 1120 OFFCURVE",
"1185 1140 QCURVE SMOOTH",
"1211 1147 OFFCURVE",
"1238 1147 QCURVE SMOOTH",
"1284 1147 OFFCURVE",
"1329 1125 QCURVE SMOOTH",
"1399 1090 OFFCURVE",
"1482 1090 QCURVE SMOOTH",
"1483 1090 OFFCURVE",
"1485 1091 QCURVE",
"1569 1091 OFFCURVE",
"1648 1364 QCURVE",
"1557 1364 OFFCURVE",
"1310 1500 OFFCURVE",
"1274 1500 QCURVE SMOOTH",
"1238 1500 OFFCURVE",
"980 1300 OFFCURVE",
"980 1224 QCURVE SMOOTH",
"980 650 LINE",
"1153 700 OFFCURVE",
"1265 700 QCURVE SMOOTH",
"1332 700 OFFCURVE",
"1378 683 QCURVE SMOOTH",
"1500 635 OFFCURVE",
"1500 580 QCURVE SMOOTH",
"1500 440 OFFCURVE",
"1255 320 OFFCURVE",
"1050 320 QCURVE SMOOTH",
"859 320 OFFCURVE",
"629 390 OFFCURVE",
"610 440 QCURVE",
"810 570 OFFCURVE",
"810 718 QCURVE SMOOTH",
"810 926 OFFCURVE",
"656 993 QCURVE SMOOTH",
"574 1028 OFFCURVE",
"463 1028 QCURVE SMOOTH",
"364 1028 OFFCURVE",
"241 1000 QCURVE",
"301 1130 OFFCURVE",
"380 1150 QCURVE SMOOTH",
"408 1157 OFFCURVE",
"436 1157 QCURVE SMOOTH",
"484 1157 OFFCURVE",
"529 1135 QCURVE SMOOTH",
"599 1100 OFFCURVE",
"692 1100 QCURVE SMOOTH",
"693 1100 OFFCURVE",
"695 1101 QCURVE",
"789 1101 OFFCURVE",
"898 1364 QCURVE",
"753 1381 OFFCURVE",
"526 1500 OFFCURVE",
"482 1500 QCURVE SMOOTH",
"438 1500 OFFCURVE",
"150 1300 OFFCURVE",
"150 1224 QCURVE SMOOTH",
"150 650 LINE"
);
}
);
width = 1800;
}
);
note = uni1794;
unicode = 1794;
},
{
glyphname = uni1795;
layers = (
{
layerId = "B1070C97-2DE4-4FC8-9990-FF316D9539D4";
paths = (
{
closed = 1;
nodes = (
"1325 360 OFFCURVE",
"1249 360 QCURVE SMOOTH",
"1173 360 OFFCURVE",
"1063 518 QCURVE",
"905 340 OFFCURVE",
"822 340 QCURVE SMOOTH",
"739 340 OFFCURVE",
"629 390 OFFCURVE",
"610 440 QCURVE",
"810 570 OFFCURVE",
"810 718 QCURVE SMOOTH",
"810 926 OFFCURVE",
"656 1013 QCURVE SMOOTH",
"575 1058 OFFCURVE",
"457 1058 QCURVE SMOOTH",
"367 1058 OFFCURVE",
"256 1032 QCURVE",
"380 1159 OFFCURVE",
"545 1159 QCURVE SMOOTH",
"680 1159 OFFCURVE",
"1011 1029 OFFCURVE",
"1176 1029 QCURVE SMOOTH",
"1333 1029 OFFCURVE",
"1650 1309 OFFCURVE",
"1650 1454 QCURVE SMOOTH",
"1650 1599 OFFCURVE",
"1440 1759 OFFCURVE",
"1316 1759 QCURVE SMOOTH",
"1191 1759 OFFCURVE",
"1141 1657 QCURVE SMOOTH",
"1128 1631 OFFCURVE",
"1128 1609 QCURVE SMOOTH",
"1128 1538 OFFCURVE",
"1246 1487 QCURVE SMOOTH",
"1401 1420 OFFCURVE",
"1401 1340 QCURVE SMOOTH",
"1401 1259 OFFCURVE",
"1339 1259 QCURVE SMOOTH",
"1267 1259 OFFCURVE",
"851 1499 OFFCURVE",
"699 1500 QCURVE SMOOTH",
"546 1500 OFFCURVE",
"224 1304 OFFCURVE",
"150 1170 QCURVE",
"150 650 LINE",
"312 720 OFFCURVE",
"481 730 QCURVE SMOOTH",
"500 731 OFFCURVE",
"517 731 QCURVE SMOOTH",
"650 731 OFFCURVE",
"650 663 QCURVE SMOOTH",
"650 585 OFFCURVE",
"390 500 OFFCURVE",
"150 500 QCURVE",
"170 275 OFFCURVE",
"450 0 OFFCURVE",
"593 0 QCURVE SMOOTH",
"735 0 OFFCURVE",
"916 167 QCURVE",
"1110 0 OFFCURVE",
"1260 0 QCURVE SMOOTH",
"1410 0 OFFCURVE",
"1650 366 OFFCURVE",
"1650 610 QCURVE SMOOTH",
"1650 960 OFFCURVE",
"1250 960 QCURVE SMOOTH",
"1186 960 OFFCURVE",
"1066 908 OFFCURVE",
"998 810 OFFCURVE",
"998 757 QCURVE SMOOTH",
"998 705 OFFCURVE",
"1064 608 OFFCURVE",
"1185 555 OFFCURVE",
"1250 555 QCURVE SMOOTH",
"1315 555 OFFCURVE",
"1436 608 OFFCURVE",
"1469 657 QCURVE SMOOTH",
"1483 677 OFFCURVE",
"1491 697 QCURVE",
"1500 658 OFFCURVE",
"1500 610 QCURVE SMOOTH",
"1500 517 OFFCURVE"
);
}
);
width = 1800;
}
);
note = uni1795;
unicode = 1795;
},
{
glyphname = uni1796;
layers = (
{
layerId = "B1070C97-2DE4-4FC8-9990-FF316D9539D4";
paths = (
{
closed = 1;
nodes = (
"1457 456 OFFCURVE",
"1457 469 QCURVE SMOOTH",
"1457 483 OFFCURVE",
"1469 493 QCURVE SMOOTH",
"1491 512 OFFCURVE",
"1550 567 QCURVE",
"1550 450 LINE SMOOTH",
"1550 406 OFFCURVE",
"1519 406 QCURVE SMOOTH",
"1487 406 OFFCURVE",
"1467 440 QCURVE SMOOTH"
);
},
{
closed = 1;
nodes = (
"577 903 QCURVE SMOOTH",
"375 903 OFFCURVE",
"375 665 QCURVE SMOOTH",
"375 487 OFFCURVE",
"517 487 QCURVE SMOOTH",
"593 487 OFFCURVE",
"620 518 QCURVE SMOOTH",
"634 535 OFFCURVE",
"650 535 QCURVE SMOOTH",
"661 535 OFFCURVE",
"673 525 QCURVE SMOOTH",
"700 501 OFFCURVE",
"700 461 QCURVE SMOOTH",
"700 392 OFFCURVE",
"550 377 QCURVE SMOOTH",
"532 375 OFFCURVE",
"514 375 QCURVE SMOOTH",
"393 375 OFFCURVE",
"340 469 QCURVE SMOOTH",
"280 576 OFFCURVE",
"280 750 QCURVE SMOOTH",
"280 920 OFFCURVE",
"365 1030 QCURVE SMOOTH",
"450 1139 OFFCURVE",
"559 1140 QCURVE SMOOTH",
"708 1140 OFFCURVE",
"890 1027 QCURVE",
"1008 1140 OFFCURVE",
"1122 1140 QCURVE SMOOTH",
"1235 1140 OFFCURVE",
"1393 1022 QCURVE SMOOTH",
"1550 904 OFFCURVE",
"1550 793 QCURVE SMOOTH",
"1550 629 OFFCURVE",
"1300 560 QCURVE SMOOTH",
"1050 491 OFFCURVE",
"1050 420 QCURVE SMOOTH",
"1050 307 OFFCURVE",
"1170 154 QCURVE SMOOTH",
"1289 0 OFFCURVE",
"1450 0 QCURVE SMOOTH",
"1530 0 OFFCURVE",
"1590 70 QCURVE SMOOTH",
"1650 140 OFFCURVE",
"1650 200 QCURVE SMOOTH",
"1650 1170 LINE SMOOTH",
"1650 1274 OFFCURVE",
"1500 1387 QCURVE SMOOTH",
"1362 1491 OFFCURVE",
"1229 1491 QCURVE SMOOTH",
"1217 1491 OFFCURVE",
"1205 1490 QCURVE SMOOTH",
"1100 1480 OFFCURVE",
"970 1305 QCURVE",
"888 1386 OFFCURVE",
"697 1500 OFFCURVE",
"588 1500 QCURVE SMOOTH",
"419 1500 OFFCURVE",
"285 1305 QCURVE SMOOTH",
"150 1110 OFFCURVE",
"150 750 QCURVE SMOOTH",
"150 0 OFFCURVE",
"531 0 QCURVE SMOOTH",
"800 0 OFFCURVE",
"800 558 QCURVE SMOOTH",
"800 903 OFFCURVE"
);
}
);
width = 1800;
}
);
note = uni1796;
unicode = 1796;
},
{
glyphname = uni1797;
layers = (
{
layerId = "B1070C97-2DE4-4FC8-9990-FF316D9539D4";
paths = (
{
closed = 1;
nodes = (
"1457 456 OFFCURVE",
"1457 469 QCURVE SMOOTH",
"1457 483 OFFCURVE",
"1469 493 QCURVE SMOOTH",
"1491 512 OFFCURVE",
"1550 567 QCURVE",
"1550 450 LINE SMOOTH",
"1550 406 OFFCURVE",
"1519 406 QCURVE SMOOTH",
"1487 406 OFFCURVE",
"1467 440 QCURVE SMOOTH"
);
},
{
closed = 1;
nodes = (
"150 565 QCURVE",
"248 586 OFFCURVE",
"333 586 QCURVE SMOOTH",
"430 586 OFFCURVE",
"510 559 QCURVE SMOOTH",
"660 507 OFFCURVE",
"660 395 QCURVE SMOOTH",
"660 240 OFFCURVE",
"522 229 QCURVE SMOOTH",
"493 227 OFFCURVE",
"466 227 QCURVE SMOOTH",
"335 227 OFFCURVE",
"282 273 QCURVE SMOOTH",
"235 314 OFFCURVE",
"235 340 QCURVE SMOOTH",
"235 349 OFFCURVE",
"240 356 QCURVE SMOOTH",
"245 363 OFFCURVE",
"256 363 QCURVE SMOOTH",
"285 363 OFFCURVE",
"354 303 QCURVE SMOOTH",
"408 256 OFFCURVE",
"463 256 QCURVE SMOOTH",
"504 256 OFFCURVE",
"545 281 QCURVE SMOOTH",
"610 321 OFFCURVE",
"610 375 QCURVE SMOOTH",
"610 403 OFFCURVE",
"592 435 QCURVE SMOOTH",
"541 528 OFFCURVE",
"398 528 QCURVE SMOOTH",
"395 528 LINE SMOOTH",
"150 526 OFFCURVE",
"150 285 QCURVE SMOOTH",
"150 0 OFFCURVE",
"524 0 QCURVE SMOOTH",
"900 0 OFFCURVE",
"900 337 QCURVE SMOOTH",
"900 577 OFFCURVE",
"570 653 QCURVE",
"665 710 OFFCURVE",
"816 710 QCURVE SMOOTH",
"1046 710 OFFCURVE",
"1517 633 QCURVE",
"1258 470 OFFCURVE",
"1050 450 QCURVE",
"1050 307 OFFCURVE",
"1170 154 QCURVE SMOOTH",
"1289 0 OFFCURVE",
"1450 0 QCURVE SMOOTH",
"1530 0 OFFCURVE",
"1650 140 QCURVE",
"1650 980 LINE",
"1122 1060 OFFCURVE",
"845 1060 QCURVE SMOOTH",
"568 1060 OFFCURVE",
"150 770 OFFCURVE"
);
},
{
closed = 1;
nodes = (
"411 1186 OFFCURVE",
"307 1194 QCURVE",
"377 1232 OFFCURVE",
"417 1232 QCURVE SMOOTH",
"456 1232 OFFCURVE",
"728 1064 OFFCURVE",
"792 1064 QCURVE SMOOTH",
"855 1064 OFFCURVE",
"1050 1220 OFFCURVE",
"1091 1220 QCURVE SMOOTH",
"1131 1220 OFFCURVE",
"1408 1080 OFFCURVE",
"1515 1080 QCURVE SMOOTH",
"1642 1080 OFFCURVE",
"1750 1350 QCURVE",
"1632 1350 OFFCURVE",
"1493 1425 QCURVE SMOOTH",
"1354 1500 OFFCURVE",
"1291 1500 QCURVE SMOOTH",
"1227 1500 OFFCURVE",
"1119 1410 QCURVE SMOOTH",
"1011 1320 OFFCURVE",
"964 1320 QCURVE SMOOTH",
"917 1320 OFFCURVE",
"780 1410 QCURVE SMOOTH",
"642 1500 OFFCURVE",
"554 1500 QCURVE SMOOTH",
"465 1500 OFFCURVE",
"150 1260 QCURVE",
"150 1014 LINE",
"178 1018 OFFCURVE",
"206 1018 QCURVE SMOOTH",
"288 1018 OFFCURVE",
"368 981 QCURVE",
"552 1047 LINE"
);
}
);
width = 1800;
}
);
note = uni1797;
unicode = 1797;
},
{
glyphname = uni1798;
layers = (
{
layerId = "B1070C97-2DE4-4FC8-9990-FF316D9539D4";
paths = (
{
closed = 1;
nodes = (
"312 700 OFFCURVE",
"481 710 QCURVE SMOOTH",
"503 711 OFFCURVE",
"522 711 QCURVE SMOOTH",
"650 711 OFFCURVE",
"650 653 QCURVE SMOOTH",
"650 585 OFFCURVE",
"390 500 OFFCURVE",
"150 500 QCURVE",
"170 275 OFFCURVE",
"540 0 OFFCURVE",
"910 0 QCURVE SMOOTH",
"1250 0 OFFCURVE",
"1650 366 OFFCURVE",
"1650 601 QCURVE SMOOTH",
"1650 850 OFFCURVE",
"1493 965 QCURVE SMOOTH",
"1400 1033 OFFCURVE",
"1274 1033 QCURVE SMOOTH",
"1186 1033 OFFCURVE",
"1081 1000 QCURVE",
"1111 1120 OFFCURVE",
"1185 1140 QCURVE SMOOTH",
"1211 1147 OFFCURVE",
"1238 1147 QCURVE SMOOTH",
"1284 1147 OFFCURVE",
"1329 1125 QCURVE SMOOTH",
"1399 1090 OFFCURVE",
"1482 1090 QCURVE SMOOTH",
"1483 1090 OFFCURVE",
"1485 1091 QCURVE",
"1569 1091 OFFCURVE",
"1648 1364 QCURVE",
"1557 1364 OFFCURVE",
"1310 1500 OFFCURVE",
"1274 1500 QCURVE SMOOTH",
"1238 1500 OFFCURVE",
"980 1300 OFFCURVE",
"980 1224 QCURVE SMOOTH",
"980 650 LINE",
"1153 700 OFFCURVE",
"1265 700 QCURVE SMOOTH",
"1332 700 OFFCURVE",
"1378 683 QCURVE SMOOTH",
"1500 635 OFFCURVE",
"1500 580 QCURVE SMOOTH",
"1500 440 OFFCURVE",
"1255 320 OFFCURVE",
"1050 320 QCURVE SMOOTH",
"859 320 OFFCURVE",
"629 390 OFFCURVE",
"610 440 QCURVE",
"810 570 OFFCURVE",
"810 718 QCURVE SMOOTH",
"810 926 OFFCURVE",
"656 993 QCURVE SMOOTH",
"574 1028 OFFCURVE",
"463 1028 QCURVE SMOOTH",
"364 1028 OFFCURVE",
"241 1000 QCURVE",
"301 1130 OFFCURVE",
"380 1150 QCURVE SMOOTH",
"408 1157 OFFCURVE",
"436 1157 QCURVE SMOOTH",
"484 1157 OFFCURVE",
"529 1135 QCURVE SMOOTH",
"599 1100 OFFCURVE",
"692 1100 QCURVE SMOOTH",
"693 1100 OFFCURVE",
"695 1101 QCURVE",
"789 1101 OFFCURVE",
"898 1364 QCURVE",
"753 1381 OFFCURVE",
"526 1500 OFFCURVE",
"482 1500 QCURVE SMOOTH",
"438 1500 OFFCURVE",
"150 1300 OFFCURVE",
"150 1224 QCURVE SMOOTH",
"150 650 LINE"
);
},
{
closed = 1;
nodes = (
"720 482 QCURVE",
"928 407 OFFCURVE",
"1064 407 QCURVE SMOOTH",
"1106 407 OFFCURVE",
"1142 414 QCURVE SMOOTH",
"1292 446 OFFCURVE",
"1361 571 QCURVE",
"1347 571 LINE SMOOTH",
"1204 571 OFFCURVE",
"1095 591 QCURVE SMOOTH",
"981 611 OFFCURVE",
"849 732 QCURVE",
"833 576 OFFCURVE"
);
}
);
width = 1800;
}
);
note = uni1798;
unicode = 1798;
},
{
glyphname = uni1799;
layers = (
{
layerId = "B1070C97-2DE4-4FC8-9990-FF316D9539D4";
paths = (
{
closed = 1;
nodes = (
"276 757 QCURVE SMOOTH",
"271 811 OFFCURVE",
"271 846 QCURVE SMOOTH",
"271 875 OFFCURVE",
"274 890 QCURVE SMOOTH",
"296 993 OFFCURVE",
"391 1070 QCURVE SMOOTH",
"467 1132 OFFCURVE",
"542 1132 QCURVE SMOOTH",
"561 1132 OFFCURVE",
"579 1128 QCURVE SMOOTH",
"711 1100 OFFCURVE",
"711 1037 QCURVE SMOOTH",
"711 1031 OFFCURVE",
"710 1024 QCURVE SMOOTH",
"697 964 OFFCURVE",
"643 964 QCURVE SMOOTH",
"631 964 OFFCURVE",
"616 967 QCURVE SMOOTH",
"548 981 OFFCURVE",
"510 1040 QCURVE",
"419 1007 OFFCURVE",
"363 905 QCURVE SMOOTH",
"335 855 OFFCURVE",
"335 807 QCURVE SMOOTH",
"335 758 OFFCURVE",
"365 711 QCURVE SMOOTH",
"423 619 OFFCURVE",
"542 605 QCURVE SMOOTH",
"557 603 OFFCURVE",
"571 603 QCURVE SMOOTH",
"673 603 OFFCURVE",
"756 690 QCURVE SMOOTH",
"850 788 OFFCURVE",
"850 1029 QCURVE SMOOTH",
"850 1500 OFFCURVE",
"540 1500 QCURVE SMOOTH",
"150 1500 OFFCURVE",
"150 830 QCURVE SMOOTH",
"150 0 OFFCURVE",
"880 0 QCURVE SMOOTH",
"1135 0 OFFCURVE",
"1299 80 QCURVE",
"1485 0 OFFCURVE",
"1730 0 QCURVE SMOOTH",
"2050 0 OFFCURVE",
"2450 366 OFFCURVE",
"2450 601 QCURVE SMOOTH",
"2450 850 OFFCURVE",
"2293 965 QCURVE SMOOTH",
"2200 1033 OFFCURVE",
"2074 1033 QCURVE SMOOTH",
"1986 1033 OFFCURVE",
"1881 1000 QCURVE",
"1911 1120 OFFCURVE",
"1985 1140 QCURVE SMOOTH",
"2011 1147 OFFCURVE",
"2038 1147 QCURVE SMOOTH",
"2084 1147 OFFCURVE",
"2129 1125 QCURVE SMOOTH",
"2199 1090 OFFCURVE",
"2282 1090 QCURVE SMOOTH",
"2283 1090 OFFCURVE",
"2285 1091 QCURVE",
"2369 1091 OFFCURVE",
"2448 1364 QCURVE",
"2357 1364 OFFCURVE",
"2110 1500 OFFCURVE",
"2074 1500 QCURVE SMOOTH",
"2038 1500 OFFCURVE",
"1780 1300 OFFCURVE",
"1780 1224 QCURVE SMOOTH",
"1780 650 LINE",
"1953 700 OFFCURVE",
"2065 700 QCURVE SMOOTH",
"2132 700 OFFCURVE",
"2178 683 QCURVE SMOOTH",
"2300 635 OFFCURVE",
"2300 580 QCURVE SMOOTH",
"2300 440 OFFCURVE",
"2055 320 OFFCURVE",
"1850 320 QCURVE SMOOTH",
"1689 320 OFFCURVE",
"1582 345 QCURVE",
"1650 464 OFFCURVE",
"1650 601 QCURVE SMOOTH",
"1650 850 OFFCURVE",
"1493 965 QCURVE SMOOTH",
"1400 1033 OFFCURVE",
"1274 1033 QCURVE SMOOTH",
"1186 1033 OFFCURVE",
"1081 1000 QCURVE",
"1111 1120 OFFCURVE",
"1185 1140 QCURVE SMOOTH",
"1211 1147 OFFCURVE",
"1238 1147 QCURVE SMOOTH",
"1284 1147 OFFCURVE",
"1329 1125 QCURVE SMOOTH",
"1399 1090 OFFCURVE",
"1482 1090 QCURVE SMOOTH",
"1483 1090 OFFCURVE",
"1485 1091 QCURVE",
"1569 1091 OFFCURVE",
"1648 1364 QCURVE",
"1557 1364 OFFCURVE",
"1310 1500 OFFCURVE",
"1274 1500 QCURVE SMOOTH",
"1238 1500 OFFCURVE",
"980 1300 OFFCURVE",
"980 1224 QCURVE SMOOTH",
"980 650 LINE",
"1153 700 OFFCURVE",
"1265 700 QCURVE SMOOTH",
"1332 700 OFFCURVE",
"1378 683 QCURVE SMOOTH",
"1500 635 OFFCURVE",
"1500 580 QCURVE SMOOTH",
"1500 470 OFFCURVE",
"1195 340 OFFCURVE",
"990 340 QCURVE SMOOTH",
"735 340 OFFCURVE",
"452 441 OFFCURVE",
"284 657 OFFCURVE"
);
}
);
width = 2600;
}
);
note = uni1799;
unicode = 1799;
},
{
glyphname = uni179A;
layers = (
{
layerId = "B1070C97-2DE4-4FC8-9990-FF316D9539D4";
paths = (
{
closed = 1;
nodes = (
"567 440 QCURVE SMOOTH",
"557 456 OFFCURVE",
"557 469 QCURVE SMOOTH",
"557 483 OFFCURVE",
"569 493 QCURVE SMOOTH",
"591 512 OFFCURVE",
"650 567 QCURVE",
"650 450 LINE SMOOTH",
"650 406 OFFCURVE",
"619 406 QCURVE SMOOTH",
"587 406 OFFCURVE"
);
},
{
closed = 1;
nodes = (
"701 951 OFFCURVE",
"563 1003 QCURVE SMOOTH",
"496 1028 OFFCURVE",
"420 1028 QCURVE SMOOTH",
"340 1028 OFFCURVE",
"251 1000 QCURVE",
"281 1120 OFFCURVE",
"345 1140 QCURVE SMOOTH",
"368 1147 OFFCURVE",
"392 1147 QCURVE SMOOTH",
"434 1147 OFFCURVE",
"479 1125 QCURVE SMOOTH",
"549 1090 OFFCURVE",
"632 1090 QCURVE SMOOTH",
"633 1090 OFFCURVE",
"635 1091 QCURVE",
"719 1091 OFFCURVE",
"800 1364 QCURVE",
"707 1364 OFFCURVE",
"480 1500 OFFCURVE",
"444 1500 QCURVE SMOOTH",
"408 1500 OFFCURVE",
"150 1300 OFFCURVE",
"150 1224 QCURVE SMOOTH",
"150 650 LINE",
"323 700 OFFCURVE",
"432 700 QCURVE SMOOTH",
"496 700 OFFCURVE",
"538 683 QCURVE SMOOTH",
"594 659 OFFCURVE",
"622 633 QCURVE",
"617 633 LINE",
"358 470 OFFCURVE",
"150 450 QCURVE",
"150 307 OFFCURVE",
"270 154 QCURVE SMOOTH",
"389 0 OFFCURVE",
"550 0 QCURVE SMOOTH",
"630 0 OFFCURVE",
"750 140 QCURVE",
"750 850 LINE"
);
}
);
width = 900;
}
);
note = uni179A;
unicode = 179A;
},
{
glyphname = uni179B;
layers = (
{
layerId = "B1070C97-2DE4-4FC8-9990-FF316D9539D4";
paths = (
{
closed = 1;
nodes = (
"789 1190 OFFCURVE",
"903 1107 QCURVE SMOOTH",
"1017 1023 OFFCURVE",
"1098 877 QCURVE",
"777 413 LINE",
"860 207 OFFCURVE",
"1210 0 OFFCURVE",
"1440 0 QCURVE SMOOTH",
"1800 0 OFFCURVE",
"2180 341 OFFCURVE",
"2180 601 QCURVE SMOOTH",
"2180 850 OFFCURVE",
"2023 965 QCURVE SMOOTH",
"1930 1033 OFFCURVE",
"1804 1033 QCURVE SMOOTH",
"1716 1033 OFFCURVE",
"1611 1000 QCURVE",
"1641 1120 OFFCURVE",
"1715 1140 QCURVE SMOOTH",
"1741 1147 OFFCURVE",
"1768 1147 QCURVE SMOOTH",
"1814 1147 OFFCURVE",
"1859 1125 QCURVE SMOOTH",
"1929 1090 OFFCURVE",
"2012 1090 QCURVE SMOOTH",
"2013 1090 OFFCURVE",
"2015 1091 QCURVE",
"2099 1091 OFFCURVE",
"2178 1364 QCURVE",
"2087 1364 OFFCURVE",
"1840 1500 OFFCURVE",
"1804 1500 QCURVE SMOOTH",
"1768 1500 OFFCURVE",
"1510 1300 OFFCURVE",
"1510 1224 QCURVE SMOOTH",
"1510 650 LINE",
"1683 700 OFFCURVE",
"1795 700 QCURVE SMOOTH",
"1862 700 OFFCURVE",
"1908 683 QCURVE SMOOTH",
"2030 635 OFFCURVE",
"2030 580 QCURVE SMOOTH",
"2030 440 OFFCURVE",
"1785 320 OFFCURVE",
"1580 320 QCURVE SMOOTH",
"1389 320 OFFCURVE",
"1174 459 OFFCURVE",
"1121 603 QCURVE",
"1393 1067 LINE",
"1340 1175 LINE SMOOTH",
"1287 1282 OFFCURVE",
"961 1500 OFFCURVE",
"722 1500 QCURVE SMOOTH",
"483 1500 OFFCURVE",
"220 1260 OFFCURVE",
"150 1116 QCURVE",
"150 670 LINE",
"213 728 OFFCURVE",
"324 728 QCURVE SMOOTH",
"434 728 OFFCURVE",
"450 616 QCURVE",
"254 543 OFFCURVE",
"202 457 QCURVE SMOOTH",
"150 370 OFFCURVE",
"150 280 QCURVE SMOOTH",
"150 0 OFFCURVE",
"425 0 QCURVE SMOOTH",
"700 0 OFFCURVE",
"700 270 QCURVE SMOOTH",
"700 430 OFFCURVE",
"557 430 QCURVE SMOOTH",
"503 430 OFFCURVE",
"465 364 QCURVE SMOOTH",
"439 319 OFFCURVE",
"413 319 QCURVE SMOOTH",
"399 319 OFFCURVE",
"386 330 QCURVE SMOOTH",
"378 336 OFFCURVE",
"378 346 QCURVE SMOOTH",
"378 388 OFFCURVE",
"516 496 QCURVE SMOOTH",
"650 600 OFFCURVE",
"650 718 QCURVE SMOOTH",
"650 926 OFFCURVE",
"537 993 QCURVE SMOOTH",
"465 1035 OFFCURVE",
"377 1035 QCURVE SMOOTH",
"325 1035 OFFCURVE",
"268 1021 QCURVE",
"341 1083 OFFCURVE",
"425 1137 QCURVE SMOOTH",
"508 1190 OFFCURVE",
"649 1190 QCURVE SMOOTH"
);
}
);
width = 2330;
}
);
note = uni179B;
unicode = 179B;
},
{
glyphname = uni179C;
layers = (
{
layerId = "B1070C97-2DE4-4FC8-9990-FF316D9539D4";
paths = (
{
closed = 1;
nodes = (
"298 997 QCURVE SMOOTH",
"298 1106 OFFCURVE",
"351 1148 QCURVE SMOOTH",
"415 1198 OFFCURVE",
"455 1198 QCURVE SMOOTH",
"494 1198 OFFCURVE",
"728 1064 OFFCURVE",
"792 1064 QCURVE SMOOTH",
"855 1064 OFFCURVE",
"1050 1220 OFFCURVE",
"1091 1220 QCURVE SMOOTH",
"1131 1220 OFFCURVE",
"1408 1080 OFFCURVE",
"1515 1080 QCURVE SMOOTH",
"1642 1080 OFFCURVE",
"1750 1350 QCURVE",
"1632 1350 OFFCURVE",
"1493 1425 QCURVE SMOOTH",
"1354 1500 OFFCURVE",
"1291 1500 QCURVE SMOOTH",
"1227 1500 OFFCURVE",
"1119 1410 QCURVE SMOOTH",
"1011 1320 OFFCURVE",
"964 1320 QCURVE SMOOTH",
"917 1320 OFFCURVE",
"780 1410 QCURVE SMOOTH",
"642 1500 OFFCURVE",
"554 1500 QCURVE SMOOTH",
"465 1500 OFFCURVE",
"308 1380 QCURVE SMOOTH",
"150 1259 OFFCURVE",
"150 1190 QCURVE SMOOTH",
"150 789 LINE",
"235 839 OFFCURVE",
"452 899 OFFCURVE",
"664 899 QCURVE SMOOTH",
"876 899 OFFCURVE",
"1088 814 QCURVE SMOOTH",
"1300 730 OFFCURVE",
"1300 560 QCURVE SMOOTH",
"1300 435 OFFCURVE",
"1130 372 QCURVE SMOOTH",
"960 310 OFFCURVE",
"690 310 QCURVE SMOOTH",
"489 310 OFFCURVE",
"300 430 OFFCURVE",
"300 490 QCURVE SMOOTH",
"300 600 OFFCURVE",
"380 600 QCURVE",
"383 491 OFFCURVE",
"502 444 QCURVE SMOOTH",
"610 405 OFFCURVE",
"703 405 QCURVE SMOOTH",
"775 405 OFFCURVE",
"838 429 QCURVE SMOOTH",
"980 483 OFFCURVE",
"980 593 QCURVE SMOOTH",
"980 703 OFFCURVE",
"730 800 OFFCURVE",
"580 800 QCURVE SMOOTH",
"350 800 OFFCURVE",
"250 722 QCURVE SMOOTH",
"150 645 OFFCURVE",
"150 490 QCURVE SMOOTH",
"150 225 OFFCURVE",
"350 112 QCURVE SMOOTH",
"550 0 OFFCURVE",
"850 0 QCURVE SMOOTH",
"1150 0 OFFCURVE",
"1400 138 QCURVE SMOOTH",
"1650 276 OFFCURVE",
"1650 551 QCURVE SMOOTH",
"1650 800 OFFCURVE",
"1180 1050 OFFCURVE",
"856 1050 QCURVE SMOOTH",
"531 1050 OFFCURVE",
"300 950 QCURVE",
"298 975 OFFCURVE"
);
}
);
width = 1800;
}
);
note = uni179C;
unicode = 179C;
},
{
glyphname = uni179D;
layers = (
{
layerId = "B1070C97-2DE4-4FC8-9990-FF316D9539D4";
paths = (
{
closed = 1;
nodes = (
"411 1186 OFFCURVE",
"307 1194 QCURVE",
"377 1232 OFFCURVE",
"417 1232 QCURVE SMOOTH",
"456 1232 OFFCURVE",
"728 1064 OFFCURVE",
"792 1064 QCURVE SMOOTH",
"855 1064 OFFCURVE",
"1050 1220 OFFCURVE",
"1091 1220 QCURVE SMOOTH",
"1131 1220 OFFCURVE",
"1408 1080 OFFCURVE",
"1515 1080 QCURVE SMOOTH",
"1642 1080 OFFCURVE",
"1750 1350 QCURVE",
"1632 1350 OFFCURVE",
"1493 1425 QCURVE SMOOTH",
"1354 1500 OFFCURVE",
"1291 1500 QCURVE SMOOTH",
"1227 1500 OFFCURVE",
"1119 1410 QCURVE SMOOTH",
"1011 1320 OFFCURVE",
"964 1320 QCURVE SMOOTH",
"917 1320 OFFCURVE",
"780 1410 QCURVE SMOOTH",
"642 1500 OFFCURVE",
"554 1500 QCURVE SMOOTH",
"465 1500 OFFCURVE",
"150 1260 QCURVE",
"150 1014 LINE",
"178 1018 OFFCURVE",
"206 1018 QCURVE SMOOTH",
"288 1018 OFFCURVE",
"368 981 QCURVE",
"552 1047 LINE"
);
},
{
closed = 1;
nodes = (
"1838 705 QCURVE",
"1736 689 OFFCURVE",
"1650 686 QCURVE",
"1650 980 LINE",
"1122 1060 OFFCURVE",
"845 1060 QCURVE SMOOTH",
"568 1060 OFFCURVE",
"235 897 OFFCURVE",
"150 730 QCURVE",
"150 299 LINE SMOOTH",
"150 166 OFFCURVE",
"290 0 OFFCURVE",
"438 0 QCURVE SMOOTH",
"589 0 OFFCURVE",
"653 137 QCURVE",
"586 189 OFFCURVE",
"586 251 QCURVE SMOOTH",
"586 265 OFFCURVE",
"589 279 QCURVE",
"607 336 OFFCURVE",
"668 337 QCURVE SMOOTH",
"669 337 LINE SMOOTH",
"728 337 OFFCURVE",
"768 294 QCURVE SMOOTH",
"808 250 OFFCURVE",
"874 250 QCURVE SMOOTH",
"939 250 OFFCURVE",
"976 348 QCURVE SMOOTH",
"988 381 OFFCURVE",
"988 412 QCURVE SMOOTH",
"988 472 OFFCURVE",
"941 523 QCURVE SMOOTH",
"869 600 OFFCURVE",
"749 600 QCURVE SMOOTH",
"649 600 OFFCURVE",
"452 467 OFFCURVE",
"399 322 QCURVE",
"250 340 OFFCURVE",
"250 470 QCURVE SMOOTH",
"250 550 OFFCURVE",
"545 710 OFFCURVE",
"796 710 QCURVE SMOOTH",
"983 710 OFFCURVE",
"1294 667 QCURVE",
"1271 589 OFFCURVE",
"1215 527 QCURVE",
"1253 519 OFFCURVE",
"1289 513 QCURVE",
"1162 461 OFFCURVE",
"1050 450 QCURVE",
"1050 307 OFFCURVE",
"1170 154 QCURVE SMOOTH",
"1289 0 OFFCURVE",
"1450 0 QCURVE SMOOTH",
"1530 0 OFFCURVE",
"1650 140 QCURVE",
"1650 522 LINE",
"1788 574 OFFCURVE"
);
},
{
closed = 1;
nodes = (
"1550 406 OFFCURVE",
"1519 406 QCURVE SMOOTH",
"1487 406 OFFCURVE",
"1467 440 QCURVE SMOOTH",
"1457 456 OFFCURVE",
"1457 469 QCURVE SMOOTH",
"1457 483 OFFCURVE",
"1469 493 QCURVE SMOOTH",
"1470 494 OFFCURVE",
"1471 495 QCURVE",
"1485 495 LINE SMOOTH",
"1519 495 OFFCURVE",
"1550 499 QCURVE",
"1550 450 LINE SMOOTH"
);
}
);
width = 1800;
}
);
note = uni179D;
unicode = 179D;
},
{
glyphname = uni179E;
layers = (
{
layerId = "B1070C97-2DE4-4FC8-9990-FF316D9539D4";
paths = (
{
closed = 1;
nodes = (
"1643 423 QCURVE SMOOTH",
"1787 475 OFFCURVE",
"1838 609 QCURVE",
"1736 593 OFFCURVE",
"1650 590 QCURVE",
"1650 601 LINE SMOOTH",
"1650 850 OFFCURVE",
"1493 965 QCURVE SMOOTH",
"1400 1033 OFFCURVE",
"1274 1033 QCURVE SMOOTH",
"1186 1033 OFFCURVE",
"1081 1000 QCURVE",
"1111 1120 OFFCURVE",
"1185 1140 QCURVE SMOOTH",
"1211 1147 OFFCURVE",
"1238 1147 QCURVE SMOOTH",
"1284 1147 OFFCURVE",
"1329 1125 QCURVE SMOOTH",
"1399 1090 OFFCURVE",
"1482 1090 QCURVE SMOOTH",
"1483 1090 OFFCURVE",
"1485 1091 QCURVE",
"1569 1091 OFFCURVE",
"1648 1364 QCURVE",
"1557 1364 OFFCURVE",
"1310 1500 OFFCURVE",
"1274 1500 QCURVE SMOOTH",
"1238 1500 OFFCURVE",
"980 1300 OFFCURVE",
"980 1224 QCURVE SMOOTH",
"980 650 LINE",
"1153 700 OFFCURVE",
"1266 700 QCURVE SMOOTH",
"1332 700 OFFCURVE",
"1378 683 QCURVE SMOOTH",
"1474 645 OFFCURVE",
"1494 603 QCURVE",
"1409 628 OFFCURVE",
"1308 697 QCURVE",
"1308 679 LINE SMOOTH",
"1308 534 OFFCURVE",
"1215 431 QCURVE",
"1325 408 OFFCURVE",
"1414 401 QCURVE",
"1397 390 OFFCURVE",
"1378 380 QCURVE SMOOTH",
"1255 320 OFFCURVE",
"1050 320 QCURVE SMOOTH",
"859 320 OFFCURVE",
"629 390 OFFCURVE",
"610 440 QCURVE",
"810 570 OFFCURVE",
"810 718 QCURVE SMOOTH",
"810 926 OFFCURVE",
"656 993 QCURVE SMOOTH",
"574 1028 OFFCURVE",
"463 1028 QCURVE SMOOTH",
"364 1028 OFFCURVE",
"241 1000 QCURVE",
"301 1130 OFFCURVE",
"380 1150 QCURVE SMOOTH",
"408 1157 OFFCURVE",
"436 1157 QCURVE SMOOTH",
"484 1157 OFFCURVE",
"529 1135 QCURVE SMOOTH",
"599 1100 OFFCURVE",
"692 1100 QCURVE SMOOTH",
"693 1100 OFFCURVE",
"695 1101 QCURVE",
"789 1101 OFFCURVE",
"898 1364 QCURVE",
"753 1381 OFFCURVE",
"526 1500 OFFCURVE",
"482 1500 QCURVE SMOOTH",
"438 1500 OFFCURVE",
"150 1300 OFFCURVE",
"150 1224 QCURVE SMOOTH",
"150 650 LINE",
"312 700 OFFCURVE",
"481 710 QCURVE SMOOTH",
"503 711 OFFCURVE",
"522 711 QCURVE SMOOTH",
"650 711 OFFCURVE",
"650 653 QCURVE SMOOTH",
"650 585 OFFCURVE",
"390 500 OFFCURVE",
"150 500 QCURVE",
"170 275 OFFCURVE",
"540 0 OFFCURVE",
"910 0 QCURVE SMOOTH",
"1250 0 OFFCURVE",
"1450 183 QCURVE SMOOTH",
"1567 290 OFFCURVE",
"1615 414 QCURVE",
"1630 418 OFFCURVE"
);
}
);
width = 1800;
}
);
note = uni179E;
unicode = 179E;
},
{
glyphname = uni179F;
layers = (
{
layerId = "B1070C97-2DE4-4FC8-9990-FF316D9539D4";
paths = (
{
closed = 1;
nodes = (
"385 1142 QCURVE",
"435 1187 OFFCURVE",
"487 1187 QCURVE SMOOTH",
"494 1187 OFFCURVE",
"500 1186 QCURVE SMOOTH",
"559 1180 OFFCURVE",
"650 1140 QCURVE SMOOTH",
"739 1100 OFFCURVE",
"850 1100 QCURVE SMOOTH",
"851 1100 OFFCURVE",
"853 1101 QCURVE",
"965 1101 OFFCURVE",
"1050 1364 QCURVE",
"940 1364 OFFCURVE",
"642 1500 OFFCURVE",
"598 1500 QCURVE SMOOTH",
"555 1500 OFFCURVE",
"243 1300 OFFCURVE",
"157 1095 QCURVE",
"162 1095 LINE SMOOTH",
"253 1095 OFFCURVE",
"390 977 QCURVE",
"150 831 OFFCURVE",
"150 434 QCURVE SMOOTH",
"150 257 OFFCURVE",
"356 0 OFFCURVE",
"501 0 QCURVE SMOOTH",
"812 0 OFFCURVE",
"815 400 QCURVE SMOOTH",
"815 407 LINE SMOOTH",
"815 680 OFFCURVE",
"594 680 QCURVE SMOOTH",
"370 680 OFFCURVE",
"370 515 QCURVE SMOOTH",
"370 350 OFFCURVE",
"510 350 QCURVE SMOOTH",
"649 350 OFFCURVE",
"682 426 QCURVE",
"688 427 OFFCURVE",
"693 427 QCURVE SMOOTH",
"721 427 OFFCURVE",
"721 396 QCURVE SMOOTH",
"721 382 OFFCURVE",
"716 363 QCURVE SMOOTH",
"695 290 OFFCURVE",
"498 290 QCURVE SMOOTH",
"300 290 OFFCURVE",
"300 510 QCURVE SMOOTH",
"300 752 OFFCURVE",
"687 752 QCURVE SMOOTH",
"827 752 OFFCURVE",
"1088 630 OFFCURVE",
"1163 506 QCURVE",
"977 283 LINE SMOOTH",
"962 263 OFFCURVE",
"962 242 QCURVE SMOOTH",
"962 180 OFFCURVE",
"1085 104 QCURVE SMOOTH",
"1250 0 OFFCURVE",
"1480 0 QCURVE SMOOTH",
"1800 0 OFFCURVE",
"2180 341 OFFCURVE",
"2180 601 QCURVE SMOOTH",
"2180 850 OFFCURVE",
"2023 965 QCURVE SMOOTH",
"1930 1033 OFFCURVE",
"1804 1033 QCURVE SMOOTH",
"1716 1033 OFFCURVE",
"1611 1000 QCURVE",
"1641 1120 OFFCURVE",
"1715 1140 QCURVE SMOOTH",
"1741 1147 OFFCURVE",
"1768 1147 QCURVE SMOOTH",
"1814 1147 OFFCURVE",
"1859 1125 QCURVE SMOOTH",
"1929 1090 OFFCURVE",
"2012 1090 QCURVE SMOOTH",
"2013 1090 OFFCURVE",
"2015 1091 QCURVE",
"2099 1091 OFFCURVE",
"2178 1364 QCURVE",
"2087 1364 OFFCURVE",
"1840 1500 OFFCURVE",
"1804 1500 QCURVE SMOOTH",
"1768 1500 OFFCURVE",
"1510 1300 OFFCURVE",
"1510 1224 QCURVE SMOOTH",
"1510 650 LINE",
"1683 700 OFFCURVE",
"1795 700 QCURVE SMOOTH",
"1862 700 OFFCURVE",
"1908 683 QCURVE SMOOTH",
"2030 635 OFFCURVE",
"2030 580 QCURVE SMOOTH",
"2030 440 OFFCURVE",
"1785 320 OFFCURVE",
"1580 320 QCURVE SMOOTH",
"1317 320 OFFCURVE",
"1264 464 QCURVE",
"1416 697 LINE",
"1310 912 OFFCURVE",
"989 1062 OFFCURVE",
"750 1062 QCURVE SMOOTH",
"625 1062 OFFCURVE",
"526 1035 QCURVE",
"448 1127 OFFCURVE"
);
}
);
width = 2330;
}
);
note = uni179F;
unicode = 179F;
},
{
glyphname = uni17A0;
layers = (
{
layerId = "B1070C97-2DE4-4FC8-9990-FF316D9539D4";
paths = (
{
closed = 1;
nodes = (
"2207 440 QCURVE SMOOTH",
"2197 456 OFFCURVE",
"2197 469 QCURVE SMOOTH",
"2197 483 OFFCURVE",
"2209 493 QCURVE SMOOTH",
"2231 512 OFFCURVE",
"2290 567 QCURVE",
"2290 450 LINE SMOOTH",
"2290 406 OFFCURVE",
"2259 406 QCURVE SMOOTH",
"2227 406 OFFCURVE"
);
},
{
closed = 1;
nodes = (
"1513 965 QCURVE SMOOTH",
"1432 1033 OFFCURVE",
"1310 1033 QCURVE SMOOTH",
"1226 1033 OFFCURVE",
"1121 1000 QCURVE",
"1173 1100 OFFCURVE",
"1297 1145 QCURVE SMOOTH",
"1420 1190 OFFCURVE",
"1561 1190 QCURVE SMOOTH",
"1731 1190 OFFCURVE",
"2011 1047 QCURVE SMOOTH",
"2290 904 OFFCURVE",
"2290 793 QCURVE SMOOTH",
"2290 629 OFFCURVE",
"2040 560 QCURVE SMOOTH",
"1790 491 OFFCURVE",
"1790 420 QCURVE SMOOTH",
"1790 307 OFFCURVE",
"1910 154 QCURVE SMOOTH",
"2029 0 OFFCURVE",
"2190 0 QCURVE SMOOTH",
"2270 0 OFFCURVE",
"2330 70 QCURVE SMOOTH",
"2390 140 OFFCURVE",
"2390 200 QCURVE SMOOTH",
"2390 1170 LINE SMOOTH",
"2390 1274 OFFCURVE",
"1906 1500 OFFCURVE",
"1636 1500 QCURVE SMOOTH",
"1416 1500 OFFCURVE",
"1020 1250 OFFCURVE",
"1020 1174 QCURVE SMOOTH",
"1020 650 LINE",
"1193 700 OFFCURVE",
"1297 700 QCURVE SMOOTH",
"1359 700 OFFCURVE",
"1398 683 QCURVE SMOOTH",
"1500 635 OFFCURVE",
"1500 580 QCURVE SMOOTH",
"1500 440 OFFCURVE",
"1255 320 OFFCURVE",
"1050 320 QCURVE SMOOTH",
"859 320 OFFCURVE",
"629 390 OFFCURVE",
"610 440 QCURVE",
"810 570 OFFCURVE",
"810 718 QCURVE SMOOTH",
"810 926 OFFCURVE",
"656 993 QCURVE SMOOTH",
"574 1028 OFFCURVE",
"463 1028 QCURVE SMOOTH",
"364 1028 OFFCURVE",
"241 1000 QCURVE",
"301 1130 OFFCURVE",
"380 1150 QCURVE SMOOTH",
"408 1157 OFFCURVE",
"436 1157 QCURVE SMOOTH",
"484 1157 OFFCURVE",
"529 1135 QCURVE SMOOTH",
"599 1100 OFFCURVE",
"692 1100 QCURVE SMOOTH",
"693 1100 OFFCURVE",
"695 1101 QCURVE",
"789 1101 OFFCURVE",
"898 1364 QCURVE",
"753 1381 OFFCURVE",
"526 1500 OFFCURVE",
"482 1500 QCURVE SMOOTH",
"438 1500 OFFCURVE",
"150 1300 OFFCURVE",
"150 1224 QCURVE SMOOTH",
"150 650 LINE",
"312 700 OFFCURVE",
"481 710 QCURVE SMOOTH",
"503 711 OFFCURVE",
"522 711 QCURVE SMOOTH",
"650 711 OFFCURVE",
"650 653 QCURVE SMOOTH",
"650 585 OFFCURVE",
"390 500 OFFCURVE",
"150 500 QCURVE",
"170 275 OFFCURVE",
"540 0 OFFCURVE",
"910 0 QCURVE SMOOTH",
"1250 0 OFFCURVE",
"1650 366 OFFCURVE",
"1650 601 QCURVE SMOOTH",
"1650 850 OFFCURVE"
);
}
);
width = 2540;
}
);
note = uni17A0;
unicode = 17A0;
},
{
glyphname = uni17A1;
layers = (
{
layerId = "B1070C97-2DE4-4FC8-9990-FF316D9539D4";
paths = (
{
closed = 1;
nodes = (
"591 395 QCURVE",
"810 540 OFFCURVE",
"810 718 QCURVE SMOOTH",
"810 926 OFFCURVE",
"656 993 QCURVE SMOOTH",
"558 1035 OFFCURVE",
"442 1035 QCURVE SMOOTH",
"375 1035 OFFCURVE",
"302 1021 QCURVE",
"395 1083 OFFCURVE",
"662 1190 OFFCURVE",
"953 1190 QCURVE SMOOTH",
"1177 1190 OFFCURVE",
"1501 1062 OFFCURVE",
"1501 995 QCURVE SMOOTH",
"1501 942 OFFCURVE",
"1418 942 QCURVE SMOOTH",
"1412 942 LINE SMOOTH",
"1330 944 OFFCURVE",
"1330 1007 QCURVE SMOOTH",
"1330 1014 OFFCURVE",
"1331 1021 QCURVE",
"1282 1090 OFFCURVE",
"1155 1090 QCURVE SMOOTH",
"1151 1090 LINE SMOOTH",
"960 1090 OFFCURVE",
"960 885 QCURVE SMOOTH",
"960 680 OFFCURVE",
"1264 680 QCURVE SMOOTH",
"1452 680 OFFCURVE",
"1650 906 OFFCURVE",
"1650 1008 QCURVE SMOOTH",
"1650 1190 OFFCURVE",
"1240 1500 OFFCURVE",
"949 1500 QCURVE SMOOTH",
"629 1500 OFFCURVE",
"240 1260 OFFCURVE",
"150 1116 QCURVE",
"150 650 LINE",
"312 700 OFFCURVE",
"481 710 QCURVE SMOOTH",
"503 711 OFFCURVE",
"522 711 QCURVE SMOOTH",
"650 711 OFFCURVE",
"650 653 QCURVE SMOOTH",
"650 585 OFFCURVE",
"440 500 OFFCURVE",
"250 500 QCURVE SMOOTH",
"150 500 LINE",
"150 368 LINE SMOOTH",
"150 235 OFFCURVE",
"295 118 QCURVE SMOOTH",
"440 0 OFFCURVE",
"620 0 QCURVE SMOOTH",
"890 0 OFFCURVE",
"1120 430 OFFCURVE",
"1250 430 QCURVE SMOOTH",
"1400 430 OFFCURVE",
"1400 365 QCURVE SMOOTH",
"1400 320 OFFCURVE",
"1350 320 QCURVE SMOOTH",
"1300 320 OFFCURVE",
"1300 370 QCURVE",
"1200 370 OFFCURVE",
"1150 320 QCURVE",
"1100 300 OFFCURVE",
"1100 200 QCURVE SMOOTH",
"1100 100 OFFCURVE",
"1162 50 QCURVE SMOOTH",
"1225 0 OFFCURVE",
"1350 0 QCURVE SMOOTH",
"1475 0 OFFCURVE",
"1650 195 OFFCURVE",
"1650 319 QCURVE SMOOTH",
"1650 443 OFFCURVE",
"1445 620 OFFCURVE",
"1320 620 QCURVE SMOOTH",
"1120 620 OFFCURVE",
"809 330 OFFCURVE",
"724 330 QCURVE SMOOTH",
"649 330 OFFCURVE"
);
},
{
closed = 1;
nodes = (
"2351 951 OFFCURVE",
"2213 1003 QCURVE SMOOTH",
"2146 1028 OFFCURVE",
"2082 1028 QCURVE SMOOTH",
"2015 1028 OFFCURVE",
"1951 1000 QCURVE",
"1981 1120 OFFCURVE",
"2030 1140 QCURVE SMOOTH",
"2047 1147 OFFCURVE",
"2066 1147 QCURVE SMOOTH",
"2100 1147 OFFCURVE",
"2139 1125 QCURVE SMOOTH",
"2199 1090 OFFCURVE",
"2282 1090 QCURVE SMOOTH",
"2283 1090 OFFCURVE",
"2285 1091 QCURVE",
"2369 1091 OFFCURVE",
"2450 1364 QCURVE",
"2357 1364 OFFCURVE",
"2130 1500 OFFCURVE",
"2094 1500 QCURVE SMOOTH",
"2058 1500 OFFCURVE",
"1850 1300 OFFCURVE",
"1850 1224 QCURVE SMOOTH",
"1850 650 LINE",
"1992 700 OFFCURVE",
"2089 700 QCURVE SMOOTH",
"2146 700 OFFCURVE",
"2188 683 QCURVE SMOOTH",
"2244 659 OFFCURVE",
"2250 633 QCURVE",
"2250 -350 LINE SMOOTH",
"2250 -480 OFFCURVE",
"2070 -480 QCURVE SMOOTH",
"1900 -480 OFFCURVE",
"1800 -340 QCURVE",
"1710 -480 OFFCURVE",
"1550 -480 QCURVE SMOOTH",
"1450 -480 OFFCURVE",
"1450 -440 QCURVE",
"1500 -350 OFFCURVE",
"1500 -250 QCURVE SMOOTH",
"1500 -100 OFFCURVE",
"1325 -100 QCURVE SMOOTH",
"1150 -100 OFFCURVE",
"1150 -250 QCURVE SMOOTH",
"1150 -350 OFFCURVE",
"1300 -350 QCURVE",
"1300 -280 OFFCURVE",
"1350 -280 QCURVE SMOOTH",
"1400 -280 OFFCURVE",
"1400 -305 QCURVE SMOOTH",
"1400 -306 LINE SMOOTH",
"1400 -331 OFFCURVE",
"1356 -385 QCURVE SMOOTH",
"1310 -440 OFFCURVE",
"1150 -440 QCURVE",
"1150 -700 OFFCURVE",
"1500 -700 QCURVE SMOOTH",
"1700 -700 OFFCURVE",
"1800 -550 QCURVE",
"1900 -700 OFFCURVE",
"2100 -700 QCURVE SMOOTH",
"2400 -700 OFFCURVE",
"2400 -400 QCURVE SMOOTH",
"2400 850 LINE"
);
}
);
width = 2550;
}
);
note = uni17A1;
unicode = 17A1;
},
{
glyphname = uni17A2;
layers = (
{
layerId = "B1070C97-2DE4-4FC8-9990-FF316D9539D4";
paths = (
{
closed = 1;
nodes = (
"567 440 QCURVE SMOOTH",
"557 456 OFFCURVE",
"557 469 QCURVE SMOOTH",
"557 483 OFFCURVE",
"569 493 QCURVE SMOOTH",
"591 512 OFFCURVE",
"650 567 QCURVE",
"650 450 LINE SMOOTH",
"650 406 OFFCURVE",
"619 406 QCURVE SMOOTH",
"587 406 OFFCURVE"
);
},
{
closed = 1;
nodes = (
"701 951 OFFCURVE",
"563 1003 QCURVE SMOOTH",
"496 1028 OFFCURVE",
"420 1028 QCURVE SMOOTH",
"340 1028 OFFCURVE",
"251 1000 QCURVE",
"281 1120 OFFCURVE",
"345 1140 QCURVE SMOOTH",
"368 1147 OFFCURVE",
"392 1147 QCURVE SMOOTH",
"434 1147 OFFCURVE",
"479 1125 QCURVE SMOOTH",
"549 1090 OFFCURVE",
"632 1090 QCURVE SMOOTH",
"633 1090 OFFCURVE",
"635 1091 QCURVE",
"719 1091 OFFCURVE",
"800 1364 QCURVE",
"707 1364 OFFCURVE",
"480 1500 OFFCURVE",
"444 1500 QCURVE SMOOTH",
"408 1500 OFFCURVE",
"150 1300 OFFCURVE",
"150 1224 QCURVE SMOOTH",
"150 650 LINE",
"323 700 OFFCURVE",
"432 700 QCURVE SMOOTH",
"496 700 OFFCURVE",
"538 683 QCURVE SMOOTH",
"594 659 OFFCURVE",
"622 633 QCURVE",
"617 633 LINE",
"358 470 OFFCURVE",
"150 450 QCURVE",
"150 307 OFFCURVE",
"270 154 QCURVE SMOOTH",
"389 0 OFFCURVE",
"550 0 QCURVE SMOOTH",
"630 0 OFFCURVE",
"750 140 QCURVE",
"750 850 LINE"
);
},
{
closed = 1;
nodes = (
"1467 440 QCURVE SMOOTH",
"1457 456 OFFCURVE",
"1457 469 QCURVE SMOOTH",
"1457 483 OFFCURVE",
"1469 493 QCURVE SMOOTH",
"1491 512 OFFCURVE",
"1550 567 QCURVE",
"1550 450 LINE SMOOTH",
"1550 406 OFFCURVE",
"1519 406 QCURVE SMOOTH",
"1487 406 OFFCURVE"
);
},
{
closed = 1;
nodes = (
"1601 951 OFFCURVE",
"1463 1003 QCURVE SMOOTH",
"1396 1028 OFFCURVE",
"1320 1028 QCURVE SMOOTH",
"1240 1028 OFFCURVE",
"1151 1000 QCURVE",
"1181 1120 OFFCURVE",
"1245 1140 QCURVE SMOOTH",
"1268 1147 OFFCURVE",
"1292 1147 QCURVE SMOOTH",
"1334 1147 OFFCURVE",
"1379 1125 QCURVE SMOOTH",
"1449 1090 OFFCURVE",
"1532 1090 QCURVE SMOOTH",
"1533 1090 OFFCURVE",
"1535 1091 QCURVE",
"1619 1091 OFFCURVE",
"1700 1364 QCURVE",
"1607 1364 OFFCURVE",
"1380 1500 OFFCURVE",
"1344 1500 QCURVE SMOOTH",
"1308 1500 OFFCURVE",
"1050 1300 OFFCURVE",
"1050 1224 QCURVE SMOOTH",
"1050 650 LINE",
"1223 700 OFFCURVE",
"1332 700 QCURVE SMOOTH",
"1396 700 OFFCURVE",
"1438 683 QCURVE SMOOTH",
"1494 659 OFFCURVE",
"1522 633 QCURVE",
"1517 633 LINE",
"1258 470 OFFCURVE",
"1050 450 QCURVE",
"1050 307 OFFCURVE",
"1170 154 QCURVE SMOOTH",
"1289 0 OFFCURVE",
"1450 0 QCURVE SMOOTH",
"1530 0 OFFCURVE",
"1650 140 QCURVE",
"1650 850 LINE"
);
},
{
closed = 1;
nodes = (
"811 653 QCURVE SMOOTH",
"811 542 OFFCURVE",
"756 455 QCURVE",
"833 444 OFFCURVE",
"896 444 QCURVE SMOOTH",
"1016 444 OFFCURVE",
"1086 483 QCURVE SMOOTH",
"1193 544 OFFCURVE",
"1223 671 QCURVE",
"1109 637 OFFCURVE",
"1019 632 QCURVE",
"1013 631 OFFCURVE",
"1007 631 QCURVE SMOOTH",
"921 631 OFFCURVE",
"808 707 QCURVE",
"811 680 OFFCURVE"
);
}
);
width = 1800;
}
);
note = uni17A2;
unicode = 17A2;
},
{
glyphname = uni17A3;
layers = (
{
layerId = "B1070C97-2DE4-4FC8-9990-FF316D9539D4";
paths = (
{
closed = 1;
nodes = (
"567 440 QCURVE SMOOTH",
"557 456 OFFCURVE",
"557 469 QCURVE SMOOTH",
"557 483 OFFCURVE",
"569 493 QCURVE SMOOTH",
"591 512 OFFCURVE",
"650 567 QCURVE",
"650 450 LINE SMOOTH",
"650 406 OFFCURVE",
"619 406 QCURVE SMOOTH",
"587 406 OFFCURVE"
);
},
{
closed = 1;
nodes = (
"701 951 OFFCURVE",
"563 1003 QCURVE SMOOTH",
"496 1028 OFFCURVE",
"420 1028 QCURVE SMOOTH",
"340 1028 OFFCURVE",
"251 1000 QCURVE",
"281 1120 OFFCURVE",
"345 1140 QCURVE SMOOTH",
"368 1147 OFFCURVE",
"392 1147 QCURVE SMOOTH",
"434 1147 OFFCURVE",
"479 1125 QCURVE SMOOTH",
"549 1090 OFFCURVE",
"632 1090 QCURVE SMOOTH",
"633 1090 OFFCURVE",
"635 1091 QCURVE",
"719 1091 OFFCURVE",
"800 1364 QCURVE",
"707 1364 OFFCURVE",
"480 1500 OFFCURVE",
"444 1500 QCURVE SMOOTH",
"408 1500 OFFCURVE",
"150 1300 OFFCURVE",
"150 1224 QCURVE SMOOTH",
"150 650 LINE",
"323 700 OFFCURVE",
"432 700 QCURVE SMOOTH",
"496 700 OFFCURVE",
"538 683 QCURVE SMOOTH",
"594 659 OFFCURVE",
"622 633 QCURVE",
"617 633 LINE",
"358 470 OFFCURVE",
"150 450 QCURVE",
"150 307 OFFCURVE",
"270 154 QCURVE SMOOTH",
"389 0 OFFCURVE",
"550 0 QCURVE SMOOTH",
"630 0 OFFCURVE",
"750 140 QCURVE",
"750 850 LINE"
);
},
{
closed = 1;
nodes = (
"1467 440 QCURVE SMOOTH",
"1457 456 OFFCURVE",
"1457 469 QCURVE SMOOTH",
"1457 483 OFFCURVE",
"1469 493 QCURVE SMOOTH",
"1491 512 OFFCURVE",
"1550 567 QCURVE",
"1550 450 LINE SMOOTH",
"1550 406 OFFCURVE",
"1519 406 QCURVE SMOOTH",
"1487 406 OFFCURVE"
);
},
{
closed = 1;
nodes = (
"1601 951 OFFCURVE",
"1463 1003 QCURVE SMOOTH",
"1396 1028 OFFCURVE",
"1320 1028 QCURVE SMOOTH",
"1240 1028 OFFCURVE",
"1151 1000 QCURVE",
"1181 1120 OFFCURVE",
"1245 1140 QCURVE SMOOTH",
"1268 1147 OFFCURVE",
"1292 1147 QCURVE SMOOTH",
"1334 1147 OFFCURVE",
"1379 1125 QCURVE SMOOTH",
"1449 1090 OFFCURVE",
"1532 1090 QCURVE SMOOTH",
"1533 1090 OFFCURVE",
"1535 1091 QCURVE",
"1619 1091 OFFCURVE",
"1700 1364 QCURVE",
"1607 1364 OFFCURVE",
"1380 1500 OFFCURVE",
"1344 1500 QCURVE SMOOTH",
"1308 1500 OFFCURVE",
"1050 1300 OFFCURVE",
"1050 1224 QCURVE SMOOTH",
"1050 650 LINE",
"1223 700 OFFCURVE",
"1332 700 QCURVE SMOOTH",
"1396 700 OFFCURVE",
"1438 683 QCURVE SMOOTH",
"1494 659 OFFCURVE",
"1522 633 QCURVE",
"1517 633 LINE",
"1258 470 OFFCURVE",
"1050 450 QCURVE",
"1050 307 OFFCURVE",
"1170 154 QCURVE SMOOTH",
"1289 0 OFFCURVE",
"1450 0 QCURVE SMOOTH",
"1530 0 OFFCURVE",
"1650 140 QCURVE",
"1650 850 LINE"
);
},
{
closed = 1;
nodes = (
"811 653 QCURVE SMOOTH",
"811 542 OFFCURVE",
"756 455 QCURVE",
"833 444 OFFCURVE",
"896 444 QCURVE SMOOTH",
"1016 444 OFFCURVE",
"1086 483 QCURVE SMOOTH",
"1193 544 OFFCURVE",
"1223 671 QCURVE",
"1109 637 OFFCURVE",
"1019 632 QCURVE",
"1013 631 OFFCURVE",
"1007 631 QCURVE SMOOTH",
"921 631 OFFCURVE",
"808 707 QCURVE",
"811 680 OFFCURVE"
);
}
);
width = 1800;
}
);
note = uni17A3;
unicode = 17A3;
},
{
glyphname = uni17A4;
layers = (
{
layerId = "B1070C97-2DE4-4FC8-9990-FF316D9539D4";
paths = (
{
closed = 1;
nodes = (
"567 440 QCURVE SMOOTH",
"557 456 OFFCURVE",
"557 469 QCURVE SMOOTH",
"557 483 OFFCURVE",
"569 493 QCURVE SMOOTH",
"591 512 OFFCURVE",
"650 567 QCURVE",
"650 450 LINE SMOOTH",
"650 406 OFFCURVE",
"619 406 QCURVE SMOOTH",
"587 406 OFFCURVE"
);
},
{
closed = 1;
nodes = (
"701 951 OFFCURVE",
"563 1003 QCURVE SMOOTH",
"496 1028 OFFCURVE",
"420 1028 QCURVE SMOOTH",
"340 1028 OFFCURVE",
"251 1000 QCURVE",
"281 1120 OFFCURVE",
"345 1140 QCURVE SMOOTH",
"368 1147 OFFCURVE",
"392 1147 QCURVE SMOOTH",
"434 1147 OFFCURVE",
"479 1125 QCURVE SMOOTH",
"549 1090 OFFCURVE",
"632 1090 QCURVE SMOOTH",
"633 1090 OFFCURVE",
"635 1091 QCURVE",
"719 1091 OFFCURVE",
"800 1364 QCURVE",
"707 1364 OFFCURVE",
"480 1500 OFFCURVE",
"444 1500 QCURVE SMOOTH",
"408 1500 OFFCURVE",
"150 1300 OFFCURVE",
"150 1224 QCURVE SMOOTH",
"150 650 LINE",
"323 700 OFFCURVE",
"432 700 QCURVE SMOOTH",
"496 700 OFFCURVE",
"538 683 QCURVE SMOOTH",
"594 659 OFFCURVE",
"622 633 QCURVE",
"617 633 LINE",
"358 470 OFFCURVE",
"150 450 QCURVE",
"150 307 OFFCURVE",
"270 154 QCURVE SMOOTH",
"389 0 OFFCURVE",
"550 0 QCURVE SMOOTH",
"630 0 OFFCURVE",
"750 140 QCURVE",
"750 850 LINE"
);
},
{
closed = 1;
nodes = (
"811 653 QCURVE SMOOTH",
"811 542 OFFCURVE",
"756 455 QCURVE",
"833 444 OFFCURVE",
"896 444 QCURVE SMOOTH",
"1016 444 OFFCURVE",
"1086 483 QCURVE SMOOTH",
"1193 544 OFFCURVE",
"1223 671 QCURVE",
"1109 637 OFFCURVE",
"1019 632 QCURVE",
"1013 631 OFFCURVE",
"1007 631 QCURVE SMOOTH",
"921 631 OFFCURVE",
"808 707 QCURVE",
"811 680 OFFCURVE"
);
},
{
closed = 1;
nodes = (
"1519 406 QCURVE SMOOTH",
"1487 406 OFFCURVE",
"1467 440 QCURVE SMOOTH",
"1457 456 OFFCURVE",
"1457 469 QCURVE SMOOTH",
"1457 483 OFFCURVE",
"1469 493 QCURVE SMOOTH",
"1491 512 OFFCURVE",
"1550 567 QCURVE",
"1550 450 LINE SMOOTH",
"1550 406 OFFCURVE"
);
},
{
closed = 1;
nodes = (
"2259 406 QCURVE SMOOTH",
"2227 406 OFFCURVE",
"2207 440 QCURVE SMOOTH",
"2197 456 OFFCURVE",
"2197 469 QCURVE SMOOTH",
"2197 483 OFFCURVE",
"2209 493 QCURVE SMOOTH",
"2231 512 OFFCURVE",
"2290 567 QCURVE",
"2290 450 LINE SMOOTH",
"2290 406 OFFCURVE"
);
},
{
closed = 1;
nodes = (
"1313 1145 QCURVE SMOOTH",
"1426 1189 OFFCURVE",
"1574 1189 QCURVE SMOOTH",
"1581 1189 LINE SMOOTH",
"1732 1189 OFFCURVE",
"2011 1047 QCURVE SMOOTH",
"2290 904 OFFCURVE",
"2290 793 QCURVE SMOOTH",
"2290 629 OFFCURVE",
"2040 560 QCURVE SMOOTH",
"1790 491 OFFCURVE",
"1790 420 QCURVE SMOOTH",
"1790 307 OFFCURVE",
"1910 154 QCURVE SMOOTH",
"2029 0 OFFCURVE",
"2190 0 QCURVE SMOOTH",
"2270 0 OFFCURVE",
"2330 70 QCURVE SMOOTH",
"2390 140 OFFCURVE",
"2390 200 QCURVE SMOOTH",
"2390 1170 LINE SMOOTH",
"2390 1274 OFFCURVE",
"1906 1500 OFFCURVE",
"1636 1500 QCURVE SMOOTH",
"1426 1500 OFFCURVE",
"1050 1250 OFFCURVE",
"1050 1174 QCURVE SMOOTH",
"1050 650 LINE",
"1223 700 OFFCURVE",
"1332 700 QCURVE SMOOTH",
"1396 700 OFFCURVE",
"1438 683 QCURVE SMOOTH",
"1494 659 OFFCURVE",
"1522 633 QCURVE",
"1517 633 LINE",
"1258 470 OFFCURVE",
"1050 450 QCURVE",
"1050 307 OFFCURVE",
"1170 154 QCURVE SMOOTH",
"1289 0 OFFCURVE",
"1450 0 QCURVE SMOOTH",
"1530 0 OFFCURVE",
"1650 140 QCURVE",
"1650 850 LINE",
"1601 951 OFFCURVE",
"1463 1003 QCURVE SMOOTH",
"1396 1028 OFFCURVE",
"1320 1028 QCURVE SMOOTH",
"1240 1028 OFFCURVE",
"1151 1000 QCURVE",
"1195 1100 OFFCURVE"
);
}
);
width = 2540;
}
);
note = uni17A4;
unicode = 17A4;
},
{
glyphname = uni17A5;
layers = (
{
layerId = "B1070C97-2DE4-4FC8-9990-FF316D9539D4";
paths = (
{
closed = 1;
nodes = (
"1457 456 OFFCURVE",
"1457 469 QCURVE SMOOTH",
"1457 483 OFFCURVE",
"1469 493 QCURVE SMOOTH",
"1491 512 OFFCURVE",
"1550 567 QCURVE",
"1550 450 LINE SMOOTH",
"1550 406 OFFCURVE",
"1519 406 QCURVE SMOOTH",
"1487 406 OFFCURVE",
"1467 440 QCURVE SMOOTH"
);
},
{
closed = 1;
nodes = (
"150 495 QCURVE SMOOTH",
"150 0 OFFCURVE",
"590 0 QCURVE SMOOTH",
"769 0 OFFCURVE",
"868 157 QCURVE SMOOTH",
"926 250 OFFCURVE",
"926 347 QCURVE SMOOTH",
"926 414 OFFCURVE",
"899 483 QCURVE SMOOTH",
"839 636 OFFCURVE",
"658 636 QCURVE SMOOTH",
"638 636 OFFCURVE",
"616 634 QCURVE SMOOTH",
"400 614 OFFCURVE",
"400 461 QCURVE SMOOTH",
"400 312 OFFCURVE",
"582 312 QCURVE SMOOTH",
"594 312 LINE",
"581 260 OFFCURVE",
"538 260 QCURVE SMOOTH",
"300 260 OFFCURVE",
"300 420 QCURVE SMOOTH",
"300 580 OFFCURVE",
"545 710 OFFCURVE",
"796 710 QCURVE SMOOTH",
"1046 710 OFFCURVE",
"1517 633 QCURVE",
"1258 470 OFFCURVE",
"1050 450 QCURVE",
"1050 307 OFFCURVE",
"1170 154 QCURVE SMOOTH",
"1289 0 OFFCURVE",
"1450 0 QCURVE SMOOTH",
"1530 0 OFFCURVE",
"1650 140 QCURVE",
"1650 980 LINE",
"1122 1060 OFFCURVE",
"845 1060 QCURVE SMOOTH",
"568 1060 OFFCURVE",
"150 810 OFFCURVE"
);
},
{
closed = 1;
nodes = (
"160 1014 OFFCURVE",
"171 1014 QCURVE SMOOTH",
"235 1014 OFFCURVE",
"327 928 QCURVE",
"413 995 LINE",
"353 1077 OFFCURVE",
"279 1090 QCURVE",
"380 1188 OFFCURVE",
"545 1188 QCURVE SMOOTH",
"680 1188 OFFCURVE",
"1011 1064 OFFCURVE",
"1176 1064 QCURVE SMOOTH",
"1333 1064 OFFCURVE",
"1650 1331 OFFCURVE",
"1650 1469 QCURVE SMOOTH",
"1650 1607 OFFCURVE",
"1440 1759 OFFCURVE",
"1316 1759 QCURVE SMOOTH",
"1191 1759 OFFCURVE",
"1141 1662 QCURVE SMOOTH",
"1128 1638 OFFCURVE",
"1128 1616 QCURVE SMOOTH",
"1128 1548 OFFCURVE",
"1246 1500 QCURVE SMOOTH",
"1401 1436 OFFCURVE",
"1401 1360 QCURVE SMOOTH",
"1401 1283 OFFCURVE",
"1339 1283 QCURVE SMOOTH",
"1267 1283 OFFCURVE",
"851 1512 OFFCURVE",
"699 1513 QCURVE SMOOTH",
"546 1513 OFFCURVE",
"224 1326 OFFCURVE",
"150 1199 QCURVE",
"150 1012 LINE"
);
}
);
width = 1800;
}
);
note = uni17A5;
unicode = 17A5;
},
{
glyphname = uni17A6;
layers = (
{
layerId = "B1070C97-2DE4-4FC8-9990-FF316D9539D4";
paths = (
{
closed = 1;
nodes = (
"1467 440 QCURVE SMOOTH",
"1457 456 OFFCURVE",
"1457 469 QCURVE SMOOTH",
"1457 483 OFFCURVE",
"1469 493 QCURVE SMOOTH",
"1491 512 OFFCURVE",
"1550 567 QCURVE",
"1550 450 LINE SMOOTH",
"1550 406 OFFCURVE",
"1519 406 QCURVE SMOOTH",
"1487 406 OFFCURVE"
);
},
{
closed = 1;
nodes = (
"577 903 QCURVE SMOOTH",
"375 903 OFFCURVE",
"375 665 QCURVE SMOOTH",
"375 487 OFFCURVE",
"517 487 QCURVE SMOOTH",
"593 487 OFFCURVE",
"620 518 QCURVE SMOOTH",
"634 535 OFFCURVE",
"650 535 QCURVE SMOOTH",
"661 535 OFFCURVE",
"673 525 QCURVE SMOOTH",
"700 501 OFFCURVE",
"700 461 QCURVE SMOOTH",
"700 392 OFFCURVE",
"550 377 QCURVE SMOOTH",
"532 375 OFFCURVE",
"514 375 QCURVE SMOOTH",
"393 375 OFFCURVE",
"340 469 QCURVE SMOOTH",
"280 576 OFFCURVE",
"280 750 QCURVE SMOOTH",
"280 920 OFFCURVE",
"553 1150 OFFCURVE",
"912 1150 QCURVE SMOOTH",
"1270 1150 OFFCURVE",
"1550 904 OFFCURVE",
"1550 793 QCURVE SMOOTH",
"1550 629 OFFCURVE",
"1300 560 QCURVE SMOOTH",
"1050 491 OFFCURVE",
"1050 420 QCURVE SMOOTH",
"1050 307 OFFCURVE",
"1170 154 QCURVE SMOOTH",
"1289 0 OFFCURVE",
"1450 0 QCURVE SMOOTH",
"1530 0 OFFCURVE",
"1590 70 QCURVE SMOOTH",
"1650 140 OFFCURVE",
"1650 200 QCURVE SMOOTH",
"1650 1170 LINE SMOOTH",
"1650 1274 OFFCURVE",
"1320 1500 OFFCURVE",
"900 1500 QCURVE SMOOTH",
"479 1500 OFFCURVE",
"150 1110 OFFCURVE",
"150 750 QCURVE SMOOTH",
"150 0 OFFCURVE",
"531 0 QCURVE SMOOTH",
"800 0 OFFCURVE",
"800 558 QCURVE SMOOTH",
"800 903 OFFCURVE"
);
},
{
closed = 1;
nodes = (
"1340 -462 LINE",
"1273 -457 OFFCURVE",
"1254 -410 QCURVE",
"1340 -410 LINE"
);
},
{
closed = 1;
nodes = (
"2550 850 OFFCURVE",
"2393 965 QCURVE SMOOTH",
"2300 1033 OFFCURVE",
"2174 1033 QCURVE SMOOTH",
"2086 1033 OFFCURVE",
"1981 1000 QCURVE",
"2011 1120 OFFCURVE",
"2085 1140 QCURVE SMOOTH",
"2111 1147 OFFCURVE",
"2138 1147 QCURVE SMOOTH",
"2184 1147 OFFCURVE",
"2229 1125 QCURVE SMOOTH",
"2299 1090 OFFCURVE",
"2382 1090 QCURVE SMOOTH",
"2383 1090 OFFCURVE",
"2385 1091 QCURVE",
"2469 1091 OFFCURVE",
"2550 1310 OFFCURVE",
"2550 1484 QCURVE SMOOTH",
"2550 1729 OFFCURVE",
"2340 1889 OFFCURVE",
"2216 1889 QCURVE SMOOTH",
"2091 1889 OFFCURVE",
"2068 1765 QCURVE SMOOTH",
"2064 1747 OFFCURVE",
"2064 1731 QCURVE SMOOTH",
"2064 1632 OFFCURVE",
"2187 1583 QCURVE",
"2240 1594 OFFCURVE",
"2279 1594 QCURVE SMOOTH",
"2400 1594 OFFCURVE",
"2400 1489 QCURVE SMOOTH",
"2400 1447 OFFCURVE",
"2367 1433 QCURVE SMOOTH",
"2358 1429 OFFCURVE",
"2347 1429 QCURVE SMOOTH",
"2317 1429 OFFCURVE",
"2272 1459 QCURVE SMOOTH",
"2210 1500 OFFCURVE",
"2174 1500 QCURVE SMOOTH",
"2138 1500 OFFCURVE",
"1880 1300 OFFCURVE",
"1880 1224 QCURVE SMOOTH",
"1880 650 LINE",
"2053 700 OFFCURVE",
"2165 700 QCURVE SMOOTH",
"2232 700 OFFCURVE",
"2278 683 QCURVE SMOOTH",
"2400 635 OFFCURVE",
"2400 580 QCURVE SMOOTH",
"2400 -150 LINE SMOOTH",
"2400 -300 OFFCURVE",
"2288 -375 QCURVE SMOOTH",
"2175 -450 OFFCURVE",
"1950 -450 QCURVE SMOOTH",
"1935 -450 LINE SMOOTH",
"1676 -450 OFFCURVE",
"1648 -416 QCURVE SMOOTH",
"1618 -382 OFFCURVE",
"1567 -348 QCURVE SMOOTH",
"1516 -314 OFFCURVE",
"1450 -314 QCURVE",
"1450 -195 LINE SMOOTH",
"1450 -129 OFFCURVE",
"1194 -53 OFFCURVE",
"945 -53 QCURVE SMOOTH",
"939 -53 LINE SMOOTH",
"643 -53 OFFCURVE",
"497 -150 QCURVE SMOOTH",
"351 -247 OFFCURVE",
"350 -409 QCURVE SMOOTH",
"350 -535 OFFCURVE",
"442 -617 QCURVE SMOOTH",
"533 -700 OFFCURVE",
"637 -700 QCURVE SMOOTH",
"863 -700 OFFCURVE",
"863 -524 QCURVE SMOOTH",
"863 -445 OFFCURVE",
"808 -395 QCURVE SMOOTH",
"753 -344 OFFCURVE",
"680 -344 QCURVE SMOOTH",
"607 -344 OFFCURVE",
"571 -386 QCURVE SMOOTH",
"547 -415 OFFCURVE",
"547 -442 QCURVE SMOOTH",
"547 -455 OFFCURVE",
"552 -467 QCURVE",
"475 -467 OFFCURVE",
"475 -412 QCURVE SMOOTH",
"475 -345 OFFCURVE",
"702 -279 OFFCURVE",
"929 -279 QCURVE SMOOTH",
"1298 -279 OFFCURVE",
"1340 -314 QCURVE",
"1193 -314 LINE SMOOTH",
"1047 -314 OFFCURVE",
"1010 -428 QCURVE",
"1081 -700 OFFCURVE",
"1268 -700 QCURVE SMOOTH",
"1354 -700 OFFCURVE",
"1450 -571 OFFCURVE",
"1450 -475 QCURVE SMOOTH",
"1450 -410 LINE",
"1509 -410 OFFCURVE",
"1534 -493 QCURVE SMOOTH",
"1559 -575 OFFCURVE",
"1690 -699 OFFCURVE",
"1950 -700 QCURVE SMOOTH",
"2200 -700 OFFCURVE",
"2350 -625 QCURVE SMOOTH",
"2500 -550 OFFCURVE",
"2550 -400 QCURVE",
"2550 601 LINE SMOOTH"
);
}
);
width = 2700;
}
);
note = uni17A6;
unicode = 17A6;
},
{
glyphname = uni17A7;
layers = (
{
layerId = "B1070C97-2DE4-4FC8-9990-FF316D9539D4";
paths = (
{
closed = 1;
nodes = (
"150 520 QCURVE",
"150 398 LINE SMOOTH",
"150 275 OFFCURVE",
"550 0 OFFCURVE",
"800 0 QCURVE SMOOTH",
"1150 0 OFFCURVE",
"1310 294 QCURVE",
"1310 0 OFFCURVE",
"1260 0 QCURVE",
"1357 -25 OFFCURVE",
"1430 -25 QCURVE SMOOTH",
"1649 -25 OFFCURVE",
"1650 200 QCURVE SMOOTH",
"1650 630 LINE SMOOTH",
"1650 688 OFFCURVE",
"1572 688 QCURVE SMOOTH",
"1487 688 OFFCURVE",
"1310 620 QCURVE",
"1310 475 OFFCURVE",
"1102 310 OFFCURVE",
"890 310 QCURVE SMOOTH",
"799 310 OFFCURVE",
"659 350 OFFCURVE",
"640 400 QCURVE",
"890 467 OFFCURVE",
"1650 870 OFFCURVE",
"1650 1089 QCURVE SMOOTH",
"1650 1500 OFFCURVE",
"900 1500 QCURVE SMOOTH",
"150 1500 OFFCURVE",
"150 1040 QCURVE SMOOTH",
"150 720 OFFCURVE",
"658 720 QCURVE SMOOTH",
"729 720 OFFCURVE",
"858 770 OFFCURVE",
"930 859 OFFCURVE",
"930 908 QCURVE SMOOTH",
"930 957 OFFCURVE",
"856 1047 OFFCURVE",
"726 1096 OFFCURVE",
"658 1096 QCURVE SMOOTH",
"589 1096 OFFCURVE",
"459 1047 OFFCURVE",
"386 957 OFFCURVE",
"386 908 QCURVE SMOOTH",
"386 899 LINE",
"350 943 OFFCURVE",
"350 1020 QCURVE SMOOTH",
"350 1200 OFFCURVE",
"800 1200 QCURVE SMOOTH",
"1250 1200 OFFCURVE",
"1250 1009 QCURVE SMOOTH",
"1250 833 OFFCURVE",
"600 550 OFFCURVE"
);
}
);
width = 1800;
}
);
note = uni17A7;
unicode = 17A7;
},
{
glyphname = uni17A8;
layers = (
{
layerId = "B1070C97-2DE4-4FC8-9990-FF316D9539D4";
paths = (
{
closed = 1;
nodes = (
"150 520 QCURVE",
"150 398 LINE SMOOTH",
"150 275 OFFCURVE",
"550 0 OFFCURVE",
"800 0 QCURVE SMOOTH",
"1150 0 OFFCURVE",
"1310 294 QCURVE",
"1310 0 OFFCURVE",
"1260 0 QCURVE",
"1357 -25 OFFCURVE",
"1430 -25 QCURVE SMOOTH",
"1649 -25 OFFCURVE",
"1650 200 QCURVE SMOOTH",
"1650 630 LINE SMOOTH",
"1650 688 OFFCURVE",
"1572 688 QCURVE SMOOTH",
"1487 688 OFFCURVE",
"1310 620 QCURVE",
"1310 475 OFFCURVE",
"1102 310 OFFCURVE",
"890 310 QCURVE SMOOTH",
"799 310 OFFCURVE",
"659 350 OFFCURVE",
"640 400 QCURVE",
"890 467 OFFCURVE",
"1650 870 OFFCURVE",
"1650 1089 QCURVE SMOOTH",
"1650 1500 OFFCURVE",
"900 1500 QCURVE SMOOTH",
"150 1500 OFFCURVE",
"150 1040 QCURVE SMOOTH",
"150 720 OFFCURVE",
"658 720 QCURVE SMOOTH",
"729 720 OFFCURVE",
"858 770 OFFCURVE",
"930 859 OFFCURVE",
"930 908 QCURVE SMOOTH",
"930 957 OFFCURVE",
"856 1047 OFFCURVE",
"726 1096 OFFCURVE",
"658 1096 QCURVE SMOOTH",
"589 1096 OFFCURVE",
"459 1047 OFFCURVE",
"386 957 OFFCURVE",
"386 908 QCURVE SMOOTH",
"386 899 LINE",
"350 943 OFFCURVE",
"350 1020 QCURVE SMOOTH",
"350 1200 OFFCURVE",
"800 1200 QCURVE SMOOTH",
"1250 1200 OFFCURVE",
"1250 1009 QCURVE SMOOTH",
"1250 833 OFFCURVE",
"600 550 OFFCURVE"
);
},
{
closed = 1;
nodes = (
"411 1656 OFFCURVE",
"307 1664 QCURVE",
"377 1702 OFFCURVE",
"417 1702 QCURVE SMOOTH",
"456 1702 OFFCURVE",
"592 1613 QCURVE SMOOTH",
"728 1524 OFFCURVE",
"792 1524 QCURVE SMOOTH",
"855 1524 OFFCURVE",
"953 1607 QCURVE SMOOTH",
"1050 1690 OFFCURVE",
"1091 1690 QCURVE SMOOTH",
"1131 1690 OFFCURVE",
"1270 1630 QCURVE SMOOTH",
"1408 1570 OFFCURVE",
"1515 1570 QCURVE SMOOTH",
"1642 1570 OFFCURVE",
"1750 1820 QCURVE",
"1632 1820 OFFCURVE",
"1493 1895 QCURVE SMOOTH",
"1354 1970 OFFCURVE",
"1291 1970 QCURVE SMOOTH",
"1227 1970 OFFCURVE",
"1119 1880 QCURVE SMOOTH",
"1011 1790 OFFCURVE",
"964 1790 QCURVE SMOOTH",
"917 1790 OFFCURVE",
"780 1880 QCURVE SMOOTH",
"642 1970 OFFCURVE",
"554 1970 QCURVE SMOOTH",
"465 1970 OFFCURVE",
"150 1730 QCURVE",
"150 1524 LINE",
"167 1527 OFFCURVE",
"185 1527 QCURVE SMOOTH",
"285 1527 OFFCURVE",
"418 1447 QCURVE",
"507 1572 LINE"
);
}
);
width = 1800;
}
);
note = uni17A8;
unicode = 17A8;
},
{
glyphname = uni17A9;
layers = (
{
layerId = "B1070C97-2DE4-4FC8-9990-FF316D9539D4";
paths = (
{
closed = 1;
nodes = (
"600 550 OFFCURVE",
"150 520 QCURVE",
"150 398 LINE SMOOTH",
"150 275 OFFCURVE",
"550 0 OFFCURVE",
"800 0 QCURVE SMOOTH",
"1150 0 OFFCURVE",
"1310 294 QCURVE",
"1310 0 OFFCURVE",
"1260 0 QCURVE",
"1357 -25 OFFCURVE",
"1430 -25 QCURVE SMOOTH",
"1649 -25 OFFCURVE",
"1650 200 QCURVE SMOOTH",
"1650 630 LINE SMOOTH",
"1650 688 OFFCURVE",
"1572 688 QCURVE SMOOTH",
"1487 688 OFFCURVE",
"1310 620 QCURVE",
"1310 475 OFFCURVE",
"1102 310 OFFCURVE",
"890 310 QCURVE SMOOTH",
"799 310 OFFCURVE",
"659 350 OFFCURVE",
"640 400 QCURVE",
"890 467 OFFCURVE",
"1650 870 OFFCURVE",
"1650 1089 QCURVE SMOOTH",
"1650 1500 OFFCURVE",
"900 1500 QCURVE SMOOTH",
"150 1500 OFFCURVE",
"150 1040 QCURVE SMOOTH",
"150 720 OFFCURVE",
"658 720 QCURVE SMOOTH",
"729 720 OFFCURVE",
"858 770 OFFCURVE",
"930 859 OFFCURVE",
"930 908 QCURVE SMOOTH",
"930 957 OFFCURVE",
"856 1047 OFFCURVE",
"726 1096 OFFCURVE",
"658 1096 QCURVE SMOOTH",
"589 1096 OFFCURVE",
"459 1047 OFFCURVE",
"386 957 OFFCURVE",
"386 908 QCURVE SMOOTH",
"386 899 LINE",
"350 943 OFFCURVE",
"350 1020 QCURVE SMOOTH",
"350 1200 OFFCURVE",
"800 1200 QCURVE SMOOTH",
"1250 1200 OFFCURVE",
"1250 1009 QCURVE SMOOTH",
"1250 833 OFFCURVE"
);
},
{
closed = 1;
nodes = (
"1900 580 LINE SMOOTH",
"1900 681 OFFCURVE",
"1750 681 QCURVE",
"1750 0 LINE",
"1900 0 LINE"
);
}
);
width = 1900;
}
);
note = uni17A9;
unicode = 17A9;
},
{
glyphname = uni17AA;
layers = (
{
layerId = "B1070C97-2DE4-4FC8-9990-FF316D9539D4";
paths = (
{
closed = 1;
nodes = (
"150 520 QCURVE",
"150 398 LINE SMOOTH",
"150 275 OFFCURVE",
"550 0 OFFCURVE",
"800 0 QCURVE SMOOTH",
"1150 0 OFFCURVE",
"1310 294 QCURVE",
"1310 0 OFFCURVE",
"1260 0 QCURVE",
"1357 -25 OFFCURVE",
"1430 -25 QCURVE SMOOTH",
"1649 -25 OFFCURVE",
"1650 200 QCURVE SMOOTH",
"1650 630 LINE SMOOTH",
"1650 688 OFFCURVE",
"1572 688 QCURVE SMOOTH",
"1487 688 OFFCURVE",
"1310 620 QCURVE",
"1310 475 OFFCURVE",
"1102 310 OFFCURVE",
"890 310 QCURVE SMOOTH",
"799 310 OFFCURVE",
"659 350 OFFCURVE",
"640 400 QCURVE",
"890 467 OFFCURVE",
"1650 870 OFFCURVE",
"1650 1089 QCURVE SMOOTH",
"1650 1500 OFFCURVE",
"900 1500 QCURVE SMOOTH",
"150 1500 OFFCURVE",
"150 1040 QCURVE SMOOTH",
"150 720 OFFCURVE",
"658 720 QCURVE SMOOTH",
"729 720 OFFCURVE",
"858 770 OFFCURVE",
"930 859 OFFCURVE",
"930 908 QCURVE SMOOTH",
"930 957 OFFCURVE",
"856 1047 OFFCURVE",
"726 1096 OFFCURVE",
"658 1096 QCURVE SMOOTH",
"589 1096 OFFCURVE",
"459 1047 OFFCURVE",
"386 957 OFFCURVE",
"386 908 QCURVE SMOOTH",
"386 899 LINE",
"350 943 OFFCURVE",
"350 1020 QCURVE SMOOTH",
"350 1200 OFFCURVE",
"800 1200 QCURVE SMOOTH",
"1250 1200 OFFCURVE",
"1250 1009 QCURVE SMOOTH",
"1250 833 OFFCURVE",
"600 550 OFFCURVE"
);
},
{
closed = 1;
nodes = (
"160 1504 OFFCURVE",
"171 1504 QCURVE SMOOTH",
"235 1504 OFFCURVE",
"327 1418 QCURVE",
"413 1485 LINE",
"353 1567 OFFCURVE",
"279 1580 QCURVE",
"380 1678 OFFCURVE",
"545 1678 QCURVE SMOOTH",
"680 1678 OFFCURVE",
"1011 1554 OFFCURVE",
"1176 1554 QCURVE SMOOTH",
"1333 1554 OFFCURVE",
"1650 1821 OFFCURVE",
"1650 1959 QCURVE SMOOTH",
"1650 2097 OFFCURVE",
"1440 2249 OFFCURVE",
"1316 2249 QCURVE SMOOTH",
"1191 2249 OFFCURVE",
"1141 2152 QCURVE SMOOTH",
"1128 2128 OFFCURVE",
"1128 2106 QCURVE SMOOTH",
"1128 2038 OFFCURVE",
"1246 1990 QCURVE SMOOTH",
"1401 1926 OFFCURVE",
"1401 1850 QCURVE SMOOTH",
"1401 1773 OFFCURVE",
"1339 1773 QCURVE SMOOTH",
"1267 1773 OFFCURVE",
"851 2002 OFFCURVE",
"699 2003 QCURVE SMOOTH",
"546 2003 OFFCURVE",
"224 1816 OFFCURVE",
"150 1689 QCURVE",
"150 1502 LINE"
);
}
);
width = 1800;
}
);
note = uni17AA;
unicode = 17AA;
},
{
glyphname = uni17AB;
layers = (
{
layerId = "B1070C97-2DE4-4FC8-9990-FF316D9539D4";
paths = (
{
closed = 1;
nodes = (
"312 700 OFFCURVE",
"481 710 QCURVE SMOOTH",
"503 711 OFFCURVE",
"522 711 QCURVE SMOOTH",
"650 711 OFFCURVE",
"650 653 QCURVE SMOOTH",
"650 585 OFFCURVE",
"390 500 OFFCURVE",
"150 500 QCURVE",
"170 275 OFFCURVE",
"540 0 OFFCURVE",
"910 0 QCURVE SMOOTH",
"1250 0 OFFCURVE",
"1650 366 OFFCURVE",
"1650 601 QCURVE SMOOTH",
"1650 850 OFFCURVE",
"1493 965 QCURVE SMOOTH",
"1400 1033 OFFCURVE",
"1274 1033 QCURVE SMOOTH",
"1186 1033 OFFCURVE",
"1081 1000 QCURVE",
"1111 1120 OFFCURVE",
"1185 1140 QCURVE SMOOTH",
"1211 1147 OFFCURVE",
"1238 1147 QCURVE SMOOTH",
"1284 1147 OFFCURVE",
"1329 1125 QCURVE SMOOTH",
"1399 1090 OFFCURVE",
"1482 1090 QCURVE SMOOTH",
"1483 1090 OFFCURVE",
"1485 1091 QCURVE",
"1569 1091 OFFCURVE",
"1648 1364 QCURVE",
"1557 1364 OFFCURVE",
"1310 1500 OFFCURVE",
"1274 1500 QCURVE SMOOTH",
"1238 1500 OFFCURVE",
"980 1300 OFFCURVE",
"980 1224 QCURVE SMOOTH",
"980 650 LINE",
"1153 700 OFFCURVE",
"1265 700 QCURVE SMOOTH",
"1332 700 OFFCURVE",
"1378 683 QCURVE SMOOTH",
"1500 635 OFFCURVE",
"1500 580 QCURVE SMOOTH",
"1500 440 OFFCURVE",
"1255 320 OFFCURVE",
"1050 320 QCURVE SMOOTH",
"859 320 OFFCURVE",
"629 390 OFFCURVE",
"610 440 QCURVE",
"810 570 OFFCURVE",
"810 718 QCURVE SMOOTH",
"810 926 OFFCURVE",
"656 993 QCURVE SMOOTH",
"574 1028 OFFCURVE",
"463 1028 QCURVE SMOOTH",
"364 1028 OFFCURVE",
"241 1000 QCURVE",
"301 1130 OFFCURVE",
"380 1150 QCURVE SMOOTH",
"408 1157 OFFCURVE",
"436 1157 QCURVE SMOOTH",
"484 1157 OFFCURVE",
"529 1135 QCURVE SMOOTH",
"599 1100 OFFCURVE",
"692 1100 QCURVE SMOOTH",
"693 1100 OFFCURVE",
"695 1101 QCURVE",
"789 1101 OFFCURVE",
"898 1364 QCURVE",
"753 1381 OFFCURVE",
"526 1500 OFFCURVE",
"482 1500 QCURVE SMOOTH",
"438 1500 OFFCURVE",
"150 1300 OFFCURVE",
"150 1224 QCURVE SMOOTH",
"150 650 LINE"
);
},
{
closed = 1;
nodes = (
"1588 -62 QCURVE SMOOTH",
"1525 0 OFFCURVE",
"1400 0 QCURVE SMOOTH",
"1266 0 OFFCURVE",
"1198 -38 QCURVE SMOOTH",
"1131 -75 OFFCURVE",
"1131 -150 QCURVE SMOOTH",
"1131 -250 OFFCURVE",
"1351 -250 QCURVE",
"1351 -150 OFFCURVE",
"1419 -150 QCURVE SMOOTH",
"1501 -150 OFFCURVE",
"1501 -250 QCURVE SMOOTH",
"1501 -300 OFFCURVE",
"1411 -325 QCURVE SMOOTH",
"1322 -350 OFFCURVE",
"1144 -350 QCURVE SMOOTH",
"647 -350 OFFCURVE",
"399 -422 QCURVE SMOOTH",
"151 -495 OFFCURVE",
"151 -666 QCURVE SMOOTH",
"151 -838 OFFCURVE",
"451 -897 QCURVE",
"451 -698 OFFCURVE",
"624 -599 QCURVE SMOOTH",
"797 -500 OFFCURVE",
"1144 -500 QCURVE SMOOTH",
"1397 -500 OFFCURVE",
"1523 -438 QCURVE SMOOTH",
"1650 -375 OFFCURVE",
"1650 -250 QCURVE SMOOTH",
"1650 -125 OFFCURVE"
);
}
);
width = 1800;
}
);
note = uni17AB;
unicode = 17AB;
},
{
glyphname = uni17AC;
layers = (
{
layerId = "B1070C97-2DE4-4FC8-9990-FF316D9539D4";
paths = (
{
closed = 1;
nodes = (
"312 700 OFFCURVE",
"481 710 QCURVE SMOOTH",
"503 711 OFFCURVE",
"522 711 QCURVE SMOOTH",
"650 711 OFFCURVE",
"650 653 QCURVE SMOOTH",
"650 585 OFFCURVE",
"390 500 OFFCURVE",
"150 500 QCURVE",
"170 275 OFFCURVE",
"540 0 OFFCURVE",
"910 0 QCURVE SMOOTH",
"1250 0 OFFCURVE",
"1650 366 OFFCURVE",
"1650 601 QCURVE SMOOTH",
"1650 850 OFFCURVE",
"1493 965 QCURVE SMOOTH",
"1400 1033 OFFCURVE",
"1274 1033 QCURVE SMOOTH",
"1186 1033 OFFCURVE",
"1081 1000 QCURVE",
"1111 1120 OFFCURVE",
"1185 1140 QCURVE SMOOTH",
"1211 1147 OFFCURVE",
"1238 1147 QCURVE SMOOTH",
"1284 1147 OFFCURVE",
"1329 1125 QCURVE SMOOTH",
"1399 1090 OFFCURVE",
"1482 1090 QCURVE SMOOTH",
"1483 1090 OFFCURVE",
"1485 1091 QCURVE",
"1569 1091 OFFCURVE",
"1648 1364 QCURVE",
"1557 1364 OFFCURVE",
"1310 1500 OFFCURVE",
"1274 1500 QCURVE SMOOTH",
"1238 1500 OFFCURVE",
"980 1300 OFFCURVE",
"980 1224 QCURVE SMOOTH",
"980 650 LINE",
"1153 700 OFFCURVE",
"1265 700 QCURVE SMOOTH",
"1332 700 OFFCURVE",
"1378 683 QCURVE SMOOTH",
"1500 635 OFFCURVE",
"1500 580 QCURVE SMOOTH",
"1500 440 OFFCURVE",
"1255 320 OFFCURVE",
"1050 320 QCURVE SMOOTH",
"859 320 OFFCURVE",
"629 390 OFFCURVE",
"610 440 QCURVE",
"810 570 OFFCURVE",
"810 718 QCURVE SMOOTH",
"810 926 OFFCURVE",
"656 993 QCURVE SMOOTH",
"574 1028 OFFCURVE",
"463 1028 QCURVE SMOOTH",
"364 1028 OFFCURVE",
"241 1000 QCURVE",
"301 1130 OFFCURVE",
"380 1150 QCURVE SMOOTH",
"408 1157 OFFCURVE",
"436 1157 QCURVE SMOOTH",
"484 1157 OFFCURVE",
"529 1135 QCURVE SMOOTH",
"599 1100 OFFCURVE",
"692 1100 QCURVE SMOOTH",
"693 1100 OFFCURVE",
"695 1101 QCURVE",
"789 1101 OFFCURVE",
"898 1364 QCURVE",
"753 1381 OFFCURVE",
"526 1500 OFFCURVE",
"482 1500 QCURVE SMOOTH",
"438 1500 OFFCURVE",
"150 1300 OFFCURVE",
"150 1224 QCURVE SMOOTH",
"150 650 LINE"
);
},
{
closed = 1;
nodes = (
"1588 -62 QCURVE SMOOTH",
"1525 0 OFFCURVE",
"1400 0 QCURVE SMOOTH",
"1266 0 OFFCURVE",
"1198 -38 QCURVE SMOOTH",
"1131 -75 OFFCURVE",
"1131 -150 QCURVE SMOOTH",
"1131 -250 OFFCURVE",
"1351 -250 QCURVE",
"1351 -150 OFFCURVE",
"1419 -150 QCURVE SMOOTH",
"1501 -150 OFFCURVE",
"1501 -250 QCURVE SMOOTH",
"1501 -300 OFFCURVE",
"1411 -325 QCURVE SMOOTH",
"1322 -350 OFFCURVE",
"1144 -350 QCURVE SMOOTH",
"647 -350 OFFCURVE",
"399 -422 QCURVE SMOOTH",
"151 -495 OFFCURVE",
"151 -666 QCURVE SMOOTH",
"151 -838 OFFCURVE",
"451 -897 QCURVE",
"451 -698 OFFCURVE",
"624 -599 QCURVE SMOOTH",
"797 -500 OFFCURVE",
"1144 -500 QCURVE SMOOTH",
"1178 -500 OFFCURVE",
"1210 -499 QCURVE",
"1210 -503 LINE SMOOTH",
"1210 -558 OFFCURVE",
"1258 -617 QCURVE SMOOTH",
"1334 -711 OFFCURVE",
"1448 -743 QCURVE SMOOTH",
"1474 -750 OFFCURVE",
"1504 -750 QCURVE SMOOTH",
"1606 -750 OFFCURVE",
"1750 -667 QCURVE",
"1522 -590 OFFCURVE",
"1402 -477 QCURVE",
"1473 -462 OFFCURVE",
"1523 -438 QCURVE SMOOTH",
"1650 -375 OFFCURVE",
"1650 -250 QCURVE SMOOTH",
"1650 -125 OFFCURVE"
);
}
);
width = 1800;
}
);
note = uni17AC;
unicode = 17AC;
},
{
glyphname = uni17AD;
layers = (
{
layerId = "B1070C97-2DE4-4FC8-9990-FF316D9539D4";
paths = (
{
closed = 1;
nodes = (
"1457 456 OFFCURVE",
"1457 469 QCURVE SMOOTH",
"1457 483 OFFCURVE",
"1469 493 QCURVE SMOOTH",
"1491 512 OFFCURVE",
"1550 567 QCURVE",
"1550 450 LINE SMOOTH",
"1550 406 OFFCURVE",
"1519 406 QCURVE SMOOTH",
"1487 406 OFFCURVE",
"1467 440 QCURVE SMOOTH"
);
},
{
closed = 1;
nodes = (
"577 903 QCURVE SMOOTH",
"375 903 OFFCURVE",
"375 665 QCURVE SMOOTH",
"375 487 OFFCURVE",
"517 487 QCURVE SMOOTH",
"593 487 OFFCURVE",
"620 518 QCURVE SMOOTH",
"634 535 OFFCURVE",
"650 535 QCURVE SMOOTH",
"661 535 OFFCURVE",
"673 525 QCURVE SMOOTH",
"700 501 OFFCURVE",
"700 461 QCURVE SMOOTH",
"700 392 OFFCURVE",
"550 377 QCURVE SMOOTH",
"532 375 OFFCURVE",
"514 375 QCURVE SMOOTH",
"393 375 OFFCURVE",
"340 469 QCURVE SMOOTH",
"280 576 OFFCURVE",
"280 750 QCURVE SMOOTH",
"280 920 OFFCURVE",
"365 1030 QCURVE SMOOTH",
"450 1139 OFFCURVE",
"559 1140 QCURVE SMOOTH",
"708 1140 OFFCURVE",
"890 1027 QCURVE",
"1008 1140 OFFCURVE",
"1122 1140 QCURVE SMOOTH",
"1235 1140 OFFCURVE",
"1393 1022 QCURVE SMOOTH",
"1550 904 OFFCURVE",
"1550 793 QCURVE SMOOTH",
"1550 629 OFFCURVE",
"1300 560 QCURVE SMOOTH",
"1050 491 OFFCURVE",
"1050 420 QCURVE SMOOTH",
"1050 307 OFFCURVE",
"1170 154 QCURVE SMOOTH",
"1289 0 OFFCURVE",
"1450 0 QCURVE SMOOTH",
"1530 0 OFFCURVE",
"1590 70 QCURVE SMOOTH",
"1650 140 OFFCURVE",
"1650 200 QCURVE SMOOTH",
"1650 1170 LINE SMOOTH",
"1650 1274 OFFCURVE",
"1500 1387 QCURVE SMOOTH",
"1362 1491 OFFCURVE",
"1229 1491 QCURVE SMOOTH",
"1217 1491 OFFCURVE",
"1205 1490 QCURVE SMOOTH",
"1100 1480 OFFCURVE",
"970 1305 QCURVE",
"888 1386 OFFCURVE",
"697 1500 OFFCURVE",
"588 1500 QCURVE SMOOTH",
"419 1500 OFFCURVE",
"285 1305 QCURVE SMOOTH",
"150 1110 OFFCURVE",
"150 750 QCURVE SMOOTH",
"150 0 OFFCURVE",
"531 0 QCURVE SMOOTH",
"800 0 OFFCURVE",
"800 558 QCURVE SMOOTH",
"800 903 OFFCURVE"
);
},
{
closed = 1;
nodes = (
"1588 -62 QCURVE SMOOTH",
"1525 0 OFFCURVE",
"1400 0 QCURVE SMOOTH",
"1266 0 OFFCURVE",
"1198 -38 QCURVE SMOOTH",
"1131 -75 OFFCURVE",
"1131 -150 QCURVE SMOOTH",
"1131 -250 OFFCURVE",
"1351 -250 QCURVE",
"1351 -150 OFFCURVE",
"1419 -150 QCURVE SMOOTH",
"1501 -150 OFFCURVE",
"1501 -250 QCURVE SMOOTH",
"1501 -300 OFFCURVE",
"1411 -325 QCURVE SMOOTH",
"1322 -350 OFFCURVE",
"1144 -350 QCURVE SMOOTH",
"647 -350 OFFCURVE",
"399 -422 QCURVE SMOOTH",
"151 -495 OFFCURVE",
"151 -666 QCURVE SMOOTH",
"151 -838 OFFCURVE",
"451 -897 QCURVE",
"451 -698 OFFCURVE",
"624 -599 QCURVE SMOOTH",
"797 -500 OFFCURVE",
"1144 -500 QCURVE SMOOTH",
"1397 -500 OFFCURVE",
"1523 -438 QCURVE SMOOTH",
"1650 -375 OFFCURVE",
"1650 -250 QCURVE SMOOTH",
"1650 -125 OFFCURVE"
);
}
);
width = 1800;
}
);
note = uni17AD;
unicode = 17AD;
},
{
glyphname = uni17AE;
layers = (
{
layerId = "B1070C97-2DE4-4FC8-9990-FF316D9539D4";
paths = (
{
closed = 1;
nodes = (
"1457 456 OFFCURVE",
"1457 469 QCURVE SMOOTH",
"1457 483 OFFCURVE",
"1469 493 QCURVE SMOOTH",
"1491 512 OFFCURVE",
"1550 567 QCURVE",
"1550 450 LINE SMOOTH",
"1550 406 OFFCURVE",
"1519 406 QCURVE SMOOTH",
"1487 406 OFFCURVE",
"1467 440 QCURVE SMOOTH"
);
},
{
closed = 1;
nodes = (
"577 903 QCURVE SMOOTH",
"375 903 OFFCURVE",
"375 665 QCURVE SMOOTH",
"375 487 OFFCURVE",
"517 487 QCURVE SMOOTH",
"593 487 OFFCURVE",
"620 518 QCURVE SMOOTH",
"634 535 OFFCURVE",
"650 535 QCURVE SMOOTH",
"661 535 OFFCURVE",
"673 525 QCURVE SMOOTH",
"700 501 OFFCURVE",
"700 461 QCURVE SMOOTH",
"700 392 OFFCURVE",
"550 377 QCURVE SMOOTH",
"532 375 OFFCURVE",
"514 375 QCURVE SMOOTH",
"393 375 OFFCURVE",
"340 469 QCURVE SMOOTH",
"280 576 OFFCURVE",
"280 750 QCURVE SMOOTH",
"280 920 OFFCURVE",
"365 1030 QCURVE SMOOTH",
"450 1139 OFFCURVE",
"559 1140 QCURVE SMOOTH",
"708 1140 OFFCURVE",
"890 1027 QCURVE",
"1008 1140 OFFCURVE",
"1122 1140 QCURVE SMOOTH",
"1235 1140 OFFCURVE",
"1393 1022 QCURVE SMOOTH",
"1550 904 OFFCURVE",
"1550 793 QCURVE SMOOTH",
"1550 629 OFFCURVE",
"1300 560 QCURVE SMOOTH",
"1050 491 OFFCURVE",
"1050 420 QCURVE SMOOTH",
"1050 307 OFFCURVE",
"1170 154 QCURVE SMOOTH",
"1289 0 OFFCURVE",
"1450 0 QCURVE SMOOTH",
"1530 0 OFFCURVE",
"1590 70 QCURVE SMOOTH",
"1650 140 OFFCURVE",
"1650 200 QCURVE SMOOTH",
"1650 1170 LINE SMOOTH",
"1650 1274 OFFCURVE",
"1500 1387 QCURVE SMOOTH",
"1362 1491 OFFCURVE",
"1229 1491 QCURVE SMOOTH",
"1217 1491 OFFCURVE",
"1205 1490 QCURVE SMOOTH",
"1100 1480 OFFCURVE",
"970 1305 QCURVE",
"888 1386 OFFCURVE",
"697 1500 OFFCURVE",
"588 1500 QCURVE SMOOTH",
"419 1500 OFFCURVE",
"285 1305 QCURVE SMOOTH",
"150 1110 OFFCURVE",
"150 750 QCURVE SMOOTH",
"150 0 OFFCURVE",
"531 0 QCURVE SMOOTH",
"800 0 OFFCURVE",
"800 558 QCURVE SMOOTH",
"800 903 OFFCURVE"
);
},
{
closed = 1;
nodes = (
"1588 -62 QCURVE SMOOTH",
"1525 0 OFFCURVE",
"1400 0 QCURVE SMOOTH",
"1266 0 OFFCURVE",
"1198 -38 QCURVE SMOOTH",
"1131 -75 OFFCURVE",
"1131 -150 QCURVE SMOOTH",
"1131 -250 OFFCURVE",
"1351 -250 QCURVE",
"1351 -150 OFFCURVE",
"1419 -150 QCURVE SMOOTH",
"1501 -150 OFFCURVE",
"1501 -250 QCURVE SMOOTH",
"1501 -300 OFFCURVE",
"1411 -325 QCURVE SMOOTH",
"1322 -350 OFFCURVE",
"1144 -350 QCURVE SMOOTH",
"647 -350 OFFCURVE",
"399 -422 QCURVE SMOOTH",
"151 -495 OFFCURVE",
"151 -666 QCURVE SMOOTH",
"151 -838 OFFCURVE",
"451 -897 QCURVE",
"451 -698 OFFCURVE",
"624 -599 QCURVE SMOOTH",
"797 -500 OFFCURVE",
"1144 -500 QCURVE SMOOTH",
"1178 -500 OFFCURVE",
"1210 -499 QCURVE",
"1210 -503 LINE SMOOTH",
"1210 -558 OFFCURVE",
"1258 -617 QCURVE SMOOTH",
"1334 -711 OFFCURVE",
"1448 -743 QCURVE SMOOTH",
"1474 -750 OFFCURVE",
"1504 -750 QCURVE SMOOTH",
"1606 -750 OFFCURVE",
"1750 -667 QCURVE",
"1522 -590 OFFCURVE",
"1402 -477 QCURVE",
"1473 -462 OFFCURVE",
"1523 -438 QCURVE SMOOTH",
"1650 -375 OFFCURVE",
"1650 -250 QCURVE SMOOTH",
"1650 -125 OFFCURVE"
);
}
);
width = 1800;
}
);
note = uni17AE;
unicode = 17AE;
},
{
glyphname = uni17AF;
layers = (
{
layerId = "B1070C97-2DE4-4FC8-9990-FF316D9539D4";
paths = (
{
closed = 1;
nodes = (
"549 710 QCURVE SMOOTH",
"580 710 OFFCURVE",
"580 648 QCURVE SMOOTH",
"580 640 LINE SMOOTH",
"580 585 OFFCURVE",
"370 500 OFFCURVE",
"200 500 QCURVE SMOOTH",
"150 500 OFFCURVE",
"150 388 QCURVE SMOOTH",
"150 275 OFFCURVE",
"325 138 QCURVE SMOOTH",
"500 0 OFFCURVE",
"745 0 QCURVE SMOOTH",
"850 0 OFFCURVE",
"947 151 QCURVE",
"1048 76 LINE SMOOTH",
"1150 0 OFFCURVE",
"1240 0 QCURVE SMOOTH",
"1350 0 OFFCURVE",
"1500 163 QCURVE SMOOTH",
"1650 326 OFFCURVE",
"1650 561 QCURVE SMOOTH",
"1650 1083 LINE",
"1641 1160 OFFCURVE",
"1512 1243 QCURVE SMOOTH",
"1375 1329 LINE SMOOTH",
"1102 1500 OFFCURVE",
"902 1500 QCURVE SMOOTH",
"900 1500 LINE SMOOTH",
"730 1500 OFFCURVE",
"500 1402 OFFCURVE",
"342 1312 QCURVE",
"500 1523 OFFCURVE",
"500 1670 QCURVE SMOOTH",
"500 1950 OFFCURVE",
"250 1950 QCURVE SMOOTH",
"122 1950 OFFCURVE",
"50 1700 QCURVE",
"200 1700 OFFCURVE",
"200 1600 QCURVE SMOOTH",
"200 1500 OFFCURVE",
"176 1406 QCURVE SMOOTH",
"151 1311 OFFCURVE",
"151 1211 QCURVE SMOOTH",
"151 1100 OFFCURVE",
"296 1100 QCURVE",
"512 1200 OFFCURVE",
"861 1200 QCURVE SMOOTH",
"1021 1200 OFFCURVE",
"1261 1047 QCURVE SMOOTH",
"1500 895 OFFCURVE",
"1500 798 QCURVE SMOOTH",
"1500 700 LINE SMOOTH",
"1500 470 OFFCURVE",
"1422 408 QCURVE SMOOTH",
"1345 347 OFFCURVE",
"1282 347 QCURVE SMOOTH",
"1220 347 OFFCURVE",
"1150 378 QCURVE SMOOTH",
"1080 408 OFFCURVE",
"1033 460 QCURVE SMOOTH",
"986 512 LINE",
"915 416 LINE",
"858 347 OFFCURVE",
"789 347 QCURVE SMOOTH",
"719 347 OFFCURVE",
"629 397 OFFCURVE",
"610 440 QCURVE",
"750 500 OFFCURVE",
"750 700 QCURVE SMOOTH",
"750 1000 OFFCURVE",
"430 1000 QCURVE SMOOTH",
"150 1000 OFFCURVE",
"150 775 QCURVE SMOOTH",
"150 600 OFFCURVE",
"281 576 QCURVE SMOOTH",
"311 570 OFFCURVE",
"338 570 QCURVE SMOOTH",
"423 570 OFFCURVE",
"464 631 QCURVE SMOOTH",
"516 710 OFFCURVE"
);
}
);
width = 1800;
}
);
note = uni17AF;
unicode = 17AF;
},
{
glyphname = uni17B0;
layers = (
{
layerId = "B1070C97-2DE4-4FC8-9990-FF316D9539D4";
paths = (
{
closed = 1;
nodes = (
"1457 456 OFFCURVE",
"1457 469 QCURVE SMOOTH",
"1457 483 OFFCURVE",
"1469 493 QCURVE SMOOTH",
"1491 512 OFFCURVE",
"1550 567 QCURVE",
"1550 450 LINE SMOOTH",
"1550 406 OFFCURVE",
"1519 406 QCURVE SMOOTH",
"1487 406 OFFCURVE",
"1467 440 QCURVE SMOOTH"
);
},
{
closed = 1;
nodes = (
"577 903 QCURVE SMOOTH",
"375 903 OFFCURVE",
"375 665 QCURVE SMOOTH",
"375 487 OFFCURVE",
"517 487 QCURVE SMOOTH",
"593 487 OFFCURVE",
"620 518 QCURVE SMOOTH",
"634 535 OFFCURVE",
"650 535 QCURVE SMOOTH",
"661 535 OFFCURVE",
"673 525 QCURVE SMOOTH",
"700 501 OFFCURVE",
"700 461 QCURVE SMOOTH",
"700 392 OFFCURVE",
"550 377 QCURVE SMOOTH",
"532 375 OFFCURVE",
"514 375 QCURVE SMOOTH",
"393 375 OFFCURVE",
"340 469 QCURVE SMOOTH",
"280 576 OFFCURVE",
"280 750 QCURVE SMOOTH",
"280 920 OFFCURVE",
"365 1030 QCURVE SMOOTH",
"450 1139 OFFCURVE",
"559 1140 QCURVE SMOOTH",
"708 1140 OFFCURVE",
"890 1027 QCURVE",
"1008 1140 OFFCURVE",
"1122 1140 QCURVE SMOOTH",
"1235 1140 OFFCURVE",
"1393 1022 QCURVE SMOOTH",
"1550 904 OFFCURVE",
"1550 793 QCURVE SMOOTH",
"1550 629 OFFCURVE",
"1300 560 QCURVE SMOOTH",
"1050 491 OFFCURVE",
"1050 420 QCURVE SMOOTH",
"1050 307 OFFCURVE",
"1170 154 QCURVE SMOOTH",
"1289 0 OFFCURVE",
"1450 0 QCURVE SMOOTH",
"1530 0 OFFCURVE",
"1590 70 QCURVE SMOOTH",
"1650 140 OFFCURVE",
"1650 200 QCURVE SMOOTH",
"1650 1170 LINE SMOOTH",
"1650 1274 OFFCURVE",
"1500 1387 QCURVE SMOOTH",
"1362 1491 OFFCURVE",
"1229 1491 QCURVE SMOOTH",
"1217 1491 OFFCURVE",
"1205 1490 QCURVE SMOOTH",
"1100 1480 OFFCURVE",
"970 1305 QCURVE",
"888 1386 OFFCURVE",
"697 1500 OFFCURVE",
"588 1500 QCURVE SMOOTH",
"419 1500 OFFCURVE",
"285 1305 QCURVE SMOOTH",
"150 1110 OFFCURVE",
"150 750 QCURVE SMOOTH",
"150 0 OFFCURVE",
"531 0 QCURVE SMOOTH",
"800 0 OFFCURVE",
"800 558 QCURVE SMOOTH",
"800 903 OFFCURVE"
);
},
{
closed = 1;
nodes = (
"499 -576 QCURVE SMOOTH",
"598 -700 OFFCURVE",
"768 -700 QCURVE SMOOTH",
"859 -700 OFFCURVE",
"996 -560 QCURVE",
"1088 -653 LINE SMOOTH",
"1133 -699 OFFCURVE",
"1271 -699 QCURVE SMOOTH",
"1385 -699 OFFCURVE",
"1443 -606 QCURVE SMOOTH",
"1500 -514 OFFCURVE",
"1500 -328 QCURVE SMOOTH",
"1500 -139 OFFCURVE",
"1317 -50 QCURVE",
"1362 -199 OFFCURVE",
"1362 -328 QCURVE SMOOTH",
"1362 -398 OFFCURVE",
"1340 -432 QCURVE SMOOTH",
"1317 -467 OFFCURVE",
"1271 -467 QCURVE SMOOTH",
"1225 -467 OFFCURVE",
"1192 -432 QCURVE SMOOTH",
"1132 -363 LINE SMOOTH",
"1103 -328 OFFCURVE",
"1070 -328 QCURVE SMOOTH",
"1024 -328 OFFCURVE",
"983 -363 QCURVE",
"900 -469 LINE",
"859 -514 OFFCURVE",
"813 -514 QCURVE SMOOTH",
"754 -514 OFFCURVE",
"708 -493 QCURVE SMOOTH",
"662 -472 OFFCURVE",
"630 -430 QCURVE",
"951 -329 LINE SMOOTH",
"1300 -226 OFFCURVE",
"1300 -149 QCURVE SMOOTH",
"1300 -50 OFFCURVE",
"1109 -50 QCURVE",
"1150 -72 OFFCURVE",
"1150 -121 QCURVE SMOOTH",
"1150 -161 OFFCURVE",
"883 -248 QCURVE",
"447 -375 OFFCURVE",
"400 -375 QCURVE",
"400 -452 OFFCURVE"
);
}
);
width = 1800;
}
);
note = uni17B0;
unicode = 17B0;
},
{
glyphname = uni17B1;
layers = (
{
layerId = "B1070C97-2DE4-4FC8-9990-FF316D9539D4";
paths = (
{
closed = 1;
nodes = (
"150 1040 QCURVE SMOOTH",
"150 720 OFFCURVE",
"658 720 QCURVE SMOOTH",
"729 720 OFFCURVE",
"858 770 OFFCURVE",
"930 859 OFFCURVE",
"930 908 QCURVE SMOOTH",
"930 957 OFFCURVE",
"856 1047 OFFCURVE",
"726 1096 OFFCURVE",
"658 1096 QCURVE SMOOTH",
"589 1096 OFFCURVE",
"459 1047 OFFCURVE",
"386 957 OFFCURVE",
"386 908 QCURVE SMOOTH",
"386 899 LINE",
"350 943 OFFCURVE",
"350 1020 QCURVE SMOOTH",
"350 1200 OFFCURVE",
"800 1200 QCURVE SMOOTH",
"1250 1200 OFFCURVE",
"1250 1009 QCURVE SMOOTH",
"1250 833 OFFCURVE",
"600 550 OFFCURVE",
"150 520 QCURVE",
"150 398 LINE SMOOTH",
"150 275 OFFCURVE",
"550 0 OFFCURVE",
"800 0 QCURVE SMOOTH",
"1150 0 OFFCURVE",
"1310 294 QCURVE",
"1310 0 OFFCURVE",
"1260 0 QCURVE",
"1357 -25 OFFCURVE",
"1430 -25 QCURVE SMOOTH",
"1649 -25 OFFCURVE",
"1650 200 QCURVE SMOOTH",
"1650 630 LINE SMOOTH",
"1650 688 OFFCURVE",
"1572 688 QCURVE SMOOTH",
"1487 688 OFFCURVE",
"1310 620 QCURVE",
"1310 475 OFFCURVE",
"1102 310 OFFCURVE",
"890 310 QCURVE SMOOTH",
"799 310 OFFCURVE",
"659 350 OFFCURVE",
"640 400 QCURVE",
"890 467 OFFCURVE",
"1650 870 OFFCURVE",
"1650 1089 QCURVE SMOOTH",
"1650 1500 OFFCURVE",
"900 1500 QCURVE SMOOTH",
"772 1500 OFFCURVE",
"667 1487 QCURVE",
"668 1499 OFFCURVE",
"668 1512 QCURVE SMOOTH",
"667 1586 OFFCURVE",
"570 1660 OFFCURVE",
"484 1660 QCURVE SMOOTH",
"385 1660 OFFCURVE",
"279 1581 QCURVE",
"279 1671 OFFCURVE",
"396 1716 QCURVE SMOOTH",
"514 1761 OFFCURVE",
"768 1761 QCURVE SMOOTH",
"1030 1761 OFFCURVE",
"1219 1691 QCURVE SMOOTH",
"1409 1621 OFFCURVE",
"1506 1481 QCURVE SMOOTH",
"1558 1407 OFFCURVE",
"1609 1407 QCURVE SMOOTH",
"1622 1407 OFFCURVE",
"1635 1412 QCURVE SMOOTH",
"1672 1426 OFFCURVE",
"1672 1467 QCURVE SMOOTH",
"1672 1498 OFFCURVE",
"1652 1544 QCURVE SMOOTH",
"1547 1777 OFFCURVE",
"1320 1894 QCURVE SMOOTH",
"1094 2011 OFFCURVE",
"767 2011 QCURVE SMOOTH",
"408 2011 OFFCURVE",
"279 1891 QCURVE SMOOTH",
"150 1771 OFFCURVE",
"150 1581 QCURVE SMOOTH",
"150 1420 OFFCURVE",
"323 1376 QCURVE",
"150 1261 OFFCURVE"
);
}
);
width = 1800;
}
);
note = uni17B1;
unicode = 17B1;
},
{
glyphname = uni17B2;
layers = (
{
layerId = "B1070C97-2DE4-4FC8-9990-FF316D9539D4";
paths = (
{
closed = 1;
nodes = (
"301 1425 QCURVE SMOOTH",
"300 1120 OFFCURVE",
"225 910 QCURVE SMOOTH",
"151 701 OFFCURVE",
"151 580 QCURVE SMOOTH",
"151 200 OFFCURVE",
"361 100 QCURVE SMOOTH",
"571 1 OFFCURVE",
"886 0 QCURVE SMOOTH",
"1201 0 OFFCURVE",
"1426 125 QCURVE SMOOTH",
"1651 251 OFFCURVE",
"1651 451 QCURVE SMOOTH",
"1651 651 OFFCURVE",
"1370 764 QCURVE",
"1511 852 OFFCURVE",
"1581 951 QCURVE SMOOTH",
"1651 1050 OFFCURVE",
"1651 1160 QCURVE SMOOTH",
"1651 1331 OFFCURVE",
"1557 1416 QCURVE SMOOTH",
"1464 1500 OFFCURVE",
"1279 1500 QCURVE SMOOTH",
"1275 1500 LINE SMOOTH",
"1088 1500 OFFCURVE",
"979 1425 QCURVE SMOOTH",
"871 1350 OFFCURVE",
"842 1200 QCURVE SMOOTH",
"831 1142 OFFCURVE",
"831 1095 QCURVE SMOOTH",
"831 900 OFFCURVE",
"1022 900 QCURVE SMOOTH",
"1100 900 OFFCURVE",
"1111 1001 QCURVE",
"1111 1017 LINE SMOOTH",
"1111 1100 OFFCURVE",
"1012 1100 QCURVE SMOOTH",
"1010 1100 LINE",
"1031 1201 OFFCURVE",
"1240 1201 QCURVE SMOOTH",
"1450 1201 OFFCURVE",
"1451 1116 QCURVE SMOOTH",
"1451 1031 OFFCURVE",
"1225 896 QCURVE",
"951 702 OFFCURVE",
"951 501 QCURVE SMOOTH",
"951 500 LINE",
"1158 633 OFFCURVE",
"1246 633 QCURVE SMOOTH",
"1261 633 OFFCURVE",
"1273 629 QCURVE SMOOTH",
"1350 601 OFFCURVE",
"1350 543 QCURVE SMOOTH",
"1350 542 LINE SMOOTH",
"1350 482 OFFCURVE",
"1201 416 QCURVE SMOOTH",
"1051 350 OFFCURVE",
"876 350 QCURVE SMOOTH",
"700 350 OFFCURVE",
"526 400 QCURVE SMOOTH",
"351 450 OFFCURVE",
"351 580 QCURVE SMOOTH",
"351 582 LINE SMOOTH",
"351 702 OFFCURVE",
"501 901 QCURVE SMOOTH",
"650 1100 OFFCURVE",
"650 1308 QCURVE SMOOTH",
"650 1500 LINE SMOOTH",
"650 1715 OFFCURVE",
"500 1828 QCURVE SMOOTH",
"350 1941 OFFCURVE",
"50 1951 QCURVE",
"301 1730 OFFCURVE"
);
}
);
width = 1800;
}
);
note = uni17B2;
unicode = 17B2;
},
{
glyphname = uni17B3;
layers = (
{
layerId = "B1070C97-2DE4-4FC8-9990-FF316D9539D4";
paths = (
{
closed = 1;
nodes = (
"668 1512 QCURVE SMOOTH",
"667 1586 OFFCURVE",
"570 1660 OFFCURVE",
"484 1660 QCURVE SMOOTH",
"385 1660 OFFCURVE",
"279 1581 QCURVE",
"279 1671 OFFCURVE",
"396 1716 QCURVE SMOOTH",
"514 1761 OFFCURVE",
"768 1761 QCURVE SMOOTH",
"1007 1761 OFFCURVE",
"1186 1702 QCURVE",
"1185 1680 OFFCURVE",
"1184 1658 QCURVE SMOOTH",
"1184 1643 LINE SMOOTH",
"1184 1544 OFFCURVE",
"1221 1476 QCURVE",
"1083 1500 OFFCURVE",
"900 1500 QCURVE SMOOTH",
"772 1500 OFFCURVE",
"666 1487 QCURVE",
"668 1499 OFFCURVE"
);
},
{
closed = 1;
nodes = (
"150 1040 QCURVE SMOOTH",
"150 720 OFFCURVE",
"658 720 QCURVE SMOOTH",
"729 720 OFFCURVE",
"858 770 OFFCURVE",
"930 859 OFFCURVE",
"930 908 QCURVE SMOOTH",
"930 957 OFFCURVE",
"856 1047 OFFCURVE",
"726 1096 OFFCURVE",
"658 1096 QCURVE SMOOTH",
"589 1096 OFFCURVE",
"459 1047 OFFCURVE",
"386 957 OFFCURVE",
"386 908 QCURVE SMOOTH",
"386 899 LINE",
"350 943 OFFCURVE",
"350 1020 QCURVE SMOOTH",
"350 1200 OFFCURVE",
"800 1200 QCURVE SMOOTH",
"1250 1200 OFFCURVE",
"1250 1009 QCURVE SMOOTH",
"1250 833 OFFCURVE",
"600 550 OFFCURVE",
"150 520 QCURVE",
"150 398 LINE SMOOTH",
"150 275 OFFCURVE",
"550 0 OFFCURVE",
"800 0 QCURVE SMOOTH",
"1150 0 OFFCURVE",
"1310 294 QCURVE",
"1310 0 OFFCURVE",
"1260 0 QCURVE",
"1357 -25 OFFCURVE",
"1430 -25 QCURVE SMOOTH",
"1649 -25 OFFCURVE",
"1650 200 QCURVE SMOOTH",
"1650 630 LINE SMOOTH",
"1650 688 OFFCURVE",
"1572 688 QCURVE SMOOTH",
"1487 688 OFFCURVE",
"1310 620 QCURVE",
"1310 475 OFFCURVE",
"1102 310 OFFCURVE",
"890 310 QCURVE SMOOTH",
"799 310 OFFCURVE",
"659 350 OFFCURVE",
"640 400 QCURVE",
"890 467 OFFCURVE",
"1650 870 OFFCURVE",
"1650 1089 QCURVE SMOOTH",
"1650 1243 OFFCURVE",
"1545 1339 QCURVE",
"1589 1349 OFFCURVE",
"1625 1377 QCURVE SMOOTH",
"1671 1413 OFFCURVE",
"1671 1467 QCURVE SMOOTH",
"1671 1502 OFFCURVE",
"1652 1544 QCURVE SMOOTH",
"1577 1709 OFFCURVE",
"1441 1817 QCURVE",
"1525 2055 OFFCURVE",
"1828 2069 QCURVE",
"1767 2260 OFFCURVE",
"1634 2260 QCURVE SMOOTH",
"1601 2260 OFFCURVE",
"1564 2248 QCURVE",
"1311 2207 OFFCURVE",
"1226 1936 QCURVE",
"1029 2011 OFFCURVE",
"767 2011 QCURVE SMOOTH",
"408 2011 OFFCURVE",
"279 1891 QCURVE SMOOTH",
"150 1771 OFFCURVE",
"150 1581 QCURVE SMOOTH",
"150 1421 OFFCURVE",
"332 1382 QCURVE",
"150 1267 OFFCURVE"
);
}
);
width = 1800;
}
);
note = uni17B3;
unicode = 17B3;
},
{
glyphname = uni17B6;
layers = (
{
layerId = "B1070C97-2DE4-4FC8-9990-FF316D9539D4";
paths = (
{
closed = 1;
nodes = (
"557 456 OFFCURVE",
"557 469 QCURVE SMOOTH",
"557 483 OFFCURVE",
"569 493 QCURVE SMOOTH",
"591 512 OFFCURVE",
"650 567 QCURVE",
"650 450 LINE SMOOTH",
"650 406 OFFCURVE",
"619 406 QCURVE SMOOTH",
"587 406 OFFCURVE",
"567 440 QCURVE SMOOTH"
);
},
{
closed = 1;
nodes = (
"28 1140 OFFCURVE",
"142 1140 QCURVE SMOOTH",
"285 1140 OFFCURVE",
"650 924 OFFCURVE",
"650 793 QCURVE SMOOTH",
"650 629 OFFCURVE",
"400 560 QCURVE SMOOTH",
"150 491 OFFCURVE",
"150 420 QCURVE SMOOTH",
"150 307 OFFCURVE",
"270 154 QCURVE SMOOTH",
"389 0 OFFCURVE",
"550 0 QCURVE SMOOTH",
"630 0 OFFCURVE",
"690 70 QCURVE SMOOTH",
"750 140 OFFCURVE",
"750 200 QCURVE SMOOTH",
"750 1150 LINE SMOOTH",
"750 1254 OFFCURVE",
"390 1500 OFFCURVE",
"225 1500 QCURVE SMOOTH",
"120 1500 OFFCURVE",
"-133 1186 OFFCURVE",
"-153 995 QCURVE"
);
}
);
width = 900;
}
);
note = uni17B6;
unicode = 17B6;
},
{
glyphname = uni17B7;
layers = (
{
layerId = "B1070C97-2DE4-4FC8-9990-FF316D9539D4";
paths = (
{
closed = 1;
nodes = (
"-1307 2175 QCURVE SMOOTH",
"-1450 2050 OFFCURVE",
"-1450 1893 QCURVE SMOOTH",
"-1450 1831 OFFCURVE",
"-1393 1766 QCURVE SMOOTH",
"-1337 1700 OFFCURVE",
"-1219 1700 QCURVE",
"-1053 1750 OFFCURVE",
"-896 1750 QCURVE SMOOTH",
"-700 1750 OFFCURVE",
"-421 1700 QCURVE",
"-250 1700 OFFCURVE",
"-250 1750 QCURVE",
"-307 2000 OFFCURVE",
"-479 2150 QCURVE SMOOTH",
"-650 2300 OFFCURVE",
"-879 2300 QCURVE SMOOTH",
"-1164 2300 OFFCURVE"
);
},
{
closed = 1;
nodes = (
"-1002 2050 OFFCURVE",
"-877 2050 QCURVE SMOOTH",
"-705 2050 OFFCURVE",
"-473 1921 OFFCURVE",
"-450 1848 QCURVE",
"-701 1900 OFFCURVE",
"-896 1900 QCURVE SMOOTH",
"-1025 1900 OFFCURVE",
"-1145 1879 QCURVE",
"-1145 1949 OFFCURVE"
);
}
);
width = 0;
}
);
note = uni17B7;
unicode = 17B7;
},
{
glyphname = uni17B8;
layers = (
{
layerId = "B1070C97-2DE4-4FC8-9990-FF316D9539D4";
paths = (
{
closed = 1;
nodes = (
"-401 2351 OFFCURVE",
"-401 2201 QCURVE",
"-300 2151 OFFCURVE",
"-300 2100 QCURVE SMOOTH",
"-301 2002 OFFCURVE",
"-364 2000 QCURVE",
"-429 2084 OFFCURVE",
"-523 2150 QCURVE SMOOTH",
"-740 2300 OFFCURVE",
"-899 2300 QCURVE SMOOTH",
"-1164 2300 OFFCURVE",
"-1307 2175 QCURVE SMOOTH",
"-1450 2050 OFFCURVE",
"-1450 1893 QCURVE SMOOTH",
"-1450 1831 OFFCURVE",
"-1393 1766 QCURVE SMOOTH",
"-1337 1700 OFFCURVE",
"-1219 1700 QCURVE",
"-1053 1750 OFFCURVE",
"-896 1750 QCURVE SMOOTH",
"-700 1750 OFFCURVE",
"-421 1700 QCURVE",
"-250 1700 OFFCURVE",
"-250 1750 QCURVE",
"-252 1759 OFFCURVE",
"-254 1769 QCURVE",
"-150 2045 OFFCURVE",
"-150 2196 QCURVE SMOOTH",
"-150 2351 OFFCURVE",
"-275 2351 QCURVE SMOOTH",
"-276 2351 LINE SMOOTH"
);
},
{
closed = 1;
nodes = (
"-1002 2050 OFFCURVE",
"-897 2050 QCURVE SMOOTH",
"-775 2050 OFFCURVE",
"-473 1921 OFFCURVE",
"-450 1848 QCURVE",
"-701 1900 OFFCURVE",
"-896 1900 QCURVE SMOOTH",
"-1025 1900 OFFCURVE",
"-1145 1879 QCURVE",
"-1145 1949 OFFCURVE"
);
}
);
width = 0;
}
);
note = uni17B8;
unicode = 17B8;
},
{
glyphname = uni17B9;
layers = (
{
layerId = "B1070C97-2DE4-4FC8-9990-FF316D9539D4";
paths = (
{
closed = 1;
nodes = (
"-1307 2175 QCURVE SMOOTH",
"-1450 2050 OFFCURVE",
"-1450 1893 QCURVE SMOOTH",
"-1450 1831 OFFCURVE",
"-1393 1766 QCURVE SMOOTH",
"-1337 1700 OFFCURVE",
"-1219 1700 QCURVE",
"-1053 1750 OFFCURVE",
"-896 1750 QCURVE SMOOTH",
"-700 1750 OFFCURVE",
"-421 1700 QCURVE",
"-250 1700 OFFCURVE",
"-250 1750 QCURVE",
"-276 1866 OFFCURVE",
"-337 1960 QCURVE",
"-287 1974 OFFCURVE",
"-255 2006 QCURVE SMOOTH",
"-199 2062 OFFCURVE",
"-199 2175 QCURVE SMOOTH",
"-199 2288 OFFCURVE",
"-255 2344 QCURVE SMOOTH",
"-311 2400 OFFCURVE",
"-424 2400 QCURVE SMOOTH",
"-537 2400 OFFCURVE",
"-593 2344 QCURVE SMOOTH",
"-635 2301 OFFCURVE",
"-646 2225 QCURVE",
"-787 2300 OFFCURVE",
"-899 2300 QCURVE SMOOTH",
"-1164 2300 OFFCURVE"
);
},
{
closed = 1;
nodes = (
"-1002 2050 OFFCURVE",
"-897 2050 QCURVE SMOOTH",
"-775 2050 OFFCURVE",
"-473 1921 OFFCURVE",
"-450 1848 QCURVE",
"-701 1900 OFFCURVE",
"-896 1900 QCURVE SMOOTH",
"-1025 1900 OFFCURVE",
"-1145 1879 QCURVE",
"-1145 1949 OFFCURVE"
);
},
{
closed = 1;
nodes = (
"-499 2175 QCURVE SMOOTH",
"-499 2250 OFFCURVE",
"-424 2250 QCURVE SMOOTH",
"-349 2250 OFFCURVE",
"-349 2175 QCURVE SMOOTH",
"-349 2100 OFFCURVE",
"-424 2100 QCURVE SMOOTH",
"-499 2100 OFFCURVE"
);
}
);
width = 0;
}
);
note = uni17B9;
unicode = 17B9;
},
